<svg width="14" height="13" viewBox="0 0 14 13" fill="none" xmlns="http://www.w3.org/2000/svg">
<path d="M6.00705 0.232698C6.11963 0.104314 6.27622 0.0227588 6.44595 0.00410665C6.54261 -0.0065408 6.64042 0.00357433 6.73286 0.0337747C6.82529 0.0639751 6.9102 0.113565 6.98193 0.179227C7.05365 0.244889 7.11053 0.32511 7.14875 0.414523C7.18697 0.503936 7.20566 0.60048 7.20357 0.697698V5.8196H12.3255C12.416 5.81832 12.5058 5.83504 12.5898 5.86879C12.6738 5.90253 12.7502 5.95263 12.8147 6.01618C12.8791 6.07972 12.9303 6.15544 12.9652 6.23893C13.0001 6.32242 13.0181 6.41202 13.0181 6.50252C13.0181 6.59303 13.0001 6.68263 12.9652 6.76612C12.9303 6.84961 12.8791 6.92533 12.8147 6.98887C12.7502 7.05242 12.6738 7.10251 12.5898 7.13626C12.5058 7.17001 12.416 7.18673 12.3255 7.18545H7.20357V12.3074C7.20485 12.3978 7.18813 12.4877 7.15438 12.5717C7.12064 12.6556 7.07054 12.7321 7.007 12.7965C6.94345 12.861 6.86774 12.9122 6.78424 12.9471C6.70075 12.982 6.61115 13 6.52065 13C6.43014 13 6.34054 12.982 6.25705 12.9471C6.17356 12.9122 6.09784 12.861 6.0343 12.7965C5.97076 12.7321 5.92066 12.6556 5.88691 12.5717C5.85317 12.4877 5.83645 12.3978 5.83773 12.3074V7.18545H0.715819C0.626126 7.18967 0.53648 7.17618 0.452 7.14575C0.36752 7.11533 0.289862 7.06856 0.223459 7.00811C0.157057 6.94767 0.103212 6.87474 0.0649988 6.79348C0.026786 6.71222 0.00495431 6.62424 0.000749911 6.53454C-0.00345449 6.44485 0.0100508 6.35521 0.040495 6.27073C0.0709393 6.18626 0.117726 6.10861 0.178183 6.04222C0.23864 5.97583 0.311583 5.922 0.392846 5.8838C0.47411 5.84561 0.5621 5.82379 0.651795 5.8196C0.673125 5.8186 0.69449 5.8186 0.715819 5.8196H5.83773V0.697698C5.83405 0.526982 5.89446 0.361083 6.00705 0.232698Z" fill="#FA5C5D"/>
</svg>
