<svg width="12" height="11" viewBox="0 0 12 11" fill="none" xmlns="http://www.w3.org/2000/svg">
<path d="M5.08288 0.196899C5.17815 0.0882658 5.31065 0.0192574 5.45427 0.00347486C5.53605 -0.00553452 5.61882 0.00302443 5.69703 0.0285786C5.77524 0.0541327 5.8471 0.0960931 5.90778 0.151653C5.96847 0.207214 6.0166 0.275093 6.04894 0.35075C6.08129 0.426408 6.0971 0.508099 6.09533 0.59036V4.92428H10.4292C10.5058 4.9232 10.5818 4.93734 10.6529 4.9659C10.724 4.99445 10.7886 5.03684 10.8432 5.09061C10.8977 5.14438 10.941 5.20845 10.9706 5.27909C11.0001 5.34974 11.0153 5.42556 11.0153 5.50214C11.0153 5.57872 11.0001 5.65453 10.9706 5.72518C10.941 5.79583 10.8977 5.8599 10.8432 5.91366C10.7886 5.96743 10.724 6.00982 10.6529 6.03837C10.5818 6.06693 10.5058 6.08108 10.4292 6.07999H6.09533V10.4139C6.09641 10.4905 6.08226 10.5665 6.05371 10.6376C6.02515 10.7086 5.98276 10.7733 5.929 10.8278C5.87523 10.8824 5.81116 10.9257 5.74051 10.9552C5.66987 10.9848 5.59405 11 5.51747 11C5.44089 11 5.36507 10.9848 5.29443 10.9552C5.22378 10.9257 5.15971 10.8824 5.10594 10.8278C5.05218 10.7733 5.00979 10.7086 4.98123 10.6376C4.95268 10.5665 4.93853 10.4905 4.93961 10.4139V6.07999H0.605693C0.529799 6.08357 0.453945 6.07215 0.382462 6.04641C0.310979 6.02066 0.245268 5.98109 0.189081 5.92994C0.132895 5.8788 0.0873329 5.81708 0.054999 5.74833C0.022665 5.67957 0.00419211 5.60512 0.00063454 5.52923C-0.00292303 5.45333 0.00850451 5.37748 0.034265 5.306C0.0600255 5.23453 0.0996142 5.16882 0.15077 5.11265C0.201926 5.05647 0.263647 5.01092 0.332409 4.9786C0.40117 4.94628 0.475623 4.92782 0.551519 4.92428C0.569567 4.92343 0.587645 4.92343 0.605693 4.92428H4.93961V0.59036C4.93651 0.445908 4.98762 0.305531 5.08288 0.196899Z" fill="#FA5C5D"/>
</svg>
