<svg width="86" height="47" viewBox="0 0 86 47" fill="none" xmlns="http://www.w3.org/2000/svg">
<path d="M84.7386 45.6654H80.64V25.0831H80.7963C80.9741 25.0831 81.1445 25.0125 81.2702 24.8868C81.3958 24.7612 81.4664 24.5907 81.4664 24.413C81.4665 24.2421 81.4002 24.0778 81.2814 23.9548C81.1626 23.8319 81.0007 23.7599 80.8298 23.7541C80.8923 23.3845 80.8923 23.007 80.8298 22.6373C80.7758 22.2697 80.6493 21.9165 80.4576 21.5983C80.2659 21.28 80.0128 21.0031 79.7131 20.7835L77.4348 19.0301V18.1702C77.4348 17.9925 77.3642 17.8221 77.2386 17.6964C77.1129 17.5707 76.9425 17.5001 76.7648 17.5001C76.587 17.5001 76.4166 17.5707 76.2909 17.6964C76.1653 17.8221 76.0947 17.9925 76.0947 18.1702V19.0413L73.9281 20.75C73.6261 20.9673 73.3715 21.2436 73.1795 21.5623C72.9875 21.881 72.8623 22.2353 72.8113 22.6038C72.7415 22.9728 72.7415 23.3516 72.8113 23.7206H72.655C72.4773 23.7206 72.3068 23.7912 72.1812 23.9169C72.0555 24.0425 71.9849 24.213 71.9849 24.3907C71.9849 24.5684 72.0555 24.7388 72.1812 24.8645C72.3068 24.9902 72.4773 25.0608 72.655 25.0608H73.0124V28.5228H63.4192V25.0608H63.5867C63.7644 25.0608 63.9348 24.9902 64.0605 24.8645C64.1862 24.7388 64.2568 24.5684 64.2568 24.3907C64.254 24.2187 64.1852 24.0544 64.0646 23.9318C63.944 23.8091 63.7809 23.7375 63.609 23.7318C63.6715 23.3622 63.6715 22.9846 63.609 22.615C63.4964 21.8737 63.0949 21.2072 62.4922 20.7611L60.214 19.0301V18.1702C60.214 17.9925 60.1434 17.8221 60.0177 17.6964C59.8921 17.5707 59.7216 17.5001 59.5439 17.5001C59.3662 17.5001 59.1958 17.5707 59.0701 17.6964C58.9445 17.8221 58.8739 17.9925 58.8739 18.1702V19.0413L56.7073 20.75C56.4053 20.9673 56.1506 21.2436 55.9587 21.5623C55.7667 21.881 55.6414 22.2353 55.5905 22.6038C55.5207 22.9728 55.5207 23.3516 55.5905 23.7206H55.423C55.2453 23.7206 55.0749 23.7912 54.9492 23.9169C54.8235 24.0425 54.7529 24.213 54.7529 24.3907C54.7529 24.5684 54.8235 24.7388 54.9492 24.8645C55.0749 24.9902 55.2453 25.0608 55.423 25.0608H55.7804V26.0994H55.5458L52.6199 24.0668C52.6199 24.0668 52.6199 24.0668 52.6199 23.9887V22.347C52.6268 21.8116 52.4411 21.2916 52.0967 20.8816C51.7524 20.4717 51.2722 20.199 50.7437 20.1134C50.7604 20.0399 50.7604 19.9636 50.7437 19.8901V16.6402C50.9148 16.6313 51.0754 16.555 51.1904 16.428C51.7238 15.8254 52.1183 15.1129 52.346 14.341C52.5737 13.5691 52.6291 12.7566 52.5082 11.9609C52.4 11.255 52.1573 10.5763 51.7934 9.96184C51.7934 9.96184 51.7934 9.89483 51.7934 9.86133V7.62776C51.795 7.53934 51.7787 7.45153 51.7455 7.36955C51.7124 7.28757 51.6631 7.21311 51.6006 7.15058C51.538 7.08805 51.4636 7.03875 51.3816 7.00561C51.2996 6.97248 51.2118 6.95618 51.1234 6.95769C50.9457 6.95769 50.7752 7.02828 50.6496 7.15395C50.5239 7.27961 50.4533 7.45004 50.4533 7.62776V8.48768C50.2886 8.35594 50.1172 8.23292 49.9396 8.11914L44.9811 4.89164V2.09967C44.9781 1.54181 44.7544 1.00781 44.3589 0.614381C43.9634 0.220956 43.4282 0.000110688 42.8703 0.000118497H42.647C42.3689 -0.00282855 42.0929 0.0492216 41.835 0.153277C41.577 0.257332 41.3422 0.41134 41.144 0.606449C40.9458 0.801558 40.788 1.03392 40.6799 1.29018C40.5718 1.54644 40.5154 1.82154 40.5139 2.09967V4.89164L35.3767 8.06331C35.198 8.18615 35.0193 8.30899 34.8518 8.44301V7.57192C34.8518 7.3942 34.7812 7.22377 34.6556 7.09811C34.5299 6.97244 34.3595 6.90185 34.1818 6.90185C34.004 6.90185 33.8336 6.97244 33.7079 7.09811C33.5823 7.22377 33.5117 7.3942 33.5117 7.57192V9.80549C33.5065 9.83879 33.5065 9.8727 33.5117 9.906C33.1442 10.5188 32.9013 11.1981 32.7969 11.905C32.676 12.7007 32.7314 13.5132 32.9591 14.2851C33.1868 15.0571 33.5813 15.7695 34.1147 16.3722C34.2297 16.4992 34.3904 16.5755 34.5615 16.5844V19.8566C34.5447 19.9301 34.5447 20.0064 34.5615 20.0799C34.035 20.1679 33.5574 20.4416 33.2153 20.8513C32.8732 21.261 32.6891 21.7797 32.6964 22.3135V23.9775C32.6964 23.9775 32.6964 23.9775 32.6964 24.0557L29.7705 26.0882H29.5359V25.0496H29.7035C29.8812 25.0496 30.0516 24.979 30.1773 24.8533C30.3029 24.7277 30.3735 24.5572 30.3735 24.3795C30.3707 24.2076 30.302 24.0432 30.1814 23.9206C30.0608 23.7979 29.8977 23.7263 29.7258 23.7206C29.794 23.3515 29.794 22.973 29.7258 22.6038C29.6132 21.8626 29.2116 21.1961 28.609 20.75L26.4201 19.0301V18.1702C26.4201 17.9925 26.3495 17.8221 26.2238 17.6964C26.0982 17.5707 25.9277 17.5001 25.75 17.5001C25.5723 17.5001 25.4019 17.5707 25.2762 17.6964C25.1506 17.8221 25.08 17.9925 25.08 18.1702V19.0413L22.9134 20.75C22.6132 20.9691 22.3598 21.246 22.1681 21.5643C21.9763 21.8826 21.85 22.2361 21.7966 22.6038C21.7268 22.9728 21.7268 23.3516 21.7966 23.7206H21.6291C21.4514 23.7206 21.281 23.7912 21.1553 23.9169C21.0296 24.0425 20.959 24.213 20.959 24.3907C20.959 24.5684 21.0296 24.7388 21.1553 24.8645C21.281 24.9902 21.4514 25.0608 21.6291 25.0608H21.9865V28.5228H12.4045V25.0608H12.6613C12.839 25.0608 13.0095 24.9902 13.1351 24.8645C13.2608 24.7388 13.3314 24.5684 13.3314 24.3907C13.3314 24.213 13.2608 24.0425 13.1351 23.9169C13.0095 23.7912 12.839 23.7206 12.6613 23.7206H12.5943C12.6641 23.3516 12.6641 22.9728 12.5943 22.6038C12.5409 22.2361 12.4146 21.8826 12.2229 21.5643C12.0311 21.246 11.7777 20.9691 11.4775 20.75L9.24396 19.0301V18.1702C9.24396 17.9925 9.17336 17.8221 9.0477 17.6964C8.92204 17.5707 8.7516 17.5001 8.57389 17.5001C8.39617 17.5001 8.22574 17.5707 8.10008 17.6964C7.97441 17.8221 7.90382 17.9925 7.90382 18.1702V19.0413L5.72609 20.75C5.12345 21.1961 4.72193 21.8626 4.6093 22.6038C4.54486 22.9733 4.54486 23.3512 4.6093 23.7206H4.5423C4.36458 23.7206 4.19415 23.7912 4.06848 23.9169C3.94282 24.0425 3.87222 24.213 3.87222 24.3907C3.87222 24.5684 3.94282 24.7388 4.06848 24.8645C4.19415 24.9902 4.36458 25.0608 4.5423 25.0608H4.79916V45.6654H0.756396C0.661905 45.6532 0.565883 45.6612 0.474737 45.689C0.383591 45.7167 0.299417 45.7636 0.227832 45.8265C0.156247 45.8894 0.0988962 45.9668 0.0596086 46.0536C0.0203211 46.1405 0 46.2346 0 46.3299C0 46.4252 0.0203211 46.5194 0.0596086 46.6062C0.0988962 46.693 0.156247 46.7705 0.227832 46.8333C0.299417 46.8962 0.383591 46.9431 0.474737 46.9709C0.565883 46.9987 0.661905 47.0067 0.756396 46.9944H84.7386C84.8331 47.0067 84.9291 46.9987 85.0203 46.9709C85.1114 46.9431 85.1956 46.8962 85.2672 46.8333C85.3387 46.7705 85.3961 46.693 85.4354 46.6062C85.4747 46.5194 85.495 46.4252 85.495 46.3299C85.495 46.2346 85.4747 46.1405 85.4354 46.0536C85.3961 45.9668 85.3387 45.8894 85.2672 45.8265C85.1956 45.7636 85.1114 45.7167 85.0203 45.689C84.9291 45.6612 84.8331 45.6532 84.7386 45.6654ZM17.8879 43.1527V41.4775C17.8879 41.2998 17.8173 41.1294 17.6916 41.0037C17.566 40.878 17.3955 40.8074 17.2178 40.8074C17.0401 40.8074 16.8697 40.878 16.744 41.0037C16.6183 41.1294 16.5477 41.2998 16.5477 41.4775V43.1527H12.4045V38.6855H22.0758V43.1527H17.8879ZM9.2998 43.1527V41.4775C9.2998 41.2998 9.2292 41.1294 9.10354 41.0037C8.97788 40.878 8.80744 40.8074 8.62973 40.8074C8.45201 40.8074 8.28158 40.878 8.15592 41.0037C8.03025 41.1294 7.95966 41.2998 7.95966 41.4775V43.1527H6.19514V38.6855H11.0643V43.1527H9.2998ZM30.072 27.5177H40.6703C40.6532 27.6698 40.6532 27.8234 40.6703 27.9756V28.601H28.6202V27.5177H30.072ZM56.8748 27.5177V28.6345H44.8917V28.0091C44.8867 27.8544 44.8642 27.7008 44.8247 27.5512H56.886L56.8748 27.5177ZM76.8541 40.9191C76.6764 40.9191 76.506 40.9897 76.3803 41.1154C76.2546 41.241 76.184 41.4115 76.184 41.5892V43.1527H74.4307V38.6855H79.2999V43.1527H77.5353V41.4775C77.5353 41.2998 77.4647 41.1294 77.3391 41.0037C77.2134 40.878 77.043 40.8074 76.8653 40.8074L76.8541 40.9191ZM68.9473 43.1527V41.4775C68.9473 41.2998 68.8767 41.1294 68.751 41.0037C68.6253 40.878 68.4549 40.8074 68.2772 40.8074C68.0995 40.8074 67.929 40.878 67.8034 41.0037C67.6777 41.1294 67.6071 41.2998 67.6071 41.4775V43.1527H63.4192V38.6855H73.0905V43.1527H68.9473ZM59.4993 43.1527H57.2657V38.6855H62.1349V43.1527H59.4993ZM36.661 29.8853V31.7726H32.0934V29.8853H36.661ZM39.1291 29.8853V32.4315V35.7819V40.6958H38.0123V29.8853H39.1291ZM41.2845 29.8853H45.0369V31.7726H40.5139V29.8853H41.2845ZM47.505 29.8853V40.6958H46.3882V29.8853H47.505ZM53.4128 29.8853V31.7726H48.8451V29.8853H53.4128ZM55.8697 29.8853V40.6958H54.7529V29.8853H55.8697ZM29.6253 42.0359H55.8697V43.1527H29.6253V42.0359ZM36.661 35.123H32.0934V33.1016H36.661V35.123ZM32.0934 36.452H36.661V40.6958H32.0934V36.452ZM45.0369 35.1118H40.5139V33.1016H45.0816L45.0369 35.1118ZM40.5139 36.452H45.0816V40.6958H40.5139V36.452ZM53.4575 35.1118H48.8451V33.1016H53.4128L53.4575 35.1118ZM48.8451 36.452H53.4128V40.6958H48.8451V36.452ZM30.7532 40.6958H29.6364V29.8853H30.7532V40.6958ZM74.4307 25.1166H79.2999V31.8173H74.4307V25.1166ZM79.2999 33.1016V37.4236H74.4307V33.1016H79.2999ZM73.0905 37.4236H63.4192V33.1016H73.0905V37.4236ZM62.079 37.4236H57.2657V33.1016H62.1349L62.079 37.4236ZM43.5516 27.9197V28.5451H41.9546V27.9197C42.0584 27.3825 42.3325 26.893 42.7363 26.5238C43.1506 26.8897 43.4364 27.3791 43.5516 27.9197ZM28.2851 37.4347H23.416V33.1016H28.2851V37.4347ZM22.0758 37.4347H12.4045V33.1016H22.0758V37.4347ZM6.19514 33.1016H11.0643V37.4236H6.19514V33.1016ZM6.19514 25.1054H11.0643V31.8061H6.19514V25.1054ZM23.416 38.7749H28.2851V43.242H23.416V38.7749ZM60.2698 44.5152H79.2552V45.6319H60.2698V44.5152ZM74.1738 22.8049C74.2232 22.4165 74.4238 22.0633 74.7322 21.8221L76.7871 20.2139L79.0207 21.8333C79.3242 22.0722 79.5209 22.4214 79.5679 22.8049C79.6131 23.1229 79.5706 23.4473 79.445 23.743H74.2967C74.1711 23.4473 74.1286 23.1229 74.1738 22.8049ZM73.057 29.8853V31.7726H63.4192V29.8853H73.057ZM56.953 22.8049C57.0063 22.4151 57.2109 22.0621 57.5226 21.8221L59.5663 20.2139L61.7998 21.8333C62.1001 22.0734 62.2929 22.4228 62.3359 22.8049C62.3846 23.1219 62.346 23.4462 62.2242 23.743H57.087C56.9576 23.4483 56.9113 23.1239 56.953 22.8049ZM57.2657 25.1166H62.1349V31.8173H57.2657V29.8853H57.6119C57.7896 29.8853 57.96 29.8147 58.0857 29.689C58.2114 29.5634 58.282 29.3929 58.282 29.2152V26.7918C58.282 26.6141 58.2114 26.4436 58.0857 26.318C57.96 26.1923 57.7896 26.1217 57.6119 26.1217H57.2657V25.1166ZM46.7233 17.891C46.5455 17.891 46.3751 17.9616 46.2494 18.0873C46.1238 18.2129 46.0532 18.3834 46.0532 18.5611V20.1022H43.4176V18.5834C43.4176 18.4057 43.347 18.2353 43.2213 18.1096C43.0956 17.9839 42.9252 17.9133 42.7475 17.9133C42.5698 17.9133 42.3993 17.9839 42.2737 18.1096C42.148 18.2353 42.0774 18.4057 42.0774 18.5834V20.1246H39.4977V18.5834C39.4977 18.4057 39.4271 18.2353 39.3014 18.1096C39.1757 17.9839 39.0053 17.9133 38.8276 17.9133C38.6499 17.9133 38.4794 17.9839 38.3538 18.1096C38.2281 18.2353 38.1575 18.4057 38.1575 18.5834V20.1246H35.9239C35.9293 20.0614 35.9293 19.9979 35.9239 19.9347V16.6514H49.5599V19.9124C49.5545 19.9756 49.5545 20.0391 49.5599 20.1022H47.3263V18.5834C47.3293 18.4945 47.3145 18.4059 47.2829 18.3227C47.2512 18.2396 47.2034 18.1635 47.142 18.0991C47.0807 18.0346 47.0071 17.983 46.9256 17.9473C46.8442 17.9116 46.7564 17.8924 46.6674 17.891H46.7233ZM44.2217 6.00842L49.4482 9.20242C49.9663 9.52386 50.4083 9.95397 50.7438 10.463C51.0793 10.9721 51.3003 11.5479 51.3914 12.1507C51.4744 12.706 51.4439 13.2724 51.3019 13.8156C51.1598 14.3588 50.9092 14.8676 50.565 15.3112H44.9811V13.9153C44.9758 13.6127 44.9153 13.3137 44.8024 13.033C44.4832 12.2459 43.8874 11.6025 43.1272 11.2238C42.9408 11.1492 42.7329 11.1492 42.5465 11.2238C41.7712 11.5871 41.1528 12.2175 40.8043 12.9995C40.6775 13.3042 40.6093 13.63 40.6033 13.9599V15.3559H34.93C34.5878 14.9114 34.3391 14.4023 34.199 13.8591C34.0589 13.3159 34.0302 12.75 34.1147 12.1954C34.2059 11.5926 34.4268 11.0167 34.7623 10.5077C35.0978 9.99864 35.5399 9.56853 36.058 9.24709L41.2287 6.05309L44.2217 6.00842ZM41.9881 13.9153C41.9859 13.7628 42.0124 13.6112 42.0663 13.4685C42.2141 13.1204 42.4631 12.8247 42.781 12.6198C43.093 12.8314 43.3403 13.1251 43.4957 13.4685C43.5452 13.6124 43.5716 13.7632 43.5739 13.9153V15.3112H41.9546L41.9881 13.9153ZM42.8927 1.34026C42.9928 1.33875 43.0922 1.35737 43.1851 1.395C43.2779 1.43263 43.3622 1.48851 43.433 1.55933C43.5038 1.63015 43.5597 1.71447 43.5974 1.80728C43.635 1.9001 43.6536 1.99953 43.6521 2.09967V4.66828H41.8764V2.09967C41.8749 1.99953 41.8935 1.9001 41.9311 1.80728C41.9688 1.71447 42.0247 1.63015 42.0955 1.55933C42.1663 1.48851 42.2506 1.43263 42.3434 1.395C42.4362 1.35737 42.5357 1.33875 42.6358 1.34026H42.8927ZM34.1147 22.347C34.1147 22.1071 34.2101 21.877 34.3797 21.7073C34.5493 21.5377 34.7794 21.4424 35.0193 21.4424H50.4756C50.7166 21.4424 50.9478 21.5373 51.1193 21.7066C51.2907 21.876 51.3885 22.106 51.3914 22.347V23.3409H34.1147V22.347ZM34.2823 24.6811H51.2127L53.2788 26.1217H44.1546C43.8567 25.745 43.5239 25.3973 43.1607 25.0831C43.041 24.9851 42.891 24.9316 42.7363 24.9316C42.5816 24.9316 42.4317 24.9851 42.312 25.0831C41.9505 25.3956 41.6213 25.7436 41.3292 26.1217H32.2162L34.2823 24.6811ZM27.9501 26.1217C27.7724 26.1217 27.602 26.1923 27.4763 26.318C27.3506 26.4436 27.28 26.6141 27.28 26.7918V29.2152C27.28 29.3929 27.3506 29.5634 27.4763 29.689C27.602 29.8147 27.7724 29.8853 27.9501 29.8853H28.2851V31.7726H23.416V25.0719H28.2851V26.077L27.9501 26.1217ZM23.1703 22.7714C23.1923 22.5784 23.2531 22.3918 23.3491 22.2229C23.445 22.054 23.5741 21.9063 23.7287 21.7886L25.7724 20.1804L28.0059 21.7998C28.3062 22.0399 28.499 22.3893 28.542 22.7714C28.5962 23.0883 28.5574 23.4141 28.4303 23.7095H23.2931C23.1686 23.4253 23.1261 23.1119 23.1703 22.8049V22.7714ZM22.0535 29.8518V31.7391H12.4045V29.8853L22.0535 29.8518ZM5.94944 22.8049C5.97146 22.6119 6.03227 22.4253 6.12823 22.2564C6.22419 22.0875 6.35331 21.9398 6.50784 21.8221L8.55155 20.2139L10.7851 21.8333C11.0854 22.0734 11.2782 22.4228 11.3212 22.8049C11.3754 23.1218 11.3366 23.4476 11.2095 23.743H6.07229C5.94144 23.4487 5.89876 23.1229 5.94944 22.8049ZM6.20631 44.5152H25.08V45.6319H6.20631V44.5152ZM26.4201 45.6319V44.5822H58.9744V45.6319H26.4201Z" fill="#808080"/>
</svg>
