<svg width="37" height="47" viewBox="0 0 37 47" fill="none" xmlns="http://www.w3.org/2000/svg">
<path d="M24.7025 45.6233H17.4837C16.593 45.6233 15.8683 44.8986 15.8683 44.0079V38.7775H22.7889C23.1691 38.7775 23.4772 38.4693 23.4772 38.0892C23.4772 37.709 23.1691 37.4009 22.7889 37.4009H15.1673C14.8125 37.4009 14.5191 37.1234 14.4998 36.7719L13.0317 8.23031C13.0259 8.11972 12.9937 8.01207 12.9375 7.91663L10.741 4.18348H32.2373L30.3232 7.43665C30.1304 7.76429 30.2398 8.18617 30.5673 8.37889C30.8951 8.57171 31.3168 8.4624 31.5097 8.13468L34.0342 3.84419C34.0965 3.73838 34.1292 3.61788 34.1292 3.49518V1.18525C34.1292 0.531642 33.5975 0 32.9439 0H10.0345C9.38085 0 8.84912 0.531642 8.84912 1.18525V3.49509C8.84912 3.61779 8.88188 3.73829 8.9442 3.8441L11.6655 8.46929L13.1251 36.8454C13.172 37.6923 13.7315 38.3938 14.4917 38.6605V44.0078C14.4917 45.6576 15.8339 46.9998 17.4837 46.9998H24.7025C25.0827 46.9998 25.3908 46.6916 25.3908 46.3115C25.3908 45.9314 25.0826 45.6233 24.7025 45.6233ZM32.7526 1.3766V2.80679H10.2257V1.3766H32.7526Z" fill="#808080"/>
<path d="M36.1037 10.3285C35.8188 10.0243 35.4163 9.84985 34.9994 9.84985H24.6084C24.1916 9.84985 23.7891 10.0243 23.5041 10.3285C23.2192 10.6328 23.0712 11.0458 23.0984 11.4619L24.3859 31.1563C24.4108 31.5356 24.7374 31.8235 25.1177 31.7982C25.497 31.7735 25.7844 31.4458 25.7596 31.0665L24.693 14.7511H34.9149L33.4297 37.4694C33.3794 38.2391 32.7357 38.842 31.9643 38.842H27.6435C26.8721 38.842 26.2284 38.2391 26.1781 37.4694L25.9513 33.9998C25.9264 33.6204 25.5962 33.3325 25.2195 33.3578C24.8401 33.3826 24.5527 33.7102 24.5775 34.0895L24.8044 37.5591C24.8759 38.653 25.5663 39.5723 26.5188 39.985V44.8978C26.5188 46.0565 27.4614 46.9991 28.62 46.9991H30.9878C32.1464 46.9991 33.089 46.0565 33.089 44.8978V39.985C34.0415 39.5722 34.7318 38.653 34.8034 37.5591L36.5096 11.4617C36.5366 11.0457 36.3887 10.6326 36.1037 10.3285ZM31.7124 44.8978C31.7124 45.2974 31.3873 45.6225 30.9878 45.6225H28.62C28.2204 45.6225 27.8954 45.2974 27.8954 44.8978V40.2186H31.7124V44.8978ZM24.603 13.3744L24.4721 11.372C24.4689 11.3231 24.4902 11.2893 24.5088 11.2696C24.5272 11.2499 24.5595 11.2264 24.6084 11.2264H34.9994C35.0484 11.2264 35.0807 11.2499 35.0992 11.2696C35.1177 11.2893 35.1391 11.3231 35.1358 11.372L35.0049 13.3744H24.603Z" fill="#808080"/>
<path d="M10.2249 31.5239V26.0665C10.2249 25.3158 9.61425 24.7051 8.86364 24.7051H8.80316V23.5458C8.80316 23.1657 8.49508 22.8575 8.11486 22.8575C7.73464 22.8575 7.42656 23.1657 7.42656 23.5458V24.7051H3.74875V20.1601C5.30752 19.4582 6.56178 18.2322 7.30469 16.7177C7.38517 17.2963 7.42647 17.8823 7.42647 18.4745V20.6126C7.42647 20.9927 7.73455 21.3009 8.11477 21.3009C8.49498 21.3009 8.80307 20.9927 8.80307 20.6126V18.4745C8.80307 16.47 8.38504 14.5271 7.56073 12.6995C7.33699 12.2037 6.88179 11.8626 6.34281 11.7875C5.80383 11.7119 5.27274 11.9154 4.9218 12.3311L3.92083 13.5163C2.92215 14.6987 2.37215 16.2021 2.37215 17.7497V24.7052H2.31177C1.56106 24.7052 0.950403 25.3159 0.950403 26.0666V31.524C0.397011 31.7255 9.17228e-05 32.2553 9.17228e-05 32.8775V35.3655C9.17228e-05 35.366 0 35.3667 0 35.3672C0 35.3678 9.17228e-05 35.3684 9.17228e-05 35.369V38.0647C9.17228e-05 38.4448 0.308175 38.753 0.688391 38.753C1.06861 38.753 1.37669 38.4448 1.37669 38.0647V36.0554H9.79881V43.7519C9.79881 44.7839 8.95917 45.6235 7.92709 45.6235H3.24822C2.21623 45.6235 1.3766 44.7839 1.3766 43.7519V40.998C1.3766 40.6178 1.06852 40.3097 0.688299 40.3097C0.308083 40.3097 0 40.6178 0 40.998V43.7519C0 45.5429 1.45717 47.0001 3.24822 47.0001H7.927C9.71814 47.0001 11.1753 45.5429 11.1753 43.7519V32.8775C11.1753 32.2553 10.7783 31.7254 10.2249 31.5239ZM4.97245 14.4045L5.97342 13.2192C6.03491 13.1465 6.11209 13.145 6.15247 13.1508C6.19295 13.1565 6.26673 13.1789 6.30592 13.2656C6.44358 13.5707 6.56848 13.8795 6.6809 14.1915L6.5013 14.9222C6.11788 16.4826 5.11379 17.8085 3.74866 18.6107V17.7495C3.74875 16.5268 4.18339 15.3387 4.97245 14.4045ZM2.327 26.0817H8.84831V31.4359H2.327V26.0817ZM1.37669 34.6789V32.8775C1.37669 32.8417 1.40569 32.8126 1.44148 32.8126H1.6387H9.53661H9.73383C9.76962 32.8126 9.79871 32.8417 9.79871 32.8775V34.6789H1.37669Z" fill="#808080"/>
</svg>
