<svg width="36" height="47" viewBox="0 0 36 47" fill="none" xmlns="http://www.w3.org/2000/svg">
<path d="M18.9773 29.0996V29.3996H19.2773H20.6543C21.249 29.3996 21.7312 29.8818 21.7312 30.4766C21.7312 31.0713 21.249 31.5535 20.6543 31.5535H19.2773H18.9773V31.8535V33.2305C18.9773 33.8252 18.4951 34.3074 17.9003 34.3074C17.3056 34.3074 16.8234 33.8252 16.8234 33.2305V31.8535V31.5535H16.5234H15.1464C14.5517 31.5535 14.0695 31.0713 14.0695 30.4766C14.0695 29.8818 14.5517 29.3996 15.1464 29.3996H16.5234H16.8234V29.0996V27.7227C16.8234 27.1279 17.3056 26.6457 17.9003 26.6457C18.4951 26.6457 18.9773 27.1279 18.9773 27.7227V29.0996ZM32.7424 15.2326L33.0411 15.2054L32.7424 15.2326L35.4963 45.5255C35.5237 45.8269 35.4231 46.1258 35.219 46.3493C35.0149 46.5727 34.7263 46.7 34.4238 46.7H1.37691C1.07438 46.7 0.785747 46.5727 0.581691 46.3493C0.377677 46.1259 0.277067 45.8269 0.304415 45.5255C0.304416 45.5255 0.304417 45.5255 0.304419 45.5255L3.05832 15.2326L3.05832 15.2326C3.10872 14.6779 3.57382 14.2531 4.13082 14.2531H9.63863H9.93863V13.9531V8.26172C9.93863 3.87189 13.5105 0.3 17.9003 0.3C22.2902 0.3 25.8621 3.87189 25.8621 8.26172V13.9531V14.2531H26.1621H31.6699C32.2269 14.2531 32.692 14.6779 32.7424 15.2326ZM23.4082 14.2531H23.7082V13.9531V8.26172C23.7082 5.05903 21.103 2.45391 17.9003 2.45391C14.6977 2.45391 12.0925 5.05903 12.0925 8.26172V13.9531V14.2531H12.3925H23.4082ZM2.5859 44.2189L2.55616 44.5461H2.88467H32.916H33.2445L33.2148 44.2189L30.7112 16.6799L30.6864 16.407H30.4124H5.38825H5.11428L5.08948 16.6799L2.5859 44.2189ZM8.56168 30.4766C8.56168 25.3275 12.7513 21.1379 17.9003 21.1379C23.0494 21.1379 27.239 25.3275 27.239 30.4766C27.239 35.6256 23.0494 39.8152 17.9003 39.8152C12.7513 39.8152 8.56168 35.6256 8.56168 30.4766ZM10.7156 30.4766C10.7156 34.4385 13.9384 37.6613 17.9003 37.6613C21.8623 37.6613 25.0851 34.4385 25.0851 30.4766C25.0851 26.5146 21.8623 23.2918 17.9003 23.2918C13.9384 23.2918 10.7156 26.5146 10.7156 30.4766Z" fill="#808080" stroke="white" stroke-width="0.6"/>
</svg>
