<svg width="22" height="19" viewBox="0 0 22 19" fill="none" xmlns="http://www.w3.org/2000/svg">
<path d="M4.10294 3.35594L4.0812 3.28539H4.00738H1.50887C1.33762 3.28539 1.17339 3.21737 1.0523 3.09628C0.931211 2.97519 0.863184 2.81096 0.863184 2.63971C0.863184 2.46847 0.931211 2.30423 1.0523 2.18314C1.17339 2.06206 1.33762 1.99403 1.50887 1.99403H4.00738H4.0812L4.10294 1.92348C4.25627 1.42591 4.56502 0.990579 4.98389 0.681345C5.40277 0.372112 5.90972 0.205255 6.43037 0.205255C6.95103 0.205255 7.45798 0.372112 7.87685 0.681345C8.29573 0.990579 8.60448 1.42591 8.7578 1.92348L8.77954 1.99403H8.85337H20.8966C21.0679 1.99403 21.2321 2.06206 21.3532 2.18314C21.4743 2.30423 21.5423 2.46846 21.5423 2.63971C21.5423 2.81096 21.4743 2.97519 21.3532 3.09628C21.2321 3.21737 21.0679 3.28539 20.8966 3.28539H8.85337H8.77954L8.7578 3.35594C8.60448 3.85351 8.29573 4.28884 7.87685 4.59808C7.45798 4.90731 6.95103 5.07417 6.43037 5.07417C5.90972 5.07417 5.40277 4.90731 4.98389 4.59808C4.56502 4.28884 4.25627 3.85351 4.10294 3.35594ZM6.3178 1.50308C6.0549 1.52867 5.809 1.6446 5.62197 1.83112L5.69259 1.90193C5.59534 1.99857 5.51821 2.11354 5.46565 2.24017C5.4131 2.36681 5.38617 2.5026 5.38642 2.63971H5.28642C5.28642 2.63977 5.28642 2.63983 5.28642 2.63989C5.28646 2.90397 5.37802 3.15987 5.54552 3.36404C5.71305 3.56825 5.9462 3.70807 6.20525 3.75969C6.4643 3.81131 6.73323 3.77153 6.96624 3.64713C7.19926 3.52273 7.38194 3.3214 7.48319 3.07744C7.58443 2.83347 7.59798 2.56195 7.52151 2.30912C7.44504 2.05628 7.2833 1.83778 7.06382 1.69081C6.84434 1.54384 6.5807 1.4775 6.3178 1.50308Z" fill="#333333" stroke="#F5F5F5" stroke-width="0.2"/>
<path d="M15.1667 8.69143C15.3537 8.5049 15.5996 8.38898 15.8625 8.36339C16.1254 8.33781 16.3891 8.40415 16.6086 8.55112C16.828 8.69808 16.9898 8.91659 17.0662 9.16942C17.1427 9.42225 17.1292 9.69377 17.0279 9.93774C16.9267 10.1817 16.744 10.383 16.511 10.5074C16.278 10.6318 16.009 10.6716 15.75 10.62C15.4909 10.5684 15.2578 10.4286 15.0903 10.2243C14.9227 10.0201 14.8312 9.76416 14.8312 9.50002M15.1667 8.69143C15.0601 8.79736 14.9756 8.92336 14.918 9.06215C14.8604 9.20093 14.8309 9.34976 14.8312 9.50002M15.1667 8.69143C15.1668 8.69139 15.1668 8.69135 15.1668 8.6913L15.2373 8.76223L15.1667 8.69143ZM14.8312 9.50002H14.9312L14.8312 9.5002C14.8312 9.50014 14.8312 9.50008 14.8312 9.50002ZM13.6477 10.2163L13.6259 10.1457H13.5521H1.50887C1.33762 10.1457 1.17339 10.0777 1.0523 9.95658C0.931211 9.8355 0.863184 9.67126 0.863184 9.50002C0.863184 9.32877 0.931211 9.16454 1.0523 9.04345C1.17339 8.92236 1.33762 8.85433 1.50887 8.85433H13.5521H13.6259L13.6477 8.78378C13.801 8.28622 14.1098 7.85088 14.5286 7.54165C14.9475 7.23242 15.4545 7.06556 15.9751 7.06556C16.4958 7.06556 17.0027 7.23242 17.4216 7.54165C17.8405 7.85088 18.1492 8.28622 18.3025 8.78378L18.3243 8.85433H18.3981H20.8966C21.0679 8.85433 21.2321 8.92236 21.3532 9.04345C21.4743 9.16454 21.5423 9.32877 21.5423 9.50002C21.5423 9.67126 21.4743 9.8355 21.3532 9.95658C21.2321 10.0777 21.0679 10.1457 20.8966 10.1457H18.3981H18.3243L18.3025 10.2163C18.1492 10.7138 17.8405 11.1491 17.4216 11.4584C17.0027 11.7676 16.4958 11.9345 15.9751 11.9345C15.4545 11.9345 14.9475 11.7676 14.5286 11.4584C14.1098 11.1491 13.801 10.7138 13.6477 10.2163Z" fill="#333333" stroke="#F5F5F5" stroke-width="0.2"/>
<path d="M6.48913 17.0765L6.46739 17.006H6.39356H1.50887C1.33762 17.006 1.17339 16.9379 1.0523 16.8169C0.931211 16.6958 0.863184 16.5315 0.863184 16.3603C0.863184 16.189 0.931211 16.0248 1.0523 15.9037C1.17339 15.7826 1.33762 15.7146 1.50887 15.7146H6.39356H6.46739L6.48913 15.6441C6.64246 15.1465 6.9512 14.7112 7.37008 14.4019C7.78895 14.0927 8.2959 13.9258 8.81656 13.9258C9.33721 13.9258 9.84416 14.0927 10.263 14.4019C10.6819 14.7112 10.9907 15.1465 11.144 15.6441L11.1657 15.7146H11.2396H20.8966C21.0679 15.7146 21.2321 15.7826 21.3532 15.9037C21.4743 16.0248 21.5423 16.189 21.5423 16.3603C21.5423 16.5315 21.4743 16.6958 21.3532 16.8169C21.2321 16.9379 21.0679 17.006 20.8966 17.006H11.2396H11.1657L11.144 17.0765C10.9907 17.5741 10.6819 18.0094 10.263 18.3187C9.84416 18.6279 9.33721 18.7947 8.81656 18.7947C8.2959 18.7947 7.78895 18.6279 7.37008 18.3187C6.9512 18.0094 6.64246 17.5741 6.48913 17.0765ZM8.70399 15.2237C8.44109 15.2492 8.19518 15.3652 8.00816 15.5517L8.07878 15.6225C7.98152 15.7192 7.90439 15.8341 7.85184 15.9608C7.79929 16.0874 7.77235 16.2232 7.7726 16.3603H7.6726C7.6726 16.3604 7.6726 16.3604 7.6726 16.3605C7.67264 16.6245 7.7642 16.8805 7.9317 17.0846C8.09924 17.2888 8.33238 17.4287 8.59143 17.4803C8.85048 17.5319 9.11941 17.4921 9.35243 17.3677C9.58544 17.2433 9.76813 17.042 9.86937 16.798C9.97062 16.554 9.98416 16.2825 9.9077 16.0297C9.83123 15.7769 9.66948 15.5584 9.45 15.4114C9.23052 15.2644 8.96689 15.1981 8.70399 15.2237Z" fill="#333333" stroke="#F5F5F5" stroke-width="0.2"/>
</svg>
