<svg width="16" height="17" viewBox="0 0 16 17" fill="none" xmlns="http://www.w3.org/2000/svg">
<path d="M11.125 6.54851L4.375 2.65601" stroke="#666666" stroke-width="1.2" stroke-linecap="round" stroke-linejoin="round"/>
<path d="M14.5 11.4985V5.49846C14.4997 5.23542 14.4303 4.97707 14.2987 4.74933C14.167 4.5216 13.9778 4.33248 13.75 4.20096L8.5 1.20096C8.27197 1.06931 8.0133 1 7.75 1C7.4867 1 7.22803 1.06931 7 1.20096L1.75 4.20096C1.5222 4.33248 1.33299 4.5216 1.20135 4.74933C1.06971 4.97707 1.00027 5.23542 1 5.49846V11.4985C1.00027 11.7615 1.06971 12.0199 1.20135 12.2476C1.33299 12.4753 1.5222 12.6644 1.75 12.796L7 15.796C7.22803 15.9276 7.4867 15.9969 7.75 15.9969C8.0133 15.9969 8.27197 15.9276 8.5 15.796L13.75 12.796C13.9778 12.6644 14.167 12.4753 14.2987 12.2476C14.4303 12.0199 14.4997 11.7615 14.5 11.4985Z" stroke="#666666" stroke-width="1.2" stroke-linecap="round" stroke-linejoin="round"/>
<path d="M1.20264 4.71851L7.75014 8.50601L14.2976 4.71851" stroke="#666666" stroke-width="1.2" stroke-linecap="round" stroke-linejoin="round"/>
<path d="M7.75 16.0585V8.49854" stroke="#666666" stroke-width="1.2" stroke-linecap="round" stroke-linejoin="round"/>
</svg>
