<svg width="13" height="12" viewBox="0 0 13 12" fill="none" xmlns="http://www.w3.org/2000/svg">
<path d="M12.25 0.85H5.58333C5.42271 0.85 5.29444 0.978269 5.29444 1.13889V3.90556H1.13889C0.978268 3.90556 0.85 4.03382 0.85 4.19444V10.8611C0.85 11.0217 0.978269 11.15 1.13889 11.15H7.80555C7.96617 11.15 8.09444 11.0217 8.09444 10.8611V8.09444H12.25C12.4106 8.09444 12.5389 7.96618 12.5389 7.80556V1.13889C12.5389 0.978268 12.4106 0.85 12.25 0.85ZM7.51667 10.5722H1.42778V4.48333H7.51667V10.5722ZM11.9611 7.51667H8.09444V4.19444C8.09444 4.03382 7.96618 3.90556 7.80555 3.90556H5.87222V1.42778H11.9611V7.51667Z" fill="#808080" stroke="#C4C4C4" stroke-width="0.3"/>
</svg>
