<svg width="8" height="8" viewBox="0 0 8 8" fill="none" xmlns="http://www.w3.org/2000/svg">
<path d="M4.6087 4L7.85507 0.739131C8.02899 0.565217 8.02899 0.289855 7.85507 0.130435C7.68116 -0.0434783 7.4058 -0.0434783 7.24638 0.130435L4 3.3913L0.73913 0.130435C0.565217 -0.0434783 0.289855 -0.0434783 0.130435 0.130435C-0.0434783 0.304348 -0.0434783 0.57971 0.130435 0.739131L3.37681 4L0.130435 7.26087C-0.0434783 7.43478 -0.0434783 7.71014 0.130435 7.86957C0.217391 7.95652 0.333333 8 0.434783 8C0.536232 8 0.652174 7.95652 0.73913 7.86957L4 4.6087L7.26087 7.86957C7.34783 7.95652 7.46377 8 7.56522 8C7.66667 8 7.78261 7.95652 7.86957 7.86957C8.04348 7.69565 8.04348 7.42029 7.86957 7.26087L4.6087 4Z" fill="#808080"/>
</svg>
