<svg width="16" height="16" viewBox="0 0 16 16" fill="none" xmlns="http://www.w3.org/2000/svg">
<path d="M9.06522 8L14.7464 2.29348C15.0507 1.98913 15.0507 1.50725 14.7464 1.22826C14.442 0.923913 13.9601 0.923913 13.6812 1.22826L8 6.93478L2.29348 1.22826C1.98913 0.923913 1.50725 0.923913 1.22826 1.22826C0.923913 1.53261 0.923913 2.01449 1.22826 2.29348L6.90942 8L1.22826 13.7065C0.923913 14.0109 0.923913 14.4928 1.22826 14.7717C1.38043 14.9239 1.58333 15 1.76087 15C1.93841 15 2.1413 14.9239 2.29348 14.7717L8 9.06522L13.7065 14.7717C13.8587 14.9239 14.0616 15 14.2391 15C14.4167 15 14.6196 14.9239 14.7717 14.7717C15.0761 14.4674 15.0761 13.9855 14.7717 13.7065L9.06522 8Z" fill="#808080" stroke="#808080" stroke-width="0.5"/>
</svg>
