<svg width="12" height="12" viewBox="0 0 12 12" fill="none" xmlns="http://www.w3.org/2000/svg">
<path d="M0.404596 2.37363H1.48352V10.2857C1.48352 10.7404 1.66823 11.1764 1.99703 11.4979C2.32583 11.8194 2.77177 12 3.23676 12H8.63137C9.09636 12 9.54231 11.8194 9.87111 11.4979C10.1999 11.1764 10.3846 10.7404 10.3846 10.2857V2.37363H11.1938C11.3011 2.37363 11.404 2.33195 11.4799 2.25776C11.5558 2.18357 11.5984 2.08294 11.5984 1.97802C11.5984 1.8731 11.5558 1.77248 11.4799 1.69829C11.404 1.6241 11.3011 1.58242 11.1938 1.58242H8.36164V1.45055C8.36164 1.06584 8.20534 0.696887 7.92713 0.424856C7.64892 0.152825 7.27158 0 6.87813 0H4.99001C4.59656 0 4.21922 0.152825 3.94101 0.424856C3.66279 0.696887 3.50649 1.06584 3.50649 1.45055V1.58242H0.404596C0.29729 1.58242 0.19438 1.6241 0.118503 1.69829C0.0426269 1.77248 0 1.8731 0 1.97802C0 2.08294 0.0426269 2.18357 0.118503 2.25776C0.19438 2.33195 0.29729 2.37363 0.404596 2.37363ZM9.57543 10.2857C9.57543 10.5305 9.47597 10.7653 9.29892 10.9384C9.12188 11.1115 8.88175 11.2088 8.63137 11.2088H3.23676C2.98639 11.2088 2.74626 11.1115 2.56922 10.9384C2.39217 10.7653 2.29271 10.5305 2.29271 10.2857V2.37363H9.57543V10.2857ZM4.31569 1.45055C4.31569 1.27568 4.38673 1.10798 4.51319 0.984325C4.63965 0.860675 4.81117 0.791209 4.99001 0.791209H6.87813C7.05697 0.791209 7.22848 0.860675 7.35495 0.984325C7.48141 1.10798 7.55245 1.27568 7.55245 1.45055V1.58242H4.31569V1.45055Z" fill="#808080"/>
<path d="M5.93585 4.61548C5.82854 4.61548 5.72563 4.65716 5.64975 4.73135C5.57388 4.80554 5.53125 4.90616 5.53125 5.01108V9.75834C5.53125 9.86326 5.57388 9.96388 5.64975 10.0381C5.72563 10.1123 5.82854 10.1539 5.93585 10.1539C6.04315 10.1539 6.14606 10.1123 6.22194 10.0381C6.29781 9.96388 6.34044 9.86326 6.34044 9.75834V5.01108C6.34044 4.90616 6.29781 4.80554 6.22194 4.73135C6.14606 4.65716 6.04315 4.61548 5.93585 4.61548Z" fill="#808080"/>
<path d="M7.41968 5.01108V9.75834C7.41968 9.86326 7.4623 9.96388 7.53818 10.0381C7.61406 10.1123 7.71697 10.1539 7.82427 10.1539C7.93158 10.1539 8.03449 10.1123 8.11037 10.0381C8.18624 9.96388 8.22887 9.86326 8.22887 9.75834V5.01108C8.22887 4.90616 8.18624 4.80554 8.11037 4.73135C8.03449 4.65716 7.93158 4.61548 7.82427 4.61548C7.71697 4.61548 7.61406 4.65716 7.53818 4.73135C7.4623 4.80554 7.41968 4.90616 7.41968 5.01108Z" fill="#808080"/>
<path d="M4.05084 4.61548C3.94353 4.61548 3.84062 4.65716 3.76474 4.73135C3.68887 4.80554 3.64624 4.90616 3.64624 5.01108V9.75834C3.64624 9.86326 3.68887 9.96388 3.76474 10.0381C3.84062 10.1123 3.94353 10.1539 4.05084 10.1539C4.15814 10.1539 4.26105 10.1123 4.33693 10.0381C4.4128 9.96388 4.45543 9.86326 4.45543 9.75834V5.01108C4.45543 4.90616 4.4128 4.80554 4.33693 4.73135C4.26105 4.65716 4.15814 4.61548 4.05084 4.61548Z" fill="#808080"/>
</svg>
