<svg width="54" height="54" viewBox="0 0 54 54" fill="none" xmlns="http://www.w3.org/2000/svg">
<circle cx="27" cy="27" r="27" fill="#ABFFCD"/>
<path d="M22.1864 27.9085C22.1151 27.967 22.0304 28.0134 21.9372 28.0451C21.8439 28.0767 21.744 28.093 21.6431 28.093C21.5422 28.093 21.4423 28.0767 21.3491 28.0451C21.2559 28.0134 21.1712 27.967 21.0998 27.9085C21.0285 27.85 20.9719 27.7806 20.9332 27.7042C20.8946 27.6278 20.8748 27.5458 20.8748 27.4631C20.8748 27.3804 20.8946 27.2985 20.9332 27.2221C20.9719 27.1457 21.0285 27.0762 21.0998 27.0177L26.9998 22.1875L32.8997 27.0177C32.9711 27.0762 33.0277 27.1457 33.0663 27.2221C33.1049 27.2985 33.1248 27.3804 33.1248 27.4631C33.1248 27.5458 33.1049 27.6278 33.0663 27.7042C33.0277 27.7806 32.9711 27.85 32.8997 27.9085C32.8284 27.967 32.7437 28.0134 32.6504 28.0451C32.5572 28.0767 32.4573 28.093 32.3564 28.093C32.2555 28.093 32.1556 28.0767 32.0623 28.0451C31.9691 28.0134 31.8844 27.967 31.8131 27.9085L27.765 24.5838L27.765 34.875L26.2345 34.875L26.2345 24.5838L22.1864 27.9085Z" fill="#333333"/>
<line y1="-0.5" x2="15.75" y2="-0.5" transform="matrix(1 -8.74228e-08 -8.74228e-08 -1 19.124 19.125)" stroke="#333333"/>
</svg>
