<svg width="11" height="12" viewBox="0 0 11 12" fill="none" xmlns="http://www.w3.org/2000/svg">
<path d="M8.86174 5.36548C8.91157 5.32463 8.97073 5.29223 9.03583 5.27012C9.10094 5.24801 9.17072 5.23663 9.2412 5.23663C9.31167 5.23663 9.38145 5.24801 9.44656 5.27012C9.51167 5.29223 9.57082 5.32463 9.62065 5.36548C9.67049 5.40633 9.71001 5.45483 9.73698 5.5082C9.76395 5.56157 9.77783 5.61877 9.77783 5.67654C9.77783 5.73431 9.76395 5.79152 9.73698 5.84489C9.71001 5.89826 9.67049 5.94676 9.62065 5.98761L5.50005 9.36111L1.37945 5.98761C1.32962 5.94676 1.29009 5.89826 1.26312 5.84489C1.23616 5.79152 1.22228 5.73431 1.22228 5.67654C1.22228 5.61877 1.23616 5.56157 1.26312 5.5082C1.29009 5.45483 1.32962 5.40633 1.37945 5.36548C1.42928 5.32463 1.48844 5.29223 1.55355 5.27012C1.61866 5.24801 1.68844 5.23663 1.75891 5.23663C1.82938 5.23663 1.89917 5.24801 1.96427 5.27012C2.02938 5.29223 2.08854 5.32463 2.13837 5.36548L4.9656 7.6875L4.96561 0.5L6.0345 0.5L6.0345 7.6875L8.86174 5.36548Z" fill="#F30E0F"/>
<line y1="-0.5" x2="11" y2="-0.5" transform="matrix(-1 0 0 1 11 11.5)" stroke="#F30E0F"/>
</svg>
