<svg width="9" height="12" viewBox="0 0 9 12" fill="none" xmlns="http://www.w3.org/2000/svg">
<path d="M7.25047 5.3078C7.29124 5.26324 7.33964 5.22789 7.39291 5.20377C7.44618 5.17965 7.50328 5.16724 7.56093 5.16724C7.61859 5.16724 7.67569 5.17965 7.72896 5.20377C7.78223 5.22789 7.83063 5.26324 7.8714 5.3078C7.91217 5.35236 7.94451 5.40527 7.96658 5.46349C7.98864 5.52171 8 5.58412 8 5.64714C8 5.71016 7.98864 5.77257 7.96658 5.83079C7.94451 5.88901 7.91217 5.94192 7.8714 5.98648L4.5 9.66667L1.1286 5.98648C1.08783 5.94192 1.05549 5.88901 1.03342 5.83079C1.01136 5.77256 1 5.71016 1 5.64714C1 5.58412 1.01136 5.52171 1.03342 5.46349C1.05549 5.40526 1.08783 5.35236 1.1286 5.3078C1.16937 5.26323 1.21777 5.22788 1.27104 5.20377C1.32431 5.17965 1.38141 5.16724 1.43907 5.16724C1.49672 5.16724 1.55382 5.17965 1.60709 5.20377C1.66036 5.22788 1.70876 5.26324 1.74953 5.3078L4.06272 7.84091L4.06272 -3.44208e-07L4.93728 -2.67752e-07L4.93728 7.84091L7.25047 5.3078Z" fill="#999999"/>
<line y1="-0.5" x2="9" y2="-0.5" transform="matrix(-1 0 0 1 9 12)" stroke="#999999"/>
</svg>
