<svg width="52" height="47" viewBox="0 0 52 47" fill="none" xmlns="http://www.w3.org/2000/svg">
<mask id="path-1-inside-1" fill="white">
<path d="M1.59519 23.7325C1.59444 19.4498 3.13286 15.3094 5.92997 12.0662C6.06842 11.906 6.13755 11.6974 6.12217 11.4862C6.10679 11.275 6.00814 11.0786 5.84794 10.9402C5.68774 10.8017 5.47911 10.7326 5.26793 10.748C5.05676 10.7633 4.86035 10.862 4.7219 11.0222C1.66382 14.5694 -0.0126474 19.1004 7.18464e-05 23.7838C0.0127911 28.4672 1.71385 32.989 4.79115 36.5195C4.93044 36.6793 5.1275 36.7772 5.33897 36.7917C5.55044 36.8062 5.75901 36.7361 5.91879 36.5968C6.07856 36.4575 6.17646 36.2604 6.19095 36.049C6.20543 35.8375 6.13532 35.6289 5.99602 35.4691C3.15841 32.2176 1.59498 28.0481 1.59519 23.7325Z"/>
</mask>
<path d="M1.59519 23.7325C1.59444 19.4498 3.13286 15.3094 5.92997 12.0662C6.06842 11.906 6.13755 11.6974 6.12217 11.4862C6.10679 11.275 6.00814 11.0786 5.84794 10.9402C5.68774 10.8017 5.47911 10.7326 5.26793 10.748C5.05676 10.7633 4.86035 10.862 4.7219 11.0222C1.66382 14.5694 -0.0126474 19.1004 7.18464e-05 23.7838C0.0127911 28.4672 1.71385 32.989 4.79115 36.5195C4.93044 36.6793 5.1275 36.7772 5.33897 36.7917C5.55044 36.8062 5.75901 36.7361 5.91879 36.5968C6.07856 36.4575 6.17646 36.2604 6.19095 36.049C6.20543 35.8375 6.13532 35.6289 5.99602 35.4691C3.15841 32.2176 1.59498 28.0481 1.59519 23.7325Z" fill="#808080" stroke="white" stroke-width="0.2" mask="url(#path-1-inside-1)"/>
<mask id="path-2-inside-2" fill="white">
<path d="M50.4905 2.56422V0.798989C50.4905 0.587084 50.4063 0.383858 50.2565 0.234019C50.1066 0.084179 49.9034 0 49.6915 0C49.4796 0 49.2764 0.084179 49.1265 0.234019C48.9767 0.383858 48.8925 0.587084 48.8925 0.798989V2.5312H47.644V0.798989C47.644 0.587084 47.5598 0.383858 47.41 0.234019C47.2601 0.084179 47.0569 0 46.845 0C46.6331 0 46.4299 0.084179 46.28 0.234019C46.1302 0.383858 46.046 0.587084 46.046 0.798989V2.54718C45.8505 2.56541 45.6688 2.65563 45.5361 2.80033C45.4034 2.94502 45.3292 3.13387 45.328 3.33019V5.68028C45.3311 6.30716 45.5376 6.91608 45.9164 7.41555C46.2953 7.91503 46.826 8.27806 47.4288 8.45011V39.4328C47.4352 39.7212 47.3839 40.0079 47.278 40.2762C47.172 40.5445 47.0135 40.789 46.8119 40.9952C46.6102 41.2014 46.3693 41.3653 46.1034 41.4771C45.8375 41.589 45.552 41.6466 45.2635 41.6466C44.9751 41.6466 44.6895 41.589 44.4236 41.4771C44.1577 41.3653 43.9169 41.2014 43.7152 40.9952C43.5135 40.789 43.355 40.5445 43.2491 40.2762C43.1431 40.0079 43.0919 39.7212 43.0983 39.4328V26.6948C43.0971 25.6969 42.7002 24.7402 41.9946 24.0346C41.289 23.329 40.3324 22.9321 39.3345 22.931H38.8839C38.711 18.5449 37.0589 14.3464 34.1964 11.0186C34.1288 10.936 34.0453 10.8677 33.9509 10.8179C33.8565 10.7681 33.753 10.7377 33.6467 10.7286C33.5403 10.7194 33.4332 10.7317 33.3316 10.7646C33.23 10.7975 33.1361 10.8505 33.0554 10.9203C32.9746 10.9902 32.9087 11.0755 32.8615 11.1713C32.8143 11.267 32.7867 11.3713 32.7805 11.4779C32.7742 11.5844 32.7894 11.6912 32.8251 11.7918C32.8608 11.8924 32.9163 11.9849 32.9884 12.0637C35.7953 15.3193 37.3343 19.4779 37.3232 23.7765C37.312 28.0751 35.7514 32.2256 32.9277 35.4666C32.8263 35.5821 32.7605 35.7244 32.738 35.8764C32.7156 36.0285 32.7376 36.1837 32.8012 36.3236C32.8649 36.4634 32.9676 36.5819 33.097 36.6648C33.2264 36.7477 33.377 36.7914 33.5306 36.7908C33.6447 36.7912 33.7576 36.7669 33.8615 36.7197C33.9654 36.6724 34.0578 36.6033 34.1325 36.517C37.0338 33.179 38.7098 28.9514 38.8839 24.5322H39.3345C39.9082 24.5327 40.4582 24.7607 40.8642 25.166C41.2701 25.5714 41.4989 26.1211 41.5003 26.6948V39.4328C41.4919 39.9323 41.583 40.4285 41.7683 40.8925C41.9537 41.3564 42.2296 41.7788 42.5798 42.135C42.9301 42.4912 43.3478 42.7742 43.8086 42.9673C44.2693 43.1604 44.7639 43.2599 45.2635 43.2599C45.7631 43.2599 46.2577 43.1604 46.7185 42.9673C47.1792 42.7742 47.5969 42.4912 47.9472 42.135C48.2975 41.7788 48.5733 41.3564 48.7587 40.8925C48.944 40.4285 49.0352 39.9323 49.0268 39.4328V8.45544C49.6308 8.28352 50.1626 7.91985 50.542 7.41927C50.9213 6.91869 51.1276 6.30835 51.1297 5.68028V3.33019C51.1278 3.14839 51.0632 2.97283 50.9467 2.83324C50.8302 2.69365 50.669 2.59861 50.4905 2.56422ZM49.5317 5.68028C49.5317 5.85138 49.498 6.0208 49.4325 6.17888C49.3671 6.33695 49.2711 6.48058 49.1501 6.60156C49.0291 6.72255 48.8855 6.81852 48.7274 6.88399C48.5694 6.94947 48.3999 6.98317 48.2288 6.98317C48.0577 6.98317 47.8883 6.94947 47.7302 6.88399C47.5722 6.81852 47.4285 6.72255 47.3076 6.60156C47.1866 6.48058 47.0906 6.33695 47.0251 6.17888C46.9596 6.0208 46.926 5.85138 46.926 5.68028V4.12918H49.5317V5.68028Z"/>
</mask>
<path d="M50.4905 2.56422V0.798989C50.4905 0.587084 50.4063 0.383858 50.2565 0.234019C50.1066 0.084179 49.9034 0 49.6915 0C49.4796 0 49.2764 0.084179 49.1265 0.234019C48.9767 0.383858 48.8925 0.587084 48.8925 0.798989V2.5312H47.644V0.798989C47.644 0.587084 47.5598 0.383858 47.41 0.234019C47.2601 0.084179 47.0569 0 46.845 0C46.6331 0 46.4299 0.084179 46.28 0.234019C46.1302 0.383858 46.046 0.587084 46.046 0.798989V2.54718C45.8505 2.56541 45.6688 2.65563 45.5361 2.80033C45.4034 2.94502 45.3292 3.13387 45.328 3.33019V5.68028C45.3311 6.30716 45.5376 6.91608 45.9164 7.41555C46.2953 7.91503 46.826 8.27806 47.4288 8.45011V39.4328C47.4352 39.7212 47.3839 40.0079 47.278 40.2762C47.172 40.5445 47.0135 40.789 46.8119 40.9952C46.6102 41.2014 46.3693 41.3653 46.1034 41.4771C45.8375 41.589 45.552 41.6466 45.2635 41.6466C44.9751 41.6466 44.6895 41.589 44.4236 41.4771C44.1577 41.3653 43.9169 41.2014 43.7152 40.9952C43.5135 40.789 43.355 40.5445 43.2491 40.2762C43.1431 40.0079 43.0919 39.7212 43.0983 39.4328V26.6948C43.0971 25.6969 42.7002 24.7402 41.9946 24.0346C41.289 23.329 40.3324 22.9321 39.3345 22.931H38.8839C38.711 18.5449 37.0589 14.3464 34.1964 11.0186C34.1288 10.936 34.0453 10.8677 33.9509 10.8179C33.8565 10.7681 33.753 10.7377 33.6467 10.7286C33.5403 10.7194 33.4332 10.7317 33.3316 10.7646C33.23 10.7975 33.1361 10.8505 33.0554 10.9203C32.9746 10.9902 32.9087 11.0755 32.8615 11.1713C32.8143 11.267 32.7867 11.3713 32.7805 11.4779C32.7742 11.5844 32.7894 11.6912 32.8251 11.7918C32.8608 11.8924 32.9163 11.9849 32.9884 12.0637C35.7953 15.3193 37.3343 19.4779 37.3232 23.7765C37.312 28.0751 35.7514 32.2256 32.9277 35.4666C32.8263 35.5821 32.7605 35.7244 32.738 35.8764C32.7156 36.0285 32.7376 36.1837 32.8012 36.3236C32.8649 36.4634 32.9676 36.5819 33.097 36.6648C33.2264 36.7477 33.377 36.7914 33.5306 36.7908C33.6447 36.7912 33.7576 36.7669 33.8615 36.7197C33.9654 36.6724 34.0578 36.6033 34.1325 36.517C37.0338 33.179 38.7098 28.9514 38.8839 24.5322H39.3345C39.9082 24.5327 40.4582 24.7607 40.8642 25.166C41.2701 25.5714 41.4989 26.1211 41.5003 26.6948V39.4328C41.4919 39.9323 41.583 40.4285 41.7683 40.8925C41.9537 41.3564 42.2296 41.7788 42.5798 42.135C42.9301 42.4912 43.3478 42.7742 43.8086 42.9673C44.2693 43.1604 44.7639 43.2599 45.2635 43.2599C45.7631 43.2599 46.2577 43.1604 46.7185 42.9673C47.1792 42.7742 47.5969 42.4912 47.9472 42.135C48.2975 41.7788 48.5733 41.3564 48.7587 40.8925C48.944 40.4285 49.0352 39.9323 49.0268 39.4328V8.45544C49.6308 8.28352 50.1626 7.91985 50.542 7.41927C50.9213 6.91869 51.1276 6.30835 51.1297 5.68028V3.33019C51.1278 3.14839 51.0632 2.97283 50.9467 2.83324C50.8302 2.69365 50.669 2.59861 50.4905 2.56422ZM49.5317 5.68028C49.5317 5.85138 49.498 6.0208 49.4325 6.17888C49.3671 6.33695 49.2711 6.48058 49.1501 6.60156C49.0291 6.72255 48.8855 6.81852 48.7274 6.88399C48.5694 6.94947 48.3999 6.98317 48.2288 6.98317C48.0577 6.98317 47.8883 6.94947 47.7302 6.88399C47.5722 6.81852 47.4285 6.72255 47.3076 6.60156C47.1866 6.48058 47.0906 6.33695 47.0251 6.17888C46.9596 6.0208 46.926 5.85138 46.926 5.68028V4.12918H49.5317V5.68028Z" fill="#808080" stroke="white" stroke-width="0.2" mask="url(#path-2-inside-2)"/>
<mask id="path-3-inside-3" fill="white">
<path d="M13.8576 25.9936C14.0695 25.9936 14.2727 25.9094 14.4226 25.7596C14.5724 25.6098 14.6566 25.4065 14.6566 25.1946V21.7558C14.6566 21.5439 14.5724 21.3406 14.4226 21.1908C14.2727 21.041 14.0695 20.9568 13.8576 20.9568C13.6457 20.9568 13.4425 21.041 13.2926 21.1908C13.1428 21.3406 13.0586 21.5439 13.0586 21.7558V25.1946C13.0586 25.4065 13.1428 25.6098 13.2926 25.7596C13.4425 25.9094 13.6457 25.9936 13.8576 25.9936Z"/>
</mask>
<path d="M13.8576 25.9936C14.0695 25.9936 14.2727 25.9094 14.4226 25.7596C14.5724 25.6098 14.6566 25.4065 14.6566 25.1946V21.7558C14.6566 21.5439 14.5724 21.3406 14.4226 21.1908C14.2727 21.041 14.0695 20.9568 13.8576 20.9568C13.6457 20.9568 13.4425 21.041 13.2926 21.1908C13.1428 21.3406 13.0586 21.5439 13.0586 21.7558V25.1946C13.0586 25.4065 13.1428 25.6098 13.2926 25.7596C13.4425 25.9094 13.6457 25.9936 13.8576 25.9936Z" fill="#808080" stroke="white" stroke-width="0.2" mask="url(#path-3-inside-3)"/>
<mask id="path-4-inside-4" fill="white">
<path d="M16.321 25.9936C16.5329 25.9936 16.7361 25.9094 16.8859 25.7596C17.0358 25.6098 17.12 25.4065 17.12 25.1946V21.7558C17.12 21.5439 17.0358 21.3406 16.8859 21.1908C16.7361 21.041 16.5329 20.9568 16.321 20.9568C16.1091 20.9568 15.9058 21.041 15.756 21.1908C15.6062 21.3406 15.522 21.5439 15.522 21.7558V25.1946C15.522 25.4065 15.6062 25.6098 15.756 25.7596C15.9058 25.9094 16.1091 25.9936 16.321 25.9936Z"/>
</mask>
<path d="M16.321 25.9936C16.5329 25.9936 16.7361 25.9094 16.8859 25.7596C17.0358 25.6098 17.12 25.4065 17.12 25.1946V21.7558C17.12 21.5439 17.0358 21.3406 16.8859 21.1908C16.7361 21.041 16.5329 20.9568 16.321 20.9568C16.1091 20.9568 15.9058 21.041 15.756 21.1908C15.6062 21.3406 15.522 21.5439 15.522 21.7558V25.1946C15.522 25.4065 15.6062 25.6098 15.756 25.7596C15.9058 25.9094 16.1091 25.9936 16.321 25.9936Z" fill="#808080" stroke="white" stroke-width="0.2" mask="url(#path-4-inside-4)"/>
<mask id="path-5-inside-5" fill="white">
<path d="M18.7843 25.9936C18.9962 25.9936 19.1995 25.9094 19.3493 25.7596C19.4992 25.6098 19.5833 25.4065 19.5833 25.1946V21.7558C19.5833 21.5439 19.4992 21.3406 19.3493 21.1908C19.1995 21.041 18.9962 20.9568 18.7843 20.9568C18.5724 20.9568 18.3692 21.041 18.2194 21.1908C18.0695 21.3406 17.9854 21.5439 17.9854 21.7558V25.1946C17.9854 25.4065 18.0695 25.6098 18.2194 25.7596C18.3692 25.9094 18.5724 25.9936 18.7843 25.9936Z"/>
</mask>
<path d="M18.7843 25.9936C18.9962 25.9936 19.1995 25.9094 19.3493 25.7596C19.4992 25.6098 19.5833 25.4065 19.5833 25.1946V21.7558C19.5833 21.5439 19.4992 21.3406 19.3493 21.1908C19.1995 21.041 18.9962 20.9568 18.7843 20.9568C18.5724 20.9568 18.3692 21.041 18.2194 21.1908C18.0695 21.3406 17.9854 21.5439 17.9854 21.7558V25.1946C17.9854 25.4065 18.0695 25.6098 18.2194 25.7596C18.3692 25.9094 18.5724 25.9936 18.7843 25.9936Z" fill="#808080" stroke="white" stroke-width="0.2" mask="url(#path-5-inside-5)"/>
<mask id="path-6-inside-6" fill="white">
<path d="M21.2438 25.9936C21.4557 25.9936 21.6589 25.9094 21.8088 25.7596C21.9586 25.6098 22.0428 25.4065 22.0428 25.1946V21.7558C22.0428 21.5439 21.9586 21.3406 21.8088 21.1908C21.6589 21.041 21.4557 20.9568 21.2438 20.9568C21.0319 20.9568 20.8287 21.041 20.6788 21.1908C20.529 21.3406 20.4448 21.5439 20.4448 21.7558V25.1946C20.4448 25.4065 20.529 25.6098 20.6788 25.7596C20.8287 25.9094 21.0319 25.9936 21.2438 25.9936Z"/>
</mask>
<path d="M21.2438 25.9936C21.4557 25.9936 21.6589 25.9094 21.8088 25.7596C21.9586 25.6098 22.0428 25.4065 22.0428 25.1946V21.7558C22.0428 21.5439 21.9586 21.3406 21.8088 21.1908C21.6589 21.041 21.4557 20.9568 21.2438 20.9568C21.0319 20.9568 20.8287 21.041 20.6788 21.1908C20.529 21.3406 20.4448 21.5439 20.4448 21.7558V25.1946C20.4448 25.4065 20.529 25.6098 20.6788 25.7596C20.8287 25.9094 21.0319 25.9936 21.2438 25.9936Z" fill="#808080" stroke="white" stroke-width="0.2" mask="url(#path-6-inside-6)"/>
<mask id="path-7-inside-7" fill="white">
<path d="M23.7077 25.9936C23.9196 25.9936 24.1228 25.9094 24.2727 25.7596C24.4225 25.6098 24.5067 25.4065 24.5067 25.1946V21.7558C24.5067 21.5439 24.4225 21.3406 24.2727 21.1908C24.1228 21.041 23.9196 20.9568 23.7077 20.9568C23.4958 20.9568 23.2925 21.041 23.1427 21.1908C22.9929 21.3406 22.9087 21.5439 22.9087 21.7558V25.1946C22.9087 25.4065 22.9929 25.6098 23.1427 25.7596C23.2925 25.9094 23.4958 25.9936 23.7077 25.9936Z"/>
</mask>
<path d="M23.7077 25.9936C23.9196 25.9936 24.1228 25.9094 24.2727 25.7596C24.4225 25.6098 24.5067 25.4065 24.5067 25.1946V21.7558C24.5067 21.5439 24.4225 21.3406 24.2727 21.1908C24.1228 21.041 23.9196 20.9568 23.7077 20.9568C23.4958 20.9568 23.2925 21.041 23.1427 21.1908C22.9929 21.3406 22.9087 21.5439 22.9087 21.7558V25.1946C22.9087 25.4065 22.9929 25.6098 23.1427 25.7596C23.2925 25.9094 23.4958 25.9936 23.7077 25.9936Z" fill="#808080" stroke="white" stroke-width="0.2" mask="url(#path-7-inside-7)"/>
<mask id="path-8-inside-8" fill="white">
<path d="M26.1711 24.663C26.383 24.663 26.5862 24.5788 26.736 24.429C26.8859 24.2792 26.97 24.0759 26.97 23.864V23.0863C26.97 22.8744 26.8859 22.6712 26.736 22.5214C26.5862 22.3715 26.383 22.2874 26.1711 22.2874C25.9592 22.2874 25.7559 22.3715 25.6061 22.5214C25.4562 22.6712 25.3721 22.8744 25.3721 23.0863V23.864C25.3721 24.0759 25.4562 24.2792 25.6061 24.429C25.7559 24.5788 25.9592 24.663 26.1711 24.663Z"/>
</mask>
<path d="M26.1711 24.663C26.383 24.663 26.5862 24.5788 26.736 24.429C26.8859 24.2792 26.97 24.0759 26.97 23.864V23.0863C26.97 22.8744 26.8859 22.6712 26.736 22.5214C26.5862 22.3715 26.383 22.2874 26.1711 22.2874C25.9592 22.2874 25.7559 22.3715 25.6061 22.5214C25.4562 22.6712 25.3721 22.8744 25.3721 23.0863V23.864C25.3721 24.0759 25.4562 24.2792 25.6061 24.429C25.7559 24.5788 25.9592 24.663 26.1711 24.663Z" fill="#808080" stroke="white" stroke-width="0.2" mask="url(#path-8-inside-8)"/>
<mask id="path-9-inside-9" fill="white">
<path d="M28.8929 0.0791016H10.0272C9.29255 0.0791016 8.58803 0.370922 8.06859 0.890366C7.54914 1.40981 7.25732 2.11433 7.25732 2.84893V44.2302C7.25732 44.9648 7.54914 45.6693 8.06859 46.1888C8.58803 46.7082 9.29255 47 10.0272 47H28.8929C29.2566 47 29.6168 46.9284 29.9529 46.7892C30.2889 46.65 30.5943 46.446 30.8515 46.1888C31.1087 45.9316 31.3127 45.6262 31.4519 45.2902C31.5911 44.9541 31.6627 44.5939 31.6627 44.2302V2.84467C31.6616 2.1108 31.3693 1.40738 30.85 0.888859C30.3306 0.370336 29.6268 0.0791007 28.8929 0.0791016ZM28.8929 45.3989H10.0272C9.71636 45.3989 9.4183 45.2754 9.19853 45.0556C8.97877 44.8359 8.8553 44.5378 8.8553 44.227V2.84467C8.8553 2.53388 8.97877 2.23581 9.19853 2.01605C9.4183 1.79628 9.71636 1.67282 10.0272 1.67282H28.8929C29.2037 1.67282 29.5018 1.79628 29.7215 2.01605C29.9413 2.23581 30.0648 2.53388 30.0648 2.84467V5.31089H10.7303C10.5184 5.31089 10.3151 5.39506 10.1653 5.5449C10.0155 5.69474 9.93128 5.89797 9.93128 6.10988C9.93128 6.32178 10.0155 6.52501 10.1653 6.67485C10.3151 6.82469 10.5184 6.90886 10.7303 6.90886H30.0605V40.166H10.7303C10.5184 40.166 10.3151 40.2502 10.1653 40.4C10.0155 40.5499 9.93128 40.7531 9.93128 40.965C9.93128 41.1769 10.0155 41.3801 10.1653 41.53C10.3151 41.6798 10.5184 41.764 10.7303 41.764H30.0605V44.2302C30.0596 44.5397 29.9364 44.8363 29.7176 45.0553C29.4989 45.2742 29.2024 45.3977 28.8929 45.3989Z"/>
</mask>
<path d="M28.8929 0.0791016H10.0272C9.29255 0.0791016 8.58803 0.370922 8.06859 0.890366C7.54914 1.40981 7.25732 2.11433 7.25732 2.84893V44.2302C7.25732 44.9648 7.54914 45.6693 8.06859 46.1888C8.58803 46.7082 9.29255 47 10.0272 47H28.8929C29.2566 47 29.6168 46.9284 29.9529 46.7892C30.2889 46.65 30.5943 46.446 30.8515 46.1888C31.1087 45.9316 31.3127 45.6262 31.4519 45.2902C31.5911 44.9541 31.6627 44.5939 31.6627 44.2302V2.84467C31.6616 2.1108 31.3693 1.40738 30.85 0.888859C30.3306 0.370336 29.6268 0.0791007 28.8929 0.0791016ZM28.8929 45.3989H10.0272C9.71636 45.3989 9.4183 45.2754 9.19853 45.0556C8.97877 44.8359 8.8553 44.5378 8.8553 44.227V2.84467C8.8553 2.53388 8.97877 2.23581 9.19853 2.01605C9.4183 1.79628 9.71636 1.67282 10.0272 1.67282H28.8929C29.2037 1.67282 29.5018 1.79628 29.7215 2.01605C29.9413 2.23581 30.0648 2.53388 30.0648 2.84467V5.31089H10.7303C10.5184 5.31089 10.3151 5.39506 10.1653 5.5449C10.0155 5.69474 9.93128 5.89797 9.93128 6.10988C9.93128 6.32178 10.0155 6.52501 10.1653 6.67485C10.3151 6.82469 10.5184 6.90886 10.7303 6.90886H30.0605V40.166H10.7303C10.5184 40.166 10.3151 40.2502 10.1653 40.4C10.0155 40.5499 9.93128 40.7531 9.93128 40.965C9.93128 41.1769 10.0155 41.3801 10.1653 41.53C10.3151 41.6798 10.5184 41.764 10.7303 41.764H30.0605V44.2302C30.0596 44.5397 29.9364 44.8363 29.7176 45.0553C29.4989 45.2742 29.2024 45.3977 28.8929 45.3989Z" fill="#808080" stroke="white" stroke-width="0.2" mask="url(#path-9-inside-9)"/>
</svg>
