<svg width="16" height="17" viewBox="0 0 16 17" fill="none" xmlns="http://www.w3.org/2000/svg">
<path d="M15.0402 11.3666L9.9269 2.88663C9.72013 2.56317 9.43526 2.29697 9.09855 2.11258C8.76184 1.92819 8.38412 1.83154 8.00023 1.83154C7.61633 1.83154 7.23862 1.92819 6.90191 2.11258C6.5652 2.29697 6.28033 2.56317 6.07356 2.88663L0.96023 11.3666C0.779599 11.6677 0.681422 12.0111 0.675571 12.3622C0.669719 12.7132 0.756399 13.0597 0.926896 13.3666C1.12402 13.7121 1.40934 13.9991 1.7537 14.1982C2.09806 14.3974 2.48911 14.5015 2.8869 14.5H13.1136C13.5087 14.5042 13.898 14.4041 14.2421 14.2098C14.5863 14.0155 14.8731 13.7338 15.0736 13.3933C15.2491 13.0831 15.3385 12.7317 15.3327 12.3754C15.3268 12.0191 15.2258 11.6708 15.0402 11.3666ZM13.9069 12.7333C13.8268 12.871 13.7105 12.9842 13.5707 13.0606C13.4308 13.137 13.2727 13.1736 13.1136 13.1666H2.8869C2.72771 13.1736 2.56964 13.137 2.4298 13.0606C2.28996 12.9842 2.17369 12.871 2.09356 12.7333C2.03505 12.6319 2.00425 12.517 2.00425 12.4C2.00425 12.2829 2.03505 12.168 2.09356 12.0666L7.21356 3.57996C7.30556 3.45843 7.42447 3.35987 7.56096 3.29201C7.69745 3.22415 7.8478 3.18883 8.00023 3.18883C8.15266 3.18883 8.30301 3.22415 8.4395 3.29201C8.57598 3.35987 8.69489 3.45843 8.7869 3.57996L13.9002 12.06C13.961 12.1615 13.9936 12.2774 13.9948 12.3957C13.996 12.5141 13.9656 12.6306 13.9069 12.7333Z" fill="#FF0002"/>
<path d="M8.00016 11.8333C8.36835 11.8333 8.66683 11.5349 8.66683 11.1667C8.66683 10.7985 8.36835 10.5 8.00016 10.5C7.63197 10.5 7.3335 10.7985 7.3335 11.1667C7.3335 11.5349 7.63197 11.8333 8.00016 11.8333Z" fill="#FF0002"/>
<path d="M8.00016 5.83331C7.82335 5.83331 7.65378 5.90355 7.52876 6.02858C7.40373 6.1536 7.3335 6.32317 7.3335 6.49998V9.16665C7.3335 9.34346 7.40373 9.51303 7.52876 9.63805C7.65378 9.76307 7.82335 9.83331 8.00016 9.83331C8.17697 9.83331 8.34654 9.76307 8.47157 9.63805C8.59659 9.51303 8.66683 9.34346 8.66683 9.16665V6.49998C8.66683 6.32317 8.59659 6.1536 8.47157 6.02858C8.34654 5.90355 8.17697 5.83331 8.00016 5.83331Z" fill="#FF0002"/>
</svg>
