<svg width="22" height="18" viewBox="0 0 22 18" fill="none" xmlns="http://www.w3.org/2000/svg">
<path d="M21.4742 9.58963L21.4742 9.58969C20.3158 12.031 18.8649 13.8591 17.1226 15.077C15.3811 16.2943 13.3428 16.906 11.0016 16.906C8.66168 16.906 6.6233 16.2943 4.88151 15.0773C3.1389 13.8597 1.68739 12.0323 0.529049 9.59224C0.442014 9.40791 0.396875 9.2066 0.396875 9.00276C0.396875 8.79894 0.442003 8.59765 0.529019 8.41335C1.68738 5.97201 3.13829 4.14393 4.88061 2.92607C6.62208 1.70881 8.66045 1.09707 11.0016 1.09707C13.3415 1.09707 15.3799 1.7088 17.1217 2.92578C18.8643 4.1433 20.3157 5.97067 21.4741 8.41063C21.6506 8.78914 21.6502 9.21937 21.4742 9.58963ZM2.00601 8.95799L1.98494 9.00153L2.00601 9.04508C3.03388 11.1699 4.27998 12.7444 5.77337 13.7874C7.26778 14.8311 9.0034 15.3381 11.0016 15.3381C13.001 15.3381 14.7373 14.8311 16.2317 13.7874C17.7251 12.7443 18.9706 11.1699 19.9972 9.04504L20.0183 9.00151L19.9972 8.95799C18.9693 6.83315 17.7232 5.25871 16.2298 4.2157C14.7354 3.17197 12.9998 2.66493 11.0016 2.66493C9.0034 2.66493 7.26778 3.17197 5.77337 4.2157C4.27998 5.25871 3.03388 6.83315 2.00601 8.95799ZM6.68196 9.00153C6.68196 6.67016 8.57201 4.78011 10.9034 4.78011C13.2348 4.78011 15.1248 6.67016 15.1248 9.00153C15.1248 11.3329 13.2348 13.223 10.9034 13.223C8.57201 13.223 6.68196 11.3329 6.68196 9.00153ZM8.05339 9.00153C8.05339 10.5766 9.3283 11.8515 10.9034 11.8515C12.4785 11.8515 13.7534 10.5766 13.7534 9.00153C13.7534 7.42644 12.4785 6.15153 10.9034 6.15153C9.3283 6.15153 8.05339 7.42644 8.05339 9.00153Z" fill="white" stroke="#343434" stroke-width="0.2"/>
</svg>
