<svg width="47" height="47" viewBox="0 0 47 47" fill="none" xmlns="http://www.w3.org/2000/svg">
<path d="M44.5295 12.0295H44.3269V4.25277C44.3269 1.90782 42.4191 0 40.0741 0H6.926C4.58104 0 2.67322 1.90782 2.67322 4.25277V12.0295H2.47063C1.10836 12.0295 0 13.138 0 14.5002V16.2526C0 17.0147 0.346993 17.697 0.891074 18.1506V34.1038C0.891074 34.9067 1.27625 35.621 1.87128 36.0726V38.5592C1.87128 39.1831 2.2359 39.7221 2.76236 39.9785V45.8659C2.76236 46.4913 3.2711 47 3.89642 47H6.56964C7.19496 47 7.7037 46.4913 7.7037 45.8659V44.1485H39.2966V45.8659C39.2966 46.4913 39.8053 47 40.4306 47H43.1039C43.7292 47 44.2379 46.4913 44.2379 45.8659V40.8696C44.7644 40.6131 45.129 40.0741 45.129 39.4502V36.0726C45.724 35.621 46.1092 34.9067 46.1092 34.1038V18.1508C46.6533 17.6972 47.0003 17.0148 47.0003 16.2528V14.5004C47.0001 13.138 45.8917 12.0295 44.5295 12.0295ZM4.05018 4.25277C4.05018 2.66707 5.34029 1.37696 6.926 1.37696H40.0741C41.6598 1.37696 42.9499 2.66707 42.9499 4.25277V12.0295H39.7824V4.29518C39.7824 3.88467 39.5739 3.51078 39.2247 3.29496C38.8755 3.07915 38.4477 3.05987 38.0808 3.24356L35.5049 4.53147C35.1962 4.68587 34.8506 4.76739 34.5052 4.76739H28.0888C27.7436 4.76739 27.3978 4.68578 27.089 4.53147L24.5132 3.24356C24.1907 3.08227 23.8217 3.07777 23.5 3.2252C23.1783 3.07777 22.8093 3.08218 22.4869 3.24356L19.911 4.53147C19.6023 4.68587 19.2566 4.76739 18.9113 4.76739H12.4949C12.1496 4.76739 11.8039 4.68578 11.4951 4.53147L8.91928 3.24356C8.552 3.05996 8.12441 3.07915 7.7753 3.29496C7.42611 3.51078 7.21764 3.88467 7.21764 4.29518V12.0295H4.05018V4.25277ZM42.8608 45.6231H40.6734V43.4601C40.6734 43.0799 40.3652 42.7716 39.985 42.7716H7.01513C6.63491 42.7716 6.32665 43.0799 6.32665 43.4601V45.6231H4.13931V40.1388H18.296C19.5828 40.1388 20.8788 40.246 22.148 40.4576L23.5564 40.6923C24.9002 40.9163 26.2724 41.0299 27.6348 41.0299H42.8608V45.6231ZM43.7519 39.4503C43.7519 39.562 43.661 39.6529 43.5493 39.6529H27.6348C26.348 39.6529 25.052 39.5457 23.7828 39.3341L22.3743 39.0994C21.0305 38.8754 19.6583 38.7619 18.296 38.7619H3.45083C3.33912 38.7619 3.24824 38.671 3.24824 38.5593V36.5717C3.28588 36.5734 3.3237 36.5745 3.3617 36.5745H9.68826C10.0685 36.5745 10.3767 36.2663 10.3767 35.886C10.3767 35.5058 10.0685 35.1976 9.68826 35.1976H3.3617C2.75869 35.1976 2.26803 34.7069 2.26803 34.1039V18.7142C2.33495 18.7196 2.40233 18.7232 2.47063 18.7232H38.7422C37.1095 21.1934 34.0507 23.4202 29.9848 25.0722C25.1596 27.0326 19.3428 28.0689 13.1635 28.0689C12.7833 28.0689 12.475 28.3771 12.475 28.7574C12.475 29.1376 12.7833 29.4458 13.1635 29.4458C19.5188 29.4458 25.5147 28.3746 30.5031 26.3479C35.2206 24.4311 38.6956 21.7352 40.3493 18.7232H41.3878C40.6139 23.3273 38.9375 27.4711 36.6374 30.4427C34.2298 33.5533 31.3509 35.1975 28.3119 35.1975H12.1834C11.8032 35.1975 11.4949 35.5057 11.4949 35.8859C11.4949 36.2662 11.8032 36.5744 12.1834 36.5744H43.6384C43.6765 36.5744 43.7142 36.5732 43.7519 36.5716V39.4503ZM44.7321 34.1039C44.7321 34.7069 44.2414 35.1976 43.6384 35.1976H33.3505C37.9305 32.6062 41.5233 26.552 42.7835 18.7233H44.5295C44.5978 18.7233 44.6651 18.7197 44.7321 18.7143V34.1039ZM45.6231 16.2527C45.6231 16.8557 45.1325 17.3463 44.5295 17.3463H2.47063C1.86761 17.3463 1.37696 16.8557 1.37696 16.2527V14.5003C1.37696 13.8972 1.86761 13.4066 2.47063 13.4066H33.6583C34.0385 13.4066 34.3468 13.0983 34.3468 12.7181C34.3468 12.3379 34.0385 12.0296 33.6583 12.0296H8.59468V4.6207L10.8794 5.76302C11.3783 6.01252 11.937 6.14434 12.495 6.14434H18.9114C19.4693 6.14434 20.028 6.01243 20.5268 5.76302L22.8116 4.6207V10.6983C22.8116 11.0785 23.1198 11.3868 23.5 11.3868C23.8803 11.3868 24.1885 11.0785 24.1885 10.6983V4.6207L26.4733 5.76302C26.9722 6.01252 27.5309 6.14434 28.0888 6.14434H34.5052C35.0632 6.14434 35.6218 6.01243 36.1207 5.76302L38.4054 4.6207V12.0295H36.2647C35.8845 12.0295 35.5762 12.3378 35.5762 12.718C35.5762 13.0982 35.8845 13.4065 36.2647 13.4065H44.5295C45.1325 13.4065 45.6231 13.8972 45.6231 14.5002V16.2527Z" fill="#808080"/>
</svg>
