<svg width="18" height="19" viewBox="0 0 18 19" fill="none" xmlns="http://www.w3.org/2000/svg">
<path d="M9.41904 17.2406L9.36171 17.2491V17.1911V12.9454V12.8954H9.41171H13.149H13.2173L13.1967 12.9605C12.965 13.6925 12.6698 14.3591 12.3232 14.9392C11.5576 16.2204 10.5424 17.074 9.41904 17.2406ZM13.4337 12.0936L13.4247 12.1323H13.385H9.41171H9.36171V12.0823V9.49349V9.44349H9.41171H13.7154H13.767L13.7654 9.49501C13.7377 10.4088 13.6225 11.2826 13.4337 12.0936ZM1.45744 12.1323H1.42336L1.4109 12.1005C1.09145 11.2878 0.896346 10.4117 0.849275 9.49606L0.846572 9.44349H0.899209H2.56695H3.46115H3.50973L3.51113 9.49205C3.53712 10.393 3.6442 11.2595 3.82034 12.0717L3.83348 12.1323H3.77148H1.45744ZM4.64746 12.1323H4.60776L4.59876 12.0936C4.40999 11.2826 4.29476 10.4088 4.26703 9.49501L4.26546 9.44349H4.31701H8.55603H8.60603V9.49349V12.0823V12.1323H8.55603H4.64746ZM14.261 12.1323H14.199L14.2122 12.0717C14.3883 11.2595 14.4954 10.393 14.5214 9.49205L14.5228 9.44349H14.5714H15.4008H17.1333H17.1859L17.1832 9.49607C17.1361 10.4117 16.941 11.2878 16.6216 12.1005L16.6091 12.1323H16.5751H14.261ZM16.1766 12.8954H16.26L16.2207 12.9689C15.841 13.6799 15.3607 14.3283 14.7993 14.8947C14.015 15.6858 13.0721 16.317 12.0226 16.7356L11.9682 16.6543C12.3334 16.2787 12.6694 15.8348 12.9693 15.3329L13.0122 15.3585L12.9693 15.3329C13.3856 14.6362 13.7336 13.8254 13.9943 12.9314L14.0048 12.8954H14.0423H16.1766ZM8.55603 12.8954H8.60603V12.9454V17.1807V17.2401L8.54751 17.23C7.45043 17.0404 6.46001 16.1953 5.70928 14.9392C5.36259 14.3591 5.06746 13.6925 4.83582 12.9605L4.81523 12.8954H4.88349H8.55603ZM3.99021 12.8954H4.02771L4.03821 12.9314C4.29893 13.8254 4.64684 14.6362 5.06318 15.3329L5.02026 15.3585L5.06318 15.3329C5.36316 15.8348 5.69907 16.2787 6.06428 16.6543L6.00991 16.7356C4.96042 16.317 4.01743 15.6858 3.23322 14.8947C2.67168 14.3283 2.1915 13.6799 1.8118 12.9689L1.77252 12.8954H1.85591H3.99021ZM1.85599 5.22832H1.77261L1.81189 5.15477C2.19159 4.44376 2.67177 3.79552 3.23322 3.22919C4.01743 2.43808 4.96042 1.8068 6.00991 1.38829L6.06428 1.46959C5.69907 1.84517 5.36316 2.28902 5.06318 2.79101L5.02026 2.76536L5.06318 2.79101C4.64684 3.48758 4.29902 4.29832 4.0383 5.19232L4.0278 5.22832H3.9903H1.85599ZM4.88358 5.22832H4.81532L4.83591 5.16324C5.06755 4.43112 5.36268 3.76472 5.70928 3.18472C6.46001 1.92855 7.45043 1.08348 8.54751 0.89386L8.60603 0.883745V0.943129V5.17832V5.22832H8.55603H4.88358ZM9.41171 5.22832H9.36171V5.17832V0.932749V0.874786L9.41904 0.883289C10.5424 1.04988 11.5576 1.90344 12.3232 3.18471C12.6698 3.76472 12.9649 4.43112 13.1966 5.16323L13.2172 5.22832H13.1489H9.41171ZM14.0422 5.22832H14.0047L13.9942 5.19232C13.7335 4.29832 13.3856 3.48758 12.9693 2.79101L13.0122 2.76536L12.9693 2.79101C12.6694 2.28902 12.3334 1.84517 11.9682 1.46959L12.0226 1.38829C13.0721 1.8068 14.015 2.43808 14.7993 3.22919C15.3607 3.79553 15.8408 4.44376 16.2206 5.15476L16.2599 5.22832H16.1765H14.0422ZM16.575 5.99136H16.6091L16.6215 6.02307C16.941 6.83593 17.1361 7.7121 17.1832 8.6278L17.1859 8.68037H17.1333H15.4008H14.5714H14.5228L14.5214 8.63181C14.4954 7.73076 14.3883 6.86421 14.2121 6.05196L14.1989 5.99136H14.2609H16.575ZM13.385 5.99136H13.4247L13.4337 6.03002C13.6225 6.84099 13.7377 7.715 13.7654 8.62886L13.767 8.68037H13.7154H9.41171H9.36171V8.63037V6.04136V5.99136H9.41171H13.385ZM8.55603 5.99136H8.60603V6.04136V8.63037V8.68037H8.55603H4.31701H4.26546L4.26703 8.62886C4.29476 7.715 4.40999 6.84099 4.59885 6.03002L4.60785 5.99136H4.64754H8.55603ZM3.77156 5.99136H3.83357L3.82043 6.05196C3.6442 6.86421 3.53712 7.73076 3.51113 8.63181L3.50973 8.68037H3.46115H2.56695H0.899209H0.846573L0.849275 8.62781C0.896346 7.71209 1.09153 6.83592 1.41099 6.02307L1.42345 5.99136H1.45752H3.77156ZM0.0802173 9.21156L0.0839886 9.22046L0.0841642 9.23014C0.128123 11.6519 1.11901 13.8403 2.69929 15.4344C4.31613 17.0653 6.54954 18.0738 9.01625 18.0738C11.4829 18.0738 13.7164 17.0653 15.3332 15.4344C16.95 13.8036 17.95 11.5505 17.95 9.06198C17.95 6.57332 16.95 4.32029 15.3332 2.68949C13.7164 1.05867 11.4829 0.050024 9.01625 0.050024C6.54954 0.050024 4.31613 1.05867 2.69929 2.68949C1.11901 4.28352 0.128123 6.47192 0.0841642 8.89373L0.0839886 8.9034L0.0802172 8.91231C0.0608052 8.95817 0.05 9.00879 0.05 9.06198C0.05 9.11507 0.0608032 9.16569 0.0802173 9.21156Z" fill="#666666" stroke="white" stroke-width="0.1"/>
</svg>
