<svg width="33" height="28" viewBox="0 0 33 28" fill="none" xmlns="http://www.w3.org/2000/svg">
<path d="M17.5963 7.78442L17.5955 7.78526C17.5479 7.835 17.5106 7.89365 17.4855 7.95777L17.6251 8.01254L17.4855 7.95777C17.4603 8.02189 17.4478 8.09033 17.4485 8.15923C17.4493 8.22813 17.4632 8.29629 17.4897 8.35985C17.5162 8.42342 17.5548 8.48125 17.6034 8.52994C17.652 8.57864 17.7097 8.61724 17.7733 8.64338C17.8369 8.66951 17.905 8.6826 17.9737 8.68182C18.0425 8.68104 18.1103 8.66639 18.1732 8.63883C18.236 8.61135 18.2927 8.57161 18.3401 8.52206C18.3402 8.5219 18.3404 8.52175 18.3405 8.52159L24.3213 2.36133L24.3214 2.36125C25.0491 1.61054 25.972 1.57653 26.4136 2.032C26.4136 2.03201 26.4137 2.03202 26.4137 2.03203L30.8224 6.58233L30.8224 6.58236C31.2684 7.04242 31.2291 8.00925 30.5009 8.76041L30.6051 8.8614L30.5009 8.76041L21.0635 18.496C20.3357 19.2467 19.4128 19.2807 18.9712 18.8252L18.9711 18.8251L14.8774 14.6092C14.833 14.5546 14.778 14.5095 14.7157 14.4768C14.6509 14.4428 14.5796 14.4231 14.5066 14.4191C14.4335 14.4151 14.3605 14.4269 14.2924 14.4536C14.2243 14.4803 14.1627 14.5214 14.1115 14.5738C14.0604 14.6262 14.0208 14.6888 13.9951 14.7574C13.9694 14.8261 13.9581 14.8994 13.962 14.9726C13.9658 15.0458 13.9846 15.1176 14.0174 15.1831C14.0488 15.246 14.0924 15.3019 14.1457 15.3475L18.2276 19.5631L18.2277 19.5631C19.1786 20.5441 20.7772 20.2844 21.7955 19.234C21.7955 19.234 21.7955 19.2339 21.7955 19.2339L31.2444 9.49839L31.2444 9.49833C32.2631 8.4476 32.5004 6.80849 31.5544 5.83268L31.5543 5.83257L27.1457 1.29411C26.7328 0.868144 26.1969 0.677723 25.6356 0.684141C25.5589 0.685018 25.4744 0.687646 25.3913 0.696789C24.747 0.767666 24.0914 1.09356 23.5778 1.62333L17.5963 7.78442ZM1.15541 18.4959L1.15535 18.496C0.136752 19.5467 -0.10062 21.1859 0.845365 22.1617L0.84547 22.1618L5.25409 26.7002C6.20423 27.6803 7.80259 27.4343 8.82195 26.3828L8.82198 26.3827L14.8036 20.2098L14.8037 20.2097C14.8517 20.16 14.8895 20.1013 14.915 20.0371C14.9405 19.9729 14.9533 19.9042 14.9527 19.8351C14.9522 19.7659 14.9383 19.6975 14.9118 19.6336C14.8853 19.5698 14.8466 19.5117 14.7978 19.4629C14.749 19.414 14.6911 19.3753 14.6273 19.3492C14.5634 19.323 14.495 19.31 14.4261 19.311C14.3571 19.312 14.2891 19.3269 14.226 19.3549C14.1632 19.3827 14.1067 19.4227 14.0594 19.4726C14.0592 19.4728 14.0589 19.4731 14.0587 19.4734L8.07843 25.6448C7.3522 26.394 6.42893 26.419 5.98613 25.9623L5.98603 25.9622L1.57741 21.4237C1.57738 21.4237 1.57734 21.4237 1.57731 21.4236C1.13127 20.9634 1.1709 19.9849 1.89888 19.2339L11.3363 9.49833C12.0641 8.74762 12.987 8.7136 13.4286 9.16911L13.4287 9.1692L17.5224 13.3852C17.5668 13.4398 17.6218 13.4849 17.6841 13.5175C17.7489 13.5515 17.8202 13.5712 17.8932 13.5752C17.9663 13.5792 18.0393 13.5674 18.1074 13.5407C18.1755 13.514 18.2371 13.473 18.2883 13.4206L18.1809 13.3158L18.2883 13.4206C18.3394 13.3682 18.379 13.3056 18.4047 13.2369L18.2642 13.1843L18.4047 13.2369C18.4304 13.1683 18.4417 13.0949 18.4378 13.0217C18.434 12.9485 18.4152 12.8768 18.3824 12.8112C18.351 12.7484 18.3074 12.6924 18.2541 12.6469L14.1722 8.43125L14.1721 8.43119C13.7587 8.00468 13.2132 7.81482 12.6505 7.82122C12.5735 7.8221 12.4893 7.82473 12.4062 7.83387C11.7611 7.90482 11.1173 8.23125 10.6043 8.76035C10.6043 8.76037 10.6043 8.76039 10.6043 8.76041L1.15541 18.4959Z" fill="#ED2028" stroke="#ED2028" stroke-width="0.3"/>
</svg>
