<svg width="41" height="47" viewBox="0 0 41 47" fill="none" xmlns="http://www.w3.org/2000/svg">
<path d="M0.00293185 10.34V14.7963C0.00293185 15.0271 0.0946315 15.2485 0.257858 15.4117C0.421084 15.575 0.642466 15.6667 0.873302 15.6667H3.53664V29.4707C3.33828 29.5036 3.15789 29.6054 3.0273 29.7583C2.89672 29.9112 2.82434 30.1052 2.82293 30.3063C2.82768 30.5064 2.90125 30.6987 3.03125 30.8509C3.16125 31.0031 3.33974 31.1059 3.53664 31.1419V36.3641C3.33828 36.3969 3.15789 36.4987 3.0273 36.6516C2.89672 36.8045 2.82434 36.9986 2.82293 37.1996C2.82768 37.3997 2.90125 37.5921 3.03125 37.7443C3.16125 37.8965 3.33974 37.9992 3.53664 38.0352V45.2593H1.95256C1.72173 45.2593 1.50034 45.351 1.33712 45.5142C1.17389 45.6774 1.08219 45.8988 1.08219 46.1296C1.08219 46.3605 1.17389 46.5818 1.33712 46.7451C1.50034 46.9083 1.72173 47 1.95256 47H38.1948C38.4256 47 38.647 46.9083 38.8102 46.7451C38.9735 46.5818 39.0652 46.3605 39.0652 46.1296C39.0652 45.8988 38.9735 45.6774 38.8102 45.5142C38.647 45.351 38.4256 45.2593 38.1948 45.2593H36.6107V38.1048C36.8076 38.0688 36.9861 37.9661 37.1161 37.8139C37.2461 37.6617 37.3197 37.4694 37.3244 37.2693C37.323 37.0682 37.2506 36.8741 37.12 36.7212C36.9895 36.5684 36.8091 36.4665 36.6107 36.4337V31.2115C36.8076 31.1755 36.9861 31.0728 37.1161 30.9206C37.2461 30.7684 37.3197 30.576 37.3244 30.3759C37.323 30.1749 37.2506 29.9808 37.12 29.8279C36.9895 29.675 36.8091 29.5732 36.6107 29.5404V15.6667H39.2218C39.4527 15.6667 39.674 15.575 39.8373 15.4117C40.0005 15.2485 40.0922 15.0271 40.0922 14.7963V10.34C40.0922 10.1092 40.0005 9.88778 39.8373 9.72456C39.674 9.56133 39.4527 9.46963 39.2218 9.46963H35.5837V4.24741C35.5837 4.01657 35.492 3.79519 35.3288 3.63196C35.1655 3.46874 34.9441 3.37704 34.7133 3.37704H27.7503V0.87037C27.7503 0.639534 27.6586 0.418152 27.4954 0.254926C27.3322 0.0916996 27.1108 0 26.88 0H13.337C13.1062 0 12.8848 0.0916996 12.7216 0.254926C12.5583 0.418152 12.4666 0.639534 12.4666 0.87037V3.30741H5.50367C5.27284 3.30741 5.05145 3.39911 4.88823 3.56233C4.725 3.72556 4.6333 3.94694 4.6333 4.17778V9.4H0.925525C0.800811 9.39208 0.675854 9.41111 0.559151 9.45579C0.442448 9.50048 0.336735 9.56977 0.249201 9.65896C0.161667 9.74814 0.0943649 9.85513 0.0518699 9.97265C0.00937494 10.0902 -0.00731651 10.2155 0.00293185 10.34ZM13.7026 29.4881V29.1052C13.7026 27.4016 14.3793 25.7678 15.5839 24.5632C16.7885 23.3586 18.4223 22.6819 20.1259 22.6819C21.8295 22.6819 23.4633 23.3586 24.6679 24.5632C25.8725 25.7678 26.5492 27.4016 26.5492 29.1052V29.4881C26.3184 29.4881 26.097 29.5798 25.9338 29.7431C25.7706 29.9063 25.6789 30.1277 25.6789 30.3585C25.6789 30.5894 25.7706 30.8107 25.9338 30.974C26.097 31.1372 26.3184 31.2289 26.5492 31.2289V36.4511C26.3184 36.4511 26.097 36.5428 25.9338 36.706C25.7706 36.8693 25.6789 37.0906 25.6789 37.3215C25.6789 37.5523 25.7706 37.7737 25.9338 37.9369C26.097 38.1002 26.3184 38.1919 26.5492 38.1919V45.2593H13.6503V38.1396C13.8812 38.1396 14.1026 38.0479 14.2658 37.8847C14.429 37.7215 14.5207 37.5001 14.5207 37.2693C14.5207 37.0384 14.429 36.817 14.2658 36.6538C14.1026 36.4906 13.8812 36.3989 13.6503 36.3989V31.1767C13.8812 31.1767 14.1026 31.085 14.2658 30.9217C14.429 30.7585 14.5207 30.5371 14.5207 30.3063C14.5211 30.0842 14.4366 29.8704 14.2845 29.7086C14.1324 29.5468 13.9242 29.4492 13.7026 29.4359V29.4881ZM28.2377 31.2289H34.87V36.4511H28.2377V31.2289ZM11.9096 36.4511H5.27738V31.2289H11.9096V36.4511ZM5.27738 38.1919H11.9096V45.2593H5.27738V38.1919ZM28.2377 45.2593V38.1396H34.87V45.2593H28.2377ZM34.87 29.4359H28.2377V29.053C28.2377 26.8877 27.3776 24.8112 25.8465 23.2801C24.3155 21.749 22.2389 20.8889 20.0737 20.8889C17.9084 20.8889 15.8319 21.749 14.3008 23.2801C12.7697 24.8112 11.9096 26.8877 11.9096 29.053V29.4359H5.27738V15.6667H34.87V29.4359ZM14.2074 1.74074H25.9574V3.30741H14.2074V1.74074ZM6.30441 8.12926H22.7196C22.9504 8.12926 23.1718 8.03756 23.335 7.87433C23.4983 7.71111 23.59 7.48973 23.59 7.25889C23.59 7.02805 23.4983 6.80667 23.335 6.64344C23.1718 6.48022 22.9504 6.38852 22.7196 6.38852H6.30441V5.04815H33.8429V9.46963H6.30441V8.12926ZM1.74367 11.2104H38.4037V13.9259H1.74367V11.2104ZM8.81108 22.1944V21.1674C8.81108 20.9366 8.90278 20.7152 9.06601 20.552C9.22923 20.3887 9.45061 20.297 9.68145 20.297C9.91229 20.297 10.1337 20.3887 10.2969 20.552C10.4601 20.7152 10.5518 20.9366 10.5518 21.1674V22.1944C10.5518 22.4253 10.4601 22.6467 10.2969 22.8099C10.1337 22.9731 9.91229 23.0648 9.68145 23.0648C9.45061 23.0648 9.22923 22.9731 9.06601 22.8099C8.90278 22.6467 8.81108 22.4253 8.81108 22.1944ZM29.5955 22.1944V21.1674C29.5955 20.9366 29.6872 20.7152 29.8505 20.552C30.0137 20.3887 30.2351 20.297 30.4659 20.297C30.6967 20.297 30.9181 20.3887 31.0813 20.552C31.2446 20.7152 31.3363 20.9366 31.3363 21.1674V22.1944C31.3363 22.4253 31.2446 22.6467 31.0813 22.8099C30.9181 22.9731 30.6967 23.0648 30.4659 23.0648C30.2351 23.0648 30.0137 22.9731 29.8505 22.8099C29.6872 22.6467 29.5955 22.4253 29.5955 22.1944Z" fill="#808080"/>
</svg>
