<svg width="13" height="13" viewBox="0 0 13 13" fill="none" xmlns="http://www.w3.org/2000/svg">
<mask id="path-1-inside-1" fill="white">
<path d="M12.6628 0.626665C9.18529 -0.915754 7.31248 0.737471 6.49998 1.8544C5.76196 0.830548 4.14103 -0.627659 1.22552 0.294247C0.924202 0.38947 0.627682 0.501908 0.337187 0.631097C0.276787 0.658534 0.221661 0.698128 0.174687 0.747813C0.146007 0.781826 0.120597 0.818955 0.0988539 0.858619C0.0777815 0.890856 0.0592102 0.924955 0.0433332 0.96056C0.0177284 1.02563 0.00305067 1.09519 0 1.16592V10.6214V10.6361C0.00243663 10.6953 0.0134047 10.7536 0.0324999 10.809C0.0324999 10.8238 0.0324999 10.84 0.0406249 10.8548C0.0805925 10.9643 0.149654 11.0582 0.238936 11.1246C0.328218 11.1909 0.433643 11.2266 0.541665 11.2271C0.618455 11.2267 0.694243 11.2081 0.763748 11.1724C4.6502 9.4616 5.93123 12.4607 6.0003 12.6321C6.00707 12.6484 6.01925 12.6617 6.02603 12.6779C6.04619 12.7223 6.0717 12.7635 6.10186 12.8006C6.12175 12.8223 6.14302 12.8426 6.1655 12.8611C6.19039 12.8835 6.21714 12.9033 6.2454 12.9202C6.2716 12.937 6.29928 12.9508 6.328 12.9616C6.36362 12.974 6.40042 12.9819 6.43769 12.9852C6.45813 12.9916 6.47894 12.9966 6.49998 13C6.5219 12.9965 6.5436 12.9916 6.56498 12.9852C6.60179 12.9818 6.63812 12.9738 6.67332 12.9616C6.70248 12.9508 6.7306 12.937 6.75727 12.9202C6.7846 12.9024 6.81083 12.8826 6.83581 12.8611C6.85858 12.843 6.87988 12.8227 6.89946 12.8006C6.92855 12.764 6.95355 12.7238 6.97394 12.6809C6.98206 12.6631 6.99425 12.6499 7.00102 12.6321C7.05925 12.4844 8.3105 9.42909 12.2552 11.1798C12.3371 11.216 12.4259 11.2297 12.5138 11.2199C12.6017 11.21 12.6861 11.1768 12.7595 11.1232C12.833 11.0695 12.8933 10.9971 12.9352 10.9122C12.9771 10.8273 12.9993 10.7326 13 10.6361V1.18069C13.0012 1.06209 12.9697 0.94583 12.9096 0.847021C12.8494 0.748212 12.7635 0.671431 12.6628 0.626665ZM1.08333 9.79549V1.59142C1.19708 1.54709 1.31489 1.49686 1.42323 1.4614C1.4977 1.43629 1.56677 1.42151 1.63854 1.40083C1.77395 1.36094 1.90937 1.32105 2.04479 1.29298C2.12604 1.27525 2.20187 1.26638 2.28041 1.25457C2.39416 1.23536 2.50656 1.21763 2.61353 1.20877C2.69208 1.20877 2.76791 1.1999 2.84374 1.19695C2.94124 1.19695 3.03874 1.19695 3.13083 1.19695C3.22291 1.19695 3.27437 1.20581 3.34478 1.2132C3.4152 1.22059 3.51676 1.23388 3.59937 1.24866C3.68197 1.26343 3.73478 1.27377 3.79572 1.29002C3.85666 1.30628 3.94739 1.32991 4.02051 1.35355C4.09363 1.37719 4.13832 1.39344 4.1952 1.4156C4.25207 1.43776 4.33061 1.47175 4.39561 1.50277C4.46061 1.5338 4.50124 1.553 4.54999 1.5796C4.59874 1.60619 4.67051 1.65051 4.72874 1.68745C4.78697 1.72438 4.81811 1.74359 4.86415 1.77314C4.91019 1.80269 4.97384 1.85587 5.02665 1.89872C5.07947 1.94156 5.09978 1.95634 5.13228 1.98441C5.18915 2.03612 5.24061 2.08783 5.29207 2.13215L5.36113 2.19863C5.43019 2.2725 5.49655 2.34637 5.55071 2.41877C5.56832 2.44093 5.58186 2.46161 5.59811 2.48377C5.63603 2.53253 5.67394 2.58276 5.70509 2.63151C5.73623 2.68027 5.73894 2.68322 5.75655 2.70982C5.77415 2.73641 5.80665 2.78664 5.82832 2.8221L5.86623 2.89154C5.88519 2.92256 5.9028 2.95655 5.91769 2.98314L5.94342 3.03485L5.96373 3.07769V10.679C5.05509 9.78958 3.50457 8.98144 1.08333 9.79549ZM11.9166 9.79549C9.49268 8.97996 7.94352 9.79549 7.04165 10.6819V3.0836C7.27998 2.57537 8.57321 0.276518 11.9166 1.58107V9.79549Z"/>
</mask>
<path d="M12.6628 0.626665C9.18529 -0.915754 7.31248 0.737471 6.49998 1.8544C5.76196 0.830548 4.14103 -0.627659 1.22552 0.294247C0.924202 0.38947 0.627682 0.501908 0.337187 0.631097C0.276787 0.658534 0.221661 0.698128 0.174687 0.747813C0.146007 0.781826 0.120597 0.818955 0.0988539 0.858619C0.0777815 0.890856 0.0592102 0.924955 0.0433332 0.96056C0.0177284 1.02563 0.00305067 1.09519 0 1.16592V10.6214V10.6361C0.00243663 10.6953 0.0134047 10.7536 0.0324999 10.809C0.0324999 10.8238 0.0324999 10.84 0.0406249 10.8548C0.0805925 10.9643 0.149654 11.0582 0.238936 11.1246C0.328218 11.1909 0.433643 11.2266 0.541665 11.2271C0.618455 11.2267 0.694243 11.2081 0.763748 11.1724C4.6502 9.4616 5.93123 12.4607 6.0003 12.6321C6.00707 12.6484 6.01925 12.6617 6.02603 12.6779C6.04619 12.7223 6.0717 12.7635 6.10186 12.8006C6.12175 12.8223 6.14302 12.8426 6.1655 12.8611C6.19039 12.8835 6.21714 12.9033 6.2454 12.9202C6.2716 12.937 6.29928 12.9508 6.328 12.9616C6.36362 12.974 6.40042 12.9819 6.43769 12.9852C6.45813 12.9916 6.47894 12.9966 6.49998 13C6.5219 12.9965 6.5436 12.9916 6.56498 12.9852C6.60179 12.9818 6.63812 12.9738 6.67332 12.9616C6.70248 12.9508 6.7306 12.937 6.75727 12.9202C6.7846 12.9024 6.81083 12.8826 6.83581 12.8611C6.85858 12.843 6.87988 12.8227 6.89946 12.8006C6.92855 12.764 6.95355 12.7238 6.97394 12.6809C6.98206 12.6631 6.99425 12.6499 7.00102 12.6321C7.05925 12.4844 8.3105 9.42909 12.2552 11.1798C12.3371 11.216 12.4259 11.2297 12.5138 11.2199C12.6017 11.21 12.6861 11.1768 12.7595 11.1232C12.833 11.0695 12.8933 10.9971 12.9352 10.9122C12.9771 10.8273 12.9993 10.7326 13 10.6361V1.18069C13.0012 1.06209 12.9697 0.94583 12.9096 0.847021C12.8494 0.748212 12.7635 0.671431 12.6628 0.626665ZM1.08333 9.79549V1.59142C1.19708 1.54709 1.31489 1.49686 1.42323 1.4614C1.4977 1.43629 1.56677 1.42151 1.63854 1.40083C1.77395 1.36094 1.90937 1.32105 2.04479 1.29298C2.12604 1.27525 2.20187 1.26638 2.28041 1.25457C2.39416 1.23536 2.50656 1.21763 2.61353 1.20877C2.69208 1.20877 2.76791 1.1999 2.84374 1.19695C2.94124 1.19695 3.03874 1.19695 3.13083 1.19695C3.22291 1.19695 3.27437 1.20581 3.34478 1.2132C3.4152 1.22059 3.51676 1.23388 3.59937 1.24866C3.68197 1.26343 3.73478 1.27377 3.79572 1.29002C3.85666 1.30628 3.94739 1.32991 4.02051 1.35355C4.09363 1.37719 4.13832 1.39344 4.1952 1.4156C4.25207 1.43776 4.33061 1.47175 4.39561 1.50277C4.46061 1.5338 4.50124 1.553 4.54999 1.5796C4.59874 1.60619 4.67051 1.65051 4.72874 1.68745C4.78697 1.72438 4.81811 1.74359 4.86415 1.77314C4.91019 1.80269 4.97384 1.85587 5.02665 1.89872C5.07947 1.94156 5.09978 1.95634 5.13228 1.98441C5.18915 2.03612 5.24061 2.08783 5.29207 2.13215L5.36113 2.19863C5.43019 2.2725 5.49655 2.34637 5.55071 2.41877C5.56832 2.44093 5.58186 2.46161 5.59811 2.48377C5.63603 2.53253 5.67394 2.58276 5.70509 2.63151C5.73623 2.68027 5.73894 2.68322 5.75655 2.70982C5.77415 2.73641 5.80665 2.78664 5.82832 2.8221L5.86623 2.89154C5.88519 2.92256 5.9028 2.95655 5.91769 2.98314L5.94342 3.03485L5.96373 3.07769V10.679C5.05509 9.78958 3.50457 8.98144 1.08333 9.79549ZM11.9166 9.79549C9.49268 8.97996 7.94352 9.79549 7.04165 10.6819V3.0836C7.27998 2.57537 8.57321 0.276518 11.9166 1.58107V9.79549Z" fill="black" stroke="white" stroke-width="0.5" mask="url(#path-1-inside-1)"/>
</svg>
