<svg width="18" height="18" viewBox="0 0 18 18" fill="none" xmlns="http://www.w3.org/2000/svg">
<path d="M9 16.5C13.1421 16.5 16.5 13.1421 16.5 9C16.5 4.85786 13.1421 1.5 9 1.5C4.85786 1.5 1.5 4.85786 1.5 9C1.5 13.1421 4.85786 16.5 9 16.5Z" stroke="#666666" stroke-width="1.5" stroke-linecap="round" stroke-linejoin="round"/>
<path d="M6.81738 6.75006C6.99371 6.24881 7.34175 5.82614 7.79985 5.55691C8.25795 5.28768 8.79655 5.18926 9.32026 5.27909C9.84397 5.36893 10.319 5.6412 10.6612 6.04771C11.0034 6.45421 11.1907 6.9687 11.1899 7.50006C11.1899 9.00006 8.93988 9.75006 8.93988 9.75006" stroke="#666666" stroke-width="1.5" stroke-linecap="round" stroke-linejoin="round"/>
<path d="M9 12.75H9.0075" stroke="#666666" stroke-width="1.5" stroke-linecap="round" stroke-linejoin="round"/>
</svg>
