<svg width="18" height="18" viewBox="0 0 18 18" fill="none" xmlns="http://www.w3.org/2000/svg">
<g clip-path="url(#clip0)">
<path d="M8.51916 2.00023C8.50075 1.9997 8.48232 2.00009 8.46395 2.0014C8.46357 2.0014 8.4632 2.0014 8.46282 2.0014C8.46244 2.0014 8.46207 2.0014 8.46169 2.0014C8.46094 2.0014 8.46019 2.0014 8.45944 2.0014C8.37923 2.00643 8.30091 2.02883 8.22951 2.06715C8.1581 2.10548 8.09519 2.15889 8.04479 2.22396C7.9482 2.31438 4.35712 5.67567 2.91804 7.022L1.19073 8.63738C1.13443 8.69014 1.08868 8.75392 1.05609 8.82506C1.02349 8.89621 1.0047 8.97333 1.00077 9.05202C0.99685 9.13072 1.00787 9.20945 1.03322 9.28372C1.05856 9.35798 1.09773 9.42633 1.14848 9.48486C1.19923 9.5434 1.26057 9.59096 1.32901 9.62485C1.39744 9.65873 1.47162 9.67827 1.54732 9.68235C1.62302 9.68643 1.69875 9.67497 1.77018 9.64862C1.84162 9.62227 1.90737 9.58156 1.96367 9.5288L2.15409 9.35074V14.6009C2.15409 15.0496 2.15202 15.3944 2.18564 15.7056C2.21926 16.0167 2.29695 16.3435 2.54057 16.597C2.78418 16.8505 3.09858 16.932 3.39802 16.9671C3.69748 17.0023 4.02955 16.9999 4.46171 16.9999H5.03861C5.47071 16.9999 5.80283 17.0023 6.1023 16.9671C6.40176 16.932 6.71613 16.8505 6.95975 16.597C7.20338 16.3435 7.28106 16.0167 7.31468 15.7056C7.3483 15.3944 7.34623 15.0496 7.34623 14.6009V13.4014C7.34623 12.9532 7.34888 12.6247 7.36989 12.4304C7.38039 12.3332 7.39339 12.2816 7.40031 12.2582C7.42312 12.2507 7.47246 12.2375 7.56595 12.2265C7.75292 12.2046 8.06851 12.2019 8.50001 12.2019C8.93151 12.2019 9.2471 12.2046 9.43407 12.2265C9.52756 12.2375 9.57691 12.2507 9.59971 12.2582C9.60664 12.2816 9.61964 12.3332 9.63013 12.4304C9.65114 12.6248 9.65379 12.9532 9.65379 13.4014V14.6009C9.65379 15.0502 9.65154 15.3954 9.68534 15.7068C9.71914 16.0181 9.79754 16.3449 10.0414 16.5982C10.2853 16.8515 10.5996 16.9322 10.8988 16.9672C11.1981 17.0021 11.5298 17 11.9614 17H12.5383C12.9704 17 13.3025 17.0023 13.602 16.9672C13.9014 16.932 14.2158 16.8505 14.4594 16.597C14.7031 16.3435 14.7807 16.0167 14.8144 15.7056C14.848 15.3945 14.8459 15.0496 14.8459 14.601V9.35077L15.0363 9.52882C15.15 9.63538 15.2998 9.69061 15.4527 9.68237C15.6056 9.67414 15.749 9.6031 15.8515 9.48489C15.954 9.36668 16.0072 9.21098 15.9992 9.05205C15.9913 8.89311 15.923 8.74396 15.8093 8.63741L14.082 7.02203C12.6439 5.67659 9.05888 2.32127 8.95746 2.22632C8.95708 2.22593 8.95671 2.22554 8.95633 2.22515C8.90368 2.15675 8.83726 2.10116 8.76173 2.06231C8.6862 2.02345 8.6034 2.00227 8.51915 2.00024L8.51916 2.00023ZM8.5 3.41409C8.73631 3.63514 9.82347 4.65192 10.8482 5.61045L13.3124 7.91579C13.5541 8.14331 13.6921 8.46602 13.6921 8.80487V14.601C13.6921 15.0492 13.6895 15.3776 13.6685 15.572C13.658 15.6692 13.645 15.7208 13.638 15.7442C13.6152 15.7517 13.5659 15.7649 13.4724 15.7758C13.2854 15.7978 12.9698 15.8004 12.5383 15.8004H11.9614C11.5303 15.8004 11.2144 15.7977 11.0274 15.7758C10.9339 15.7649 10.8843 15.7514 10.8617 15.7442C10.8545 15.7205 10.8419 15.6692 10.8313 15.572C10.8102 15.3776 10.8077 15.0496 10.8077 14.601V13.4014C10.8077 12.9528 10.8097 12.608 10.7761 12.2968C10.7425 11.9857 10.6648 11.6589 10.4212 11.4054C10.1776 11.1519 9.86318 11.0704 9.56373 11.0352C9.26427 11.0001 8.9322 11.0024 8.50004 11.0024C8.06788 11.0024 7.73582 11.0001 7.43635 11.0352C7.13689 11.0704 6.82252 11.1519 6.5789 11.4054C6.33527 11.6589 6.25759 11.9857 6.22397 12.2968C6.19035 12.6079 6.19242 12.9528 6.19242 13.4014V14.601C6.19242 15.0492 6.18977 15.3776 6.16876 15.572C6.15826 15.6692 6.14526 15.7208 6.13834 15.7442C6.11554 15.7517 6.06619 15.7649 5.9727 15.7758C5.78573 15.7978 5.47014 15.8004 5.03864 15.8004H4.46174C4.03021 15.8004 3.71465 15.7978 3.52768 15.7758C3.43419 15.7649 3.38484 15.7517 3.36204 15.7442C3.35511 15.7208 3.34212 15.6692 3.33162 15.572C3.31061 15.3776 3.30796 15.0492 3.30796 14.601V8.80487C3.30796 8.46489 3.44672 8.14106 3.68993 7.91345C4.38088 7.26704 5.07749 6.61552 6.15192 5.61051L8.50008 3.41415L8.5 3.41409Z" fill="#666666" stroke="#666666" stroke-width="0.2"/>
</g>
<defs>
<clipPath id="clip0">
<rect width="18" height="18" fill="white"/>
</clipPath>
</defs>
</svg>
