<svg width="48" height="47" viewBox="0 0 48 47" fill="none" xmlns="http://www.w3.org/2000/svg">
<path d="M44.9858 3.85761C44.1209 3.01373 43.4376 2.00209 42.9777 0.884707C42.7123 0.352229 42.1685 0.0156881 41.5736 0.0156881C40.9786 0.0156881 40.4349 0.352229 40.1695 0.884707C39.9278 1.42567 39.65 1.94979 39.338 2.45352C38.3104 4.05371 36.0827 5.14404 36.0827 8.14832C36.0805 9.20074 36.4658 10.2171 37.1652 11.0036C36.5228 11.213 36.0866 11.8104 36.0827 12.4861V14.0549C36.0827 14.9213 36.7851 15.6237 37.6515 15.6237V18.7613H9.41289V15.6237C10.2793 15.6237 10.9817 14.9213 10.9817 14.0549V12.4861C10.9846 11.8046 10.5472 11.1991 9.89923 10.9879C10.595 10.2055 10.9801 9.19533 10.9817 8.14832C10.9817 6.03826 9.87569 4.8695 8.90303 3.85761C8.03643 3.00914 7.35299 1.992 6.89495 0.869019C6.62956 0.336541 6.08581 0 5.49086 0C4.89591 0 4.35216 0.336541 4.08677 0.869019C3.84505 1.40998 3.56727 1.9341 3.2553 2.43783C2.22773 4.05371 9.67281e-06 5.14404 9.67281e-06 8.14832C-0.00222587 9.20074 0.383112 10.2171 1.08249 11.0036C0.440031 11.213 0.00388976 11.8104 9.67281e-06 12.4861V14.0549C9.67281e-06 14.9213 0.702392 15.6237 1.56882 15.6237V21.899H0.784417C0.351201 21.899 9.67281e-06 22.2502 9.67281e-06 22.6834V46.2156C9.67281e-06 46.6488 0.351201 47 0.784417 47H46.28C46.7132 47 47.0644 46.6488 47.0644 46.2156V22.6834C47.0644 22.2502 46.7132 21.899 46.28 21.899H45.4956V15.6237C46.362 15.6237 47.0644 14.9213 47.0644 14.0549V12.4861C47.0673 11.8046 46.6299 11.1991 45.9819 10.9879C46.6777 10.2055 47.0628 9.19533 47.0644 8.14832C47.0644 6.03826 45.9584 4.8695 44.9858 3.85761ZM41.5736 1.50439C42.0979 2.78147 42.8712 3.9414 43.8484 4.91656C44.7661 5.88922 45.4956 6.65794 45.4956 8.14832C45.4956 9.67757 44.2559 10.9173 42.7267 10.9173H40.4205C38.8913 10.9173 37.6515 9.67757 37.6515 8.14832C37.6515 5.42642 40.2166 5.04207 41.5736 1.50439ZM45.4956 23.4678V25.0366H37.6515V23.4678H45.4956ZM45.4956 36.8027H37.6515V35.2339H45.4956V36.8027ZM16.4726 23.4678V25.0366H10.9817V23.4678H16.4726ZM29.0231 23.4678V25.0366H18.0414V23.4678H29.0231ZM36.0827 23.4678V25.0366H30.5919V23.4678H36.0827ZM45.4956 33.6651H37.6515V26.6054H45.4956V33.6651ZM9.41289 33.6651H1.56882V26.6054H9.41289V33.6651ZM1.56882 35.2339H9.41289V36.8027H1.56882V35.2339ZM10.9817 26.6054H16.4726V33.6651H10.9817V26.6054ZM18.0414 26.6054H29.0231V28.9586H18.0414V26.6054ZM30.5919 26.6054H36.0827V33.6651H30.5919V26.6054ZM37.6515 20.3302V21.899H9.41289V20.3302H37.6515ZM1.56882 14.0549V12.4861H9.41289V14.0549H1.56882ZM5.49086 1.50439C6.01516 2.78147 6.78845 3.9414 7.76564 4.91656C8.6834 5.88922 9.41289 6.65794 9.41289 8.14832C9.41289 9.67757 8.17319 10.9173 6.64394 10.9173H4.33778C2.80853 10.9173 1.56882 9.67757 1.56882 8.14832C1.56882 5.42642 4.13383 5.04207 5.49086 1.50439ZM3.13764 15.6237H7.84408V21.899H3.13764V15.6237ZM1.56882 23.4678H9.41289V25.0366H1.56882V23.4678ZM1.56882 38.3715H9.41289V45.4312H1.56882V38.3715ZM10.9817 35.2339H16.4726V45.4312H10.9817V35.2339ZM18.0414 30.5275H29.0231V45.4312H27.4543V38.0499C27.4543 36.0183 26.7248 34.6927 24.5755 32.8101C23.9808 32.2805 23.0837 32.2805 22.489 32.8101C20.3397 34.6927 19.6102 36.0183 19.6102 38.0499V45.4312H18.0414V30.5275ZM21.179 45.4312V38.0499C21.179 36.685 21.532 35.6967 23.5322 33.9867C25.5246 35.7359 25.8854 36.685 25.8854 38.0499V45.4312H21.179ZM30.5919 35.2339H36.0827V45.4312H30.5919V35.2339ZM37.6515 45.4312V38.3715H45.4956V45.4312H37.6515ZM43.9268 21.899H39.2204V15.6237H43.9268V21.899ZM37.6515 14.0549V12.4861H45.4956V14.0549H37.6515Z" fill="#808080"/>
</svg>
