<svg width="11" height="12" viewBox="0 0 11 12" fill="none" xmlns="http://www.w3.org/2000/svg">
<path d="M2.13875 6.63452C2.08892 6.67537 2.02976 6.70777 1.96465 6.72988C1.89955 6.75199 1.82976 6.76337 1.75929 6.76337C1.68882 6.76337 1.61904 6.75199 1.55393 6.72988C1.48882 6.70777 1.42966 6.67537 1.37983 6.63452C1.33 6.59367 1.29047 6.54517 1.26351 6.4918C1.23654 6.43843 1.22266 6.38123 1.22266 6.32346C1.22266 6.26569 1.23654 6.20848 1.26351 6.15511C1.29047 6.10174 1.33 6.05324 1.37983 6.01239L5.50043 2.63889L9.62103 6.01239C9.67087 6.05324 9.7104 6.10174 9.73736 6.15511C9.76433 6.20848 9.77821 6.26569 9.77821 6.32346C9.77821 6.38123 9.76433 6.43843 9.73736 6.4918C9.7104 6.54517 9.67087 6.59367 9.62103 6.63452C9.5712 6.67537 9.51205 6.70777 9.44694 6.72988C9.38183 6.75199 9.31205 6.76337 9.24158 6.76337C9.1711 6.76337 9.10132 6.75199 9.03621 6.72988C8.97111 6.70777 8.91195 6.67537 8.86212 6.63452L6.03488 4.3125L6.03488 11.5L4.96599 11.5L4.96599 4.3125L2.13875 6.63452Z" fill="#999999"/>
<line y1="-0.5" x2="11" y2="-0.5" transform="matrix(1 -8.74228e-08 -8.74228e-08 -1 0 0.5)" stroke="#999999"/>
</svg>
