<svg width="48" height="48" viewBox="0 0 48 48" fill="none" xmlns="http://www.w3.org/2000/svg">
<circle cx="24" cy="24" r="23.25" fill="white" stroke="#808080" stroke-width="1.5"/>
<path d="M23.3059 16.3222C23.4615 16.1444 23.6781 16.0315 23.9127 16.0057C24.0464 15.9909 24.1816 16.0049 24.3094 16.0468C24.4372 16.0886 24.5547 16.1572 24.6538 16.2482C24.753 16.3391 24.8316 16.4502 24.8845 16.574C24.9373 16.6978 24.9632 16.8314 24.9603 16.966V24.0579H32.0423C32.1674 24.0561 32.2916 24.0793 32.4078 24.126C32.5239 24.1727 32.6296 24.2421 32.7187 24.3301C32.8078 24.4181 32.8785 24.5229 32.9268 24.6385C32.9751 24.7541 33 24.8782 33 25.0035C33 25.1288 32.9751 25.2529 32.9268 25.3685C32.8785 25.4841 32.8078 25.5889 32.7187 25.6769C32.6296 25.7649 32.5239 25.8343 32.4078 25.881C32.2916 25.9277 32.1674 25.9509 32.0423 25.9491H24.9603V33.041C24.9621 33.1663 24.9389 33.2907 24.8923 33.4069C24.8456 33.5232 24.7763 33.629 24.6885 33.7183C24.6006 33.8075 24.4959 33.8784 24.3805 33.9267C24.265 33.9751 24.1412 34 24.016 34C23.8909 34 23.767 33.9751 23.6515 33.9267C23.5361 33.8784 23.4314 33.8075 23.3436 33.7183C23.2557 33.629 23.1864 33.5232 23.1398 33.4069C23.0931 33.2907 23.07 33.1663 23.0718 33.041V25.9491H15.9898C15.8657 25.9549 15.7418 25.9363 15.625 25.8941C15.5082 25.852 15.4008 25.7872 15.309 25.7035C15.2172 25.6198 15.1427 25.5189 15.0899 25.4064C15.037 25.2938 15.0069 25.172 15.001 25.0478C14.9952 24.9236 15.0139 24.7995 15.056 24.6826C15.0981 24.5656 15.1628 24.4581 15.2464 24.3661C15.33 24.2742 15.4308 24.1997 15.5432 24.1468C15.6555 24.0939 15.7772 24.0637 15.9012 24.0579C15.9307 24.0565 15.9603 24.0565 15.9898 24.0579H23.0718V16.966C23.0667 16.7297 23.1502 16.5 23.3059 16.3222Z" fill="#808080"/>
</svg>
