<svg width="88" height="68" viewBox="0 0 88 68" fill="none" xmlns="http://www.w3.org/2000/svg">
<g filter="url(#filter0_d)">
<path d="M66.2258 41.842H40.1894V16.9016L38.4267 20.0743L31.248 17.6814L35.4741 5.4038C38.5118 1.29952 42.8662 0.856445 44.5974 0.856445C45.1256 0.856445 45.4887 0.894589 45.6097 0.909994H48.1955L48.1999 1.46384C48.2256 4.21836 50.485 6.45865 53.2387 6.45865C55.9955 6.45865 58.2585 4.21836 58.2835 1.46384L58.2886 0.909994H60.7644C60.8861 0.894589 61.2515 0.856445 61.7848 0.856445C63.5292 0.856445 67.9166 1.29952 70.9807 5.40159L71.0614 5.55344L75.2368 17.6822L68.0098 20.0728L66.2258 16.887V41.842ZM41.3074 40.7241H65.1078V12.603L68.535 18.7223L73.8115 16.9772L70.0337 6.00165C67.3752 2.4989 63.7294 1.9744 61.7848 1.9744C61.225 1.9744 60.8825 2.02135 60.8795 2.02208L60.8003 2.02794H59.3714C59.0625 5.13385 56.4195 7.5766 53.2387 7.5766C50.061 7.5766 47.4216 5.13385 47.1128 2.02794L45.4938 2.02208C45.4901 2.02135 45.1512 1.9744 44.5974 1.9744C42.6696 1.9744 39.0561 2.49889 36.424 5.99945L32.6704 16.9779L37.9007 18.7209L41.3074 12.5883V40.7241Z" fill="#666666" fill-opacity="0.72"/>
<path d="M60.5309 18.3689C59.1958 18.3689 58.1094 17.2825 58.1094 15.9474V12.2217H62.9531V15.9474C62.9531 17.2825 61.8667 18.3689 60.5309 18.3689ZM59.2273 13.3389V15.9474C59.2273 16.6663 59.812 17.251 60.5309 17.251C61.2505 17.251 61.8351 16.6663 61.8351 15.9474V13.3389H59.2273Z" fill="#666666" fill-opacity="0.72"/>
<path d="M53.7976 7.01758H52.6797V14.643H53.7976V7.01758Z" fill="#666666" fill-opacity="0.72"/>
<path d="M58.8424 0.910156H47.6416V2.02737H58.8424V0.910156Z" fill="#666666" fill-opacity="0.72"/>
<path d="M41.145 31.3551L65.1853 23.1025V34.5842H41.145V31.3551Z" fill="#F2F2F2"/>
<g filter="url(#filter1_d)">
<path d="M25.4131 42.2776C22.9337 42.2197 20.5034 41.5727 18.3233 40.3894C15.0369 38.7184 10.268 39.9009 7.41887 40.6073C5.55856 41.068 4.86242 41.2411 4.52425 40.6799C4.23303 40.1965 4.67461 39.7036 4.84039 39.5187C6.91931 37.1984 12.7511 35.2508 12.9998 35.1694C13.0379 35.1562 13.0768 35.1481 13.1164 35.1445C13.448 35.1085 21.2817 34.306 24.6488 35.9917C27.7165 37.5249 34.1257 36.5998 34.1902 36.5903C34.2958 36.5749 34.4044 36.5896 34.5013 36.6336C34.5988 36.6776 34.6817 36.7488 34.7404 36.8383C34.7983 36.9278 34.8299 37.0327 34.8306 37.139C34.8313 37.2461 34.802 37.351 34.7448 37.442C33.6804 38.926 32.2807 40.1386 30.6588 40.9785C29.0369 41.8191 27.2397 42.2644 25.4131 42.2776ZM18.8258 39.394C23.0357 41.5338 26.837 41.7495 30.1226 40.0366C31.19 39.4754 32.156 38.7389 32.9791 37.8572C30.818 38.0567 26.6257 38.235 24.1441 36.9952C21.212 35.5274 14.0246 36.1803 13.2932 36.2507C12.7409 36.4392 8.32994 37.9745 6.21215 39.7512C6.50924 39.6823 6.83863 39.6009 7.15113 39.5238C10.1507 38.7807 15.1726 37.5351 18.8309 39.394H18.8258Z" fill="#666666" fill-opacity="0.72"/>
</g>
<path d="M37.4979 37.7579C37.3938 37.7579 37.2903 37.7469 37.1884 37.7263C36.2663 37.5261 35.3141 37.5143 34.3876 37.6911C34.3158 37.7073 34.2417 37.708 34.1698 37.6955C34.0972 37.6823 34.0282 37.6552 33.9666 37.6156C33.905 37.576 33.8514 37.5239 33.8096 37.4637C33.7678 37.4036 33.7385 37.3353 33.7223 37.2635C33.7069 37.1923 33.7054 37.1182 33.7186 37.0456C33.7319 36.9737 33.759 36.9047 33.7986 36.8424C33.8382 36.7808 33.8896 36.728 33.9497 36.6861C34.0106 36.6436 34.0781 36.6143 34.15 36.5988C35.2283 36.389 36.3375 36.4001 37.4107 36.6311C37.473 36.6443 37.5368 36.6429 37.5985 36.6275C37.6601 36.6121 37.7166 36.5827 37.765 36.5416C37.8148 36.5013 37.8537 36.4499 37.8809 36.392C37.9073 36.3333 37.9205 36.2702 37.9197 36.2064L37.9132 35.8198C37.7716 27.9832 37.7078 24.407 24.6306 23.3588C20.4991 23.0236 17.4636 23.9317 15.6107 26.0473C12.4798 29.6212 13.7056 35.5278 13.7181 35.5836C13.7459 35.7274 13.7166 35.8763 13.6359 35.9981C13.5552 36.1206 13.4298 36.2064 13.2868 36.2365C13.1437 36.2673 12.9948 36.2409 12.8708 36.1624C12.7476 36.0846 12.6596 35.9607 12.6258 35.8183C12.5701 35.5543 11.2731 29.3021 14.77 25.3123C16.8687 22.9172 20.2152 21.8851 24.7178 22.246C38.8074 23.3727 38.8895 27.7858 39.0304 35.7971L39.037 36.1829C39.0414 36.3876 39.0047 36.5915 38.9292 36.7822C38.8536 36.973 38.7406 37.1461 38.5976 37.2928C38.4545 37.4395 38.2836 37.5561 38.0944 37.6361C37.9058 37.7153 37.7033 37.7571 37.4979 37.7579Z" fill="#666666" fill-opacity="0.72"/>
<path d="M31.5685 37.952H31.545C31.3968 37.9454 31.2574 37.8808 31.1569 37.7723C31.0564 37.6637 31.0036 37.5192 31.0095 37.3717C31.4907 25.7184 29.0017 23.861 28.9768 23.8427C28.8565 23.7612 28.7721 23.6365 28.7406 23.4942C28.7098 23.3519 28.734 23.2037 28.8088 23.079C28.8829 22.9543 29.0025 22.8641 29.1426 22.8274C29.2827 22.7907 29.4309 22.8113 29.5563 22.8831C29.8732 23.0651 32.6424 25.0156 32.1296 37.4136C32.1245 37.5588 32.0629 37.696 31.958 37.7965C31.8531 37.897 31.713 37.9527 31.5685 37.952Z" fill="#666666" fill-opacity="0.72"/>
<g filter="url(#filter2_d)">
<path d="M23.1095 34.2906C22.9929 34.2906 22.8784 34.2539 22.7838 34.1856L20.8935 32.8293L18.7045 33.6171C18.6062 33.6524 18.4998 33.6597 18.3978 33.6377C18.2959 33.6157 18.202 33.5658 18.1272 33.4939C18.0516 33.4213 17.9988 33.3296 17.9731 33.2284C17.9475 33.1271 17.9504 33.0208 17.9819 32.9217L18.6876 30.7042L17.2616 28.8651C17.197 28.7822 17.1574 28.6839 17.1472 28.5805C17.1362 28.4763 17.1545 28.3722 17.1999 28.2783C17.2454 28.1844 17.3166 28.1052 17.4046 28.0494C17.4934 27.9937 17.5954 27.9643 17.6995 27.9636L20.0271 27.9504L21.335 26.024C21.3937 25.9382 21.4751 25.87 21.5705 25.8274C21.6659 25.7856 21.7708 25.771 21.8742 25.7849C21.9776 25.7996 22.0745 25.8428 22.1544 25.9096C22.2344 25.9764 22.2945 26.0637 22.3275 26.1627L23.0589 28.3736L25.2941 29.0228C25.3946 29.0515 25.4841 29.1079 25.5537 29.1857C25.6234 29.2635 25.6696 29.3588 25.688 29.4615C25.7063 29.5642 25.6961 29.6698 25.6572 29.7659C25.6183 29.8628 25.5538 29.9471 25.4694 30.0087L23.5944 31.3886L23.6678 33.7147C23.6707 33.7895 23.6575 33.8643 23.6303 33.934C23.6039 34.0037 23.5629 34.0676 23.5108 34.1218C23.4587 34.1754 23.3964 34.2179 23.3274 34.2473C23.2585 34.2766 23.1843 34.2913 23.1088 34.2913L23.1095 34.2906ZM20.98 31.6446C21.0966 31.6446 21.211 31.6813 21.3057 31.7495L22.5146 32.6173L22.4677 31.1289C22.4647 31.0387 22.4838 30.9484 22.5234 30.867C22.563 30.7856 22.6217 30.7152 22.6951 30.6609L23.8952 29.7784L22.4647 29.3632C22.3774 29.3383 22.2982 29.2921 22.2329 29.2297C22.1676 29.1666 22.1185 29.0889 22.0899 29.003L21.6204 27.5917L20.7819 28.8211C20.7313 28.8959 20.6624 28.9576 20.5824 29.0001C20.5025 29.0434 20.4137 29.0654 20.3227 29.0661L18.8336 29.0742L19.7461 30.2508C19.8019 30.3227 19.8393 30.4063 19.8554 30.4958C19.8708 30.5853 19.865 30.677 19.8378 30.7636L19.386 32.1823L20.7871 31.6791C20.8487 31.6563 20.914 31.6446 20.98 31.6446Z" fill="#666666" fill-opacity="0.72"/>
</g>
<path d="M34.0275 36.1424C33.9351 36.1432 33.8441 36.1212 33.7627 36.0786C33.6813 36.0353 33.6124 35.973 33.561 35.896C33.5104 35.8197 33.4788 35.7316 33.4707 35.64C33.4619 35.5483 33.4766 35.4558 33.5133 35.3715C33.5405 35.3025 33.5801 35.2402 33.6307 35.1866C33.7099 35.1103 33.8097 35.059 33.9175 35.0384C34.0261 35.0172 34.1376 35.0282 34.2395 35.0692C34.3092 35.0949 34.3716 35.1345 34.4244 35.1866C34.4765 35.2387 34.5161 35.3018 34.541 35.3715C34.5711 35.4382 34.5858 35.5101 34.5858 35.5835C34.5858 35.6568 34.5711 35.7287 34.541 35.7962C34.5132 35.8637 34.4735 35.926 34.4236 35.9803C34.3694 36.0295 34.307 36.0691 34.2395 36.0977C34.1721 36.1263 34.1002 36.1417 34.0275 36.1424Z" fill="#666666"/>
<path d="M36.2626 36.1424C36.1892 36.1432 36.1159 36.1292 36.0484 36.1014C35.9802 36.0735 35.9178 36.0324 35.8657 35.9803C35.8166 35.926 35.777 35.8637 35.7484 35.7962C35.719 35.7287 35.7036 35.6568 35.7036 35.5835C35.7036 35.5101 35.719 35.4382 35.7484 35.3715C35.7733 35.3018 35.8137 35.2387 35.8657 35.1866C35.9178 35.1345 35.9809 35.0949 36.0506 35.0692C36.1526 35.0282 36.264 35.0172 36.3726 35.0384C36.4804 35.059 36.5802 35.1103 36.6595 35.1866C36.7101 35.2402 36.7497 35.3025 36.7768 35.3715C36.8128 35.4558 36.8274 35.5483 36.8194 35.64C36.8106 35.7316 36.7798 35.8197 36.7284 35.896C36.6778 35.973 36.6081 36.0353 36.5267 36.0786C36.4453 36.1212 36.355 36.1432 36.2626 36.1424Z" fill="#666666"/>
</g>
<path d="M79.3423 44.9155H9.28711V66.143H79.3423V44.9155Z" fill="#F2F2F2" stroke="#C5C5C5" stroke-width="2"/>
<path d="M53.8965 61.4214H40.2339V66.1437H53.8965V61.4214Z" fill="#F2F2F2" stroke="#C5C5C5" stroke-width="2"/>
<path d="M3 44.8241L8.96019 35.2886H79.68L85.938 44.8241H3Z" fill="#F2F2F2" stroke="#C5C5C5" stroke-width="2"/>
<defs>
<filter id="filter0_d" x="0.427246" y="0.856445" width="78.8096" height="49.4212" filterUnits="userSpaceOnUse" color-interpolation-filters="sRGB">
<feFlood flood-opacity="0" result="BackgroundImageFix"/>
<feColorMatrix in="SourceAlpha" type="matrix" values="0 0 0 0 0 0 0 0 0 0 0 0 0 0 0 0 0 0 127 0"/>
<feOffset dy="4"/>
<feGaussianBlur stdDeviation="2"/>
<feColorMatrix type="matrix" values="0 0 0 0 0 0 0 0 0 0 0 0 0 0 0 0 0 0 0.25 0"/>
<feBlend mode="normal" in2="BackgroundImageFix" result="effect1_dropShadow"/>
<feBlend mode="normal" in="SourceGraphic" in2="effect1_dropShadow" result="shape"/>
</filter>
<filter id="filter1_d" x="0.427246" y="34.9224" width="38.4034" height="15.3553" filterUnits="userSpaceOnUse" color-interpolation-filters="sRGB">
<feFlood flood-opacity="0" result="BackgroundImageFix"/>
<feColorMatrix in="SourceAlpha" type="matrix" values="0 0 0 0 0 0 0 0 0 0 0 0 0 0 0 0 0 0 127 0"/>
<feOffset dy="4"/>
<feGaussianBlur stdDeviation="2"/>
<feColorMatrix type="matrix" values="0 0 0 0 0 0 0 0 0 0 0 0 0 0 0 0 0 0 0.25 0"/>
<feBlend mode="normal" in2="BackgroundImageFix" result="effect1_dropShadow"/>
<feBlend mode="normal" in="SourceGraphic" in2="effect1_dropShadow" result="shape"/>
</filter>
<filter id="filter2_d" x="13.144" y="25.7798" width="16.5528" height="16.5115" filterUnits="userSpaceOnUse" color-interpolation-filters="sRGB">
<feFlood flood-opacity="0" result="BackgroundImageFix"/>
<feColorMatrix in="SourceAlpha" type="matrix" values="0 0 0 0 0 0 0 0 0 0 0 0 0 0 0 0 0 0 127 0"/>
<feOffset dy="4"/>
<feGaussianBlur stdDeviation="2"/>
<feColorMatrix type="matrix" values="0 0 0 0 0 0 0 0 0 0 0 0 0 0 0 0 0 0 0.25 0"/>
<feBlend mode="normal" in2="BackgroundImageFix" result="effect1_dropShadow"/>
<feBlend mode="normal" in="SourceGraphic" in2="effect1_dropShadow" result="shape"/>
</filter>
</defs>
</svg>
