<svg width="48" height="48" viewBox="0 0 48 48" fill="none" xmlns="http://www.w3.org/2000/svg">
<mask id="path-1-inside-1" fill="white">
<path fill-rule="evenodd" clip-rule="evenodd" d="M4 0C1.79086 0 0 1.79086 0 4V36C0 38.2091 1.79086 40 4 40H8V44C8 46.2091 9.79086 48 12 48H44C46.2091 48 48 46.2091 48 44V12C48 9.79086 46.2091 8 44 8H40V4C40 1.79086 38.2091 0 36 0H4Z"/>
</mask>
<path fill-rule="evenodd" clip-rule="evenodd" d="M4 0C1.79086 0 0 1.79086 0 4V36C0 38.2091 1.79086 40 4 40H8V44C8 46.2091 9.79086 48 12 48H44C46.2091 48 48 46.2091 48 44V12C48 9.79086 46.2091 8 44 8H40V4C40 1.79086 38.2091 0 36 0H4Z" fill="white"/>
<path d="M8 40H9.5V38.5H8V40ZM40 8H38.5V9.5H40V8ZM1.5 4C1.5 2.61929 2.61929 1.5 4 1.5V-1.5C0.962434 -1.5 -1.5 0.962435 -1.5 4H1.5ZM1.5 36V4H-1.5V36H1.5ZM4 38.5C2.61929 38.5 1.5 37.3807 1.5 36H-1.5C-1.5 39.0376 0.962436 41.5 4 41.5V38.5ZM8 38.5H4V41.5H8V38.5ZM9.5 44V40H6.5V44H9.5ZM12 46.5C10.6193 46.5 9.5 45.3807 9.5 44H6.5C6.5 47.0376 8.96244 49.5 12 49.5V46.5ZM44 46.5H12V49.5H44V46.5ZM46.5 44C46.5 45.3807 45.3807 46.5 44 46.5V49.5C47.0376 49.5 49.5 47.0376 49.5 44H46.5ZM46.5 12V44H49.5V12H46.5ZM44 9.5C45.3807 9.5 46.5 10.6193 46.5 12H49.5C49.5 8.96243 47.0376 6.5 44 6.5V9.5ZM40 9.5H44V6.5H40V9.5ZM38.5 4V8H41.5V4H38.5ZM36 1.5C37.3807 1.5 38.5 2.61929 38.5 4H41.5C41.5 0.962434 39.0376 -1.5 36 -1.5V1.5ZM4 1.5H36V-1.5H4V1.5Z" fill="#808080" mask="url(#path-1-inside-1)"/>
<rect x="8.75" y="8.75" width="30.5" height="30.5" rx="3.25" fill="white" stroke="#808080" stroke-width="1.5"/>
</svg>
