<svg width="72" height="68" viewBox="0 0 72 68" fill="none" xmlns="http://www.w3.org/2000/svg">
<g filter="url(#filter0_d)">
<path d="M54.7658 59.4862H16.9772V23.2881L14.4186 27.8927L4 24.4198L10.1335 6.59943C14.5425 0.643018 20.8615 0 23.3741 0C24.141 0 24.6679 0.0559458 24.8443 0.0778991H28.5968L28.6039 0.880965C28.64 4.87929 31.9203 8.1312 35.9165 8.1312C39.9176 8.1312 43.2028 4.87929 43.2389 0.880965L43.246 0.0778991H46.8393C47.0156 0.0559458 47.5467 0 48.3201 0C50.8518 0 57.2203 0.64302 61.6676 6.5966L61.7845 6.81754L67.845 24.4212L57.3549 27.8905L54.7658 23.2662V59.4862ZM18.5996 57.8638H53.1434V17.0492L58.1176 25.9303L65.7764 23.3972L60.2931 7.46694C56.435 2.38441 51.1428 1.62242 48.3201 1.62242C47.5085 1.62242 47.0107 1.69111 47.0064 1.69182L46.8917 1.6996H44.8175C44.3692 6.20852 40.533 9.75361 35.9165 9.75361C31.3049 9.75361 27.4737 6.20852 27.0254 1.6996L24.6757 1.69182C24.6708 1.69111 24.1786 1.62242 23.3741 1.62242C20.5768 1.62242 15.3321 2.38441 11.5115 7.46481L6.06431 23.3986L13.6552 25.9282L18.5996 17.0272V57.8638Z" fill="#666666" fill-opacity="0.72"/>
<path d="M46.501 25.4169C44.5627 25.4169 42.9863 23.8398 42.9863 21.9022V16.4946H50.0163V21.9022C50.0163 23.8398 48.4392 25.4169 46.501 25.4169ZM44.6087 18.1163V21.9022C44.6087 22.9453 45.4578 23.7944 46.501 23.7944C47.5448 23.7944 48.3946 22.9453 48.3946 21.9022V18.1163H44.6087Z" fill="#666666" fill-opacity="0.72"/>
<path d="M36.7279 8.94287H35.1055V20.0101H36.7279V8.94287Z" fill="#666666" fill-opacity="0.72"/>
<path d="M44.0497 0.0771484H27.793V1.69956H44.0497V0.0771484Z" fill="#666666" fill-opacity="0.72"/>
</g>
<defs>
<filter id="filter0_d" x="0" y="0" width="71.845" height="67.4862" filterUnits="userSpaceOnUse" color-interpolation-filters="sRGB">
<feFlood flood-opacity="0" result="BackgroundImageFix"/>
<feColorMatrix in="SourceAlpha" type="matrix" values="0 0 0 0 0 0 0 0 0 0 0 0 0 0 0 0 0 0 127 0"/>
<feOffset dy="4"/>
<feGaussianBlur stdDeviation="2"/>
<feColorMatrix type="matrix" values="0 0 0 0 0 0 0 0 0 0 0 0 0 0 0 0 0 0 0.25 0"/>
<feBlend mode="normal" in2="BackgroundImageFix" result="effect1_dropShadow"/>
<feBlend mode="normal" in="SourceGraphic" in2="effect1_dropShadow" result="shape"/>
</filter>
</defs>
</svg>
