<svg width="30" height="21" viewBox="0 0 30 21" fill="none" xmlns="http://www.w3.org/2000/svg">
<path d="M7.13648 6.46793C7.12728 7.66939 6.36718 8.79115 5.22396 9.19573C4.06234 9.60336 2.77201 9.2417 1.98738 8.2977C1.21808 7.36902 1.13839 5.999 1.75751 4.97531C2.37663 3.95162 3.60873 3.39074 4.78873 3.62674C6.14037 3.89339 7.12728 5.08871 7.13648 6.46793C7.13954 6.86331 7.75253 6.86331 7.74946 6.46793C7.74027 4.99983 6.81772 3.68497 5.44463 3.17006C4.08073 2.65821 2.46551 3.0965 1.54296 4.22133C0.608159 5.36149 0.464107 7.00123 1.23034 8.27318C1.99351 9.539 3.48614 10.1857 4.93279 9.90679C6.33653 9.63708 7.48895 8.45095 7.70349 7.03495C7.73107 6.84492 7.74946 6.65796 7.75253 6.46793C7.74946 6.07562 7.13648 6.07256 7.13648 6.46793Z" fill="#333333"/>
<path d="M7.13648 6.46793C7.12728 7.66939 6.36718 8.79115 5.22396 9.19573C4.06234 9.60336 2.772 9.2417 1.98738 8.2977C1.21808 7.36902 1.13839 5.999 1.75751 4.97531C2.37663 3.95162 3.60873 3.39074 4.78873 3.62674C6.14037 3.89339 7.12728 5.08871 7.13648 6.46793ZM7.13648 6.46793C7.13954 6.86331 7.75253 6.86331 7.74946 6.46793C7.74027 4.99983 6.81772 3.68497 5.44463 3.17006C4.08073 2.65821 2.46551 3.0965 1.54296 4.22133C0.608159 5.36149 0.464107 7.00123 1.23034 8.27318C1.99351 9.539 3.48614 10.1857 4.93279 9.90679C6.33653 9.63708 7.48894 8.45095 7.70349 7.03495C7.73107 6.84492 7.74946 6.65796 7.75253 6.46793C7.74946 6.07562 7.13648 6.07256 7.13648 6.46793Z" stroke="#333333" stroke-width="0.32"/>
<path d="M15.893 15.4604C15.8838 17.0388 14.8877 18.51 13.3951 19.0525C11.8657 19.6073 10.1432 19.1353 9.10417 17.8878C8.07742 16.6557 7.96708 14.8443 8.79155 13.4774C9.61601 12.1165 11.2588 11.3871 12.8219 11.7089C14.382 12.0307 15.5896 13.2996 15.8501 14.8689C15.8807 15.062 15.893 15.2612 15.893 15.4604C15.8961 15.8558 16.5091 15.8558 16.506 15.4604C16.4968 13.603 15.3199 11.9265 13.5759 11.286C11.8442 10.6484 9.8091 11.2032 8.64443 12.6315C7.46749 14.075 7.29279 16.15 8.26131 17.753C9.22677 19.3467 11.1178 20.1681 12.9445 19.8126C14.7222 19.4663 16.1719 17.9675 16.4478 16.1745C16.4845 15.9385 16.506 15.6995 16.506 15.4604C16.5091 15.065 15.8961 15.065 15.893 15.4604Z" fill="#333333"/>
<path d="M15.893 15.4604C15.8838 17.0388 14.8877 18.51 13.3951 19.0525C11.8657 19.6073 10.1432 19.1353 9.10417 17.8878C8.07742 16.6557 7.96708 14.8443 8.79155 13.4774C9.61601 12.1165 11.2588 11.3871 12.8219 11.7089C14.382 12.0307 15.5896 13.2996 15.8501 14.8689C15.8807 15.062 15.893 15.2612 15.893 15.4604ZM15.893 15.4604C15.8961 15.8558 16.5091 15.8558 16.506 15.4604C16.4968 13.603 15.3199 11.9265 13.5759 11.286C11.8442 10.6484 9.8091 11.2032 8.64443 12.6315C7.46749 14.075 7.29279 16.15 8.26131 17.753C9.22677 19.3467 11.1178 20.1681 12.9445 19.8126C14.7222 19.4663 16.1719 17.9675 16.4478 16.1745C16.4845 15.9385 16.506 15.6995 16.506 15.4604C16.5091 15.065 15.8961 15.065 15.893 15.4604Z" stroke="#333333" stroke-width="0.32"/>
<path d="M24.9318 4.22433C24.9226 5.26028 24.2728 6.23187 23.2859 6.58127C22.2837 6.9368 21.1711 6.63337 20.4876 5.82117C19.8072 5.01509 19.7367 3.81976 20.2792 2.9248C20.8156 2.03903 21.8883 1.55477 22.9089 1.76319C24.0797 1.99919 24.9226 3.03207 24.9318 4.22433C24.9348 4.61971 25.5478 4.61971 25.5448 4.22433C25.5356 2.91561 24.7142 1.74786 23.4882 1.29119C22.2806 0.840642 20.8462 1.22989 20.0309 2.22599C19.1973 3.24355 19.0655 4.70246 19.752 5.83343C20.4324 6.96132 21.7657 7.53447 23.053 7.28008C24.4935 6.99504 25.5356 5.67711 25.5448 4.22433C25.5478 3.82896 24.9348 3.82896 24.9318 4.22433Z" fill="#333333"/>
<path d="M24.9318 4.22433C24.9226 5.26028 24.2728 6.23187 23.2859 6.58127C22.2837 6.9368 21.1711 6.63337 20.4876 5.82116C19.8072 5.01509 19.7367 3.81976 20.2792 2.9248C20.8156 2.03903 21.8883 1.55477 22.9089 1.76319C24.0797 1.99919 24.9226 3.03207 24.9318 4.22433ZM24.9318 4.22433C24.9348 4.61971 25.5478 4.61971 25.5448 4.22433C25.5356 2.91561 24.7142 1.74786 23.4882 1.29119C22.2806 0.840642 20.8462 1.22989 20.0309 2.22599C19.1973 3.24355 19.0655 4.70246 19.752 5.83343C20.4324 6.96132 21.7657 7.53447 23.053 7.28008C24.4935 6.99504 25.5356 5.67711 25.5448 4.22433C25.5478 3.82896 24.9348 3.82896 24.9318 4.22433Z" stroke="#333333" stroke-width="0.32"/>
<path d="M5.98412 9.21715C6.89134 10.1979 7.79856 11.1818 8.70578 12.1626C8.83144 12.3005 8.96017 12.4384 9.08583 12.5733C9.35248 12.8644 9.7877 12.4292 9.51799 12.1411C8.61077 11.1603 7.70355 10.1765 6.79633 9.19569C6.67066 9.05777 6.54194 8.91985 6.41627 8.78499C6.14962 8.49382 5.71747 8.92904 5.98412 9.21715Z" fill="#333333" stroke="#333333" stroke-width="0.32"/>
<path d="M15.357 12.8857C15.9577 12.2084 16.5584 11.5341 17.1592 10.8568C18.1154 9.78096 19.0717 8.70517 20.0279 7.62631C20.2455 7.38111 20.4632 7.13592 20.6808 6.89072C20.9413 6.59649 20.5091 6.16127 20.2486 6.45857C19.6479 7.13592 19.0472 7.8102 18.4464 8.48756C17.4902 9.56335 16.5339 10.6391 15.5776 11.718C15.36 11.9632 15.1424 12.2084 14.9248 12.4536C14.6643 12.7478 15.0965 13.183 15.357 12.8857Z" fill="#333333" stroke="#333333" stroke-width="0.32"/>
<path d="M29.0778 10.722C29.0717 11.1725 28.7989 11.5894 28.3698 11.7487C27.9284 11.9142 27.4227 11.7763 27.1254 11.4085C26.8434 11.0591 26.8097 10.5534 27.0335 10.1672C27.2633 9.77185 27.7415 9.54811 28.192 9.64312C28.7069 9.75346 29.0686 10.1948 29.0778 10.722C29.0839 11.1174 29.6969 11.1174 29.6908 10.722C29.6785 9.99865 29.231 9.36115 28.5537 9.10982C27.8947 8.86769 27.1101 9.0853 26.6687 9.63086C26.2182 10.1856 26.1446 10.9825 26.5186 11.6016C26.8925 12.2207 27.6127 12.5272 28.3177 12.3985C29.1176 12.2544 29.6816 11.5189 29.6938 10.722C29.6969 10.3266 29.0839 10.3266 29.0778 10.722Z" fill="#333333"/>
<path d="M29.0778 10.722C29.0717 11.1725 28.7989 11.5894 28.3698 11.7487C27.9284 11.9142 27.4227 11.7763 27.1254 11.4085C26.8434 11.0591 26.8097 10.5534 27.0335 10.1672C27.2633 9.77185 27.7415 9.54811 28.192 9.64312C28.7069 9.75346 29.0686 10.1948 29.0778 10.722ZM29.0778 10.722C29.0839 11.1174 29.6969 11.1174 29.6908 10.722C29.6785 9.99865 29.231 9.36115 28.5537 9.10982C27.8947 8.86769 27.1101 9.0853 26.6687 9.63086C26.2182 10.1856 26.1446 10.9825 26.5186 11.6016C26.8925 12.2207 27.6127 12.5272 28.3177 12.3985C29.1176 12.2544 29.6816 11.5189 29.6938 10.722C29.6969 10.3266 29.0839 10.3266 29.0778 10.722Z" stroke="#333333" stroke-width="0.32"/>
<path d="M24.2267 6.63341C25.0082 7.50078 25.7929 8.3651 26.5744 9.23248C26.6848 9.35507 26.7951 9.4746 26.9054 9.5972C27.169 9.89144 27.6042 9.45622 27.3376 9.16505C26.556 8.29767 25.7714 7.43336 24.9898 6.56598C24.8795 6.44338 24.7692 6.32385 24.6588 6.20125C24.3953 5.90702 23.9631 6.34224 24.2267 6.63341Z" fill="#333333" stroke="#333333" stroke-width="0.32"/>
</svg>
