<svg width="14" height="16" viewBox="0 0 14 16" fill="none" xmlns="http://www.w3.org/2000/svg">
<path d="M13.9803 12.9029L12.8589 5.25614C12.6809 4.09357 11.5952 3.22573 10.3314 3.22573H9.79743V2.57076C9.79743 1.16257 8.55149 0 7.00295 0C5.45442 0 4.20848 1.1462 4.20848 2.57076V3.22573H3.6745C2.41075 3.22573 1.325 4.09357 1.14701 5.25614L0.0256554 12.9029C-0.08114 13.5743 0.15025 14.2456 0.630829 14.7532C1.11141 15.2608 1.80558 15.5556 2.55315 15.5556H11.4528C12.1825 15.5556 12.8945 15.2608 13.3751 14.7532C13.8557 14.2456 14.0693 13.5743 13.9803 12.9029ZM5.57902 2.57076C5.57902 1.85029 6.21979 1.26082 7.00295 1.26082C7.78612 1.26082 8.42689 1.85029 8.42689 2.57076V3.22573H5.57902V2.57076ZM12.3427 13.9345C12.1113 14.1801 11.7909 14.3111 11.4528 14.3111H2.55315C2.19716 14.3111 1.89457 14.1801 1.66318 13.9345C1.43179 13.6889 1.325 13.3778 1.3784 13.0667L2.49975 5.41988C2.57095 4.87953 3.08712 4.47018 3.6745 4.47018H4.20848V6.30409C4.20848 6.64795 4.51106 6.92632 4.88485 6.92632C5.25863 6.92632 5.57902 6.63158 5.57902 6.28772V4.4538H8.42689V6.28772C8.42689 6.63158 8.72948 6.90994 9.10326 6.90994C9.47705 6.90994 9.77964 6.63158 9.77964 6.28772V4.4538H10.3136C10.901 4.4538 11.4172 4.86316 11.4884 5.40351L12.6097 13.0503C12.6809 13.3778 12.5741 13.6889 12.3427 13.9345Z" fill="#666666"/>
</svg>
