<svg width="18" height="18" viewBox="0 0 18 18" fill="none" xmlns="http://www.w3.org/2000/svg">
<path d="M13 15.75V14.25C13 13.4544 12.6839 12.6913 12.1213 12.1287C11.5587 11.5661 10.7956 11.25 10 11.25H4.75C3.95435 11.25 3.19129 11.5661 2.62868 12.1287C2.06607 12.6913 1.75 13.4544 1.75 14.25V15.75" stroke="#666666" stroke-width="1.5" stroke-linecap="round" stroke-linejoin="round"/>
<path d="M7.375 8.25C9.03185 8.25 10.375 6.90685 10.375 5.25C10.375 3.59315 9.03185 2.25 7.375 2.25C5.71815 2.25 4.375 3.59315 4.375 5.25C4.375 6.90685 5.71815 8.25 7.375 8.25Z" stroke="#666666" stroke-width="1.5" stroke-linecap="round" stroke-linejoin="round"/>
<path d="M15 6V10.5" stroke="#666666" stroke-width="1.5" stroke-linecap="round" stroke-linejoin="round"/>
<path d="M17.25 8.25H12.75" stroke="#666666" stroke-width="1.5" stroke-linecap="round" stroke-linejoin="round"/>
</svg>
