<svg width="15" height="13" viewBox="0 0 15 13" fill="none" xmlns="http://www.w3.org/2000/svg">
<path d="M13.5541 1H10.8232C9.52733 1 8.37085 1.36066 7.74384 1.971L7.50697 2.19294L7.25616 1.971C6.62915 1.36066 5.47267 1 4.17685 1H1.44587C1.19507 1 1 1.1942 1 1.44388V10.3909C1 10.6406 1.19507 10.8348 1.44587 10.8348H4.17685C5.22186 10.8348 6.48982 11.2648 7.00536 11.8058C7.13076 11.9306 7.29796 12 7.46517 12H7.54877C7.71597 12 7.88317 11.9306 7.99464 11.8058C8.51018 11.2648 9.77813 10.8348 10.8232 10.8348H13.5541C13.8049 10.8348 14 10.6406 14 10.3909V1.44388C13.9861 1.1942 13.791 1 13.5541 1ZM7.24223 11.2093L6.72669 10.918C6.05788 10.5296 5.1522 10.3216 4.16292 10.3216H1.48767V1.4855H4.17685C6.01608 1.4855 7.25616 2.2623 7.25616 2.99748V11.2093H7.24223ZM13.4984 10.3216H10.8232C9.83387 10.3216 8.92819 10.5296 8.25938 10.918L7.74384 11.2093V2.99748C7.74384 2.27617 8.98392 1.4855 10.8232 1.4855H13.5123V10.3216H13.4984Z" fill="#FA5C5D" stroke="#FA5C5D" stroke-width="0.25"/>
</svg>
