<svg width="15" height="13" viewBox="0 0 15 13" fill="none" xmlns="http://www.w3.org/2000/svg">
<path d="M13.5541 1H10.8232C9.52733 1 8.37085 1.37495 7.74384 2.00949L7.50697 2.24023L7.25616 2.00949C6.62915 1.37495 5.47267 1 4.17685 1H1.44587C1.19507 1 1 1.2019 1 1.46148V10.7632C1 11.0228 1.19507 11.2246 1.44587 11.2246H4.17685C5.22186 11.2246 6.48982 11.6717 7.00536 12.2341C7.13076 12.3639 7.29796 12.436 7.46517 12.436H7.54877C7.71597 12.436 7.88317 12.3639 7.99464 12.2341C8.51018 11.6717 9.77813 11.2246 10.8232 11.2246H13.5541C13.8049 11.2246 14 11.0228 14 10.7632V1.46148C13.9861 1.2019 13.791 1 13.5541 1ZM7.24223 11.614L6.72669 11.3112C6.05788 10.9074 5.1522 10.6911 4.16292 10.6911H1.48767V1.50474H4.17685C6.01608 1.50474 7.25616 2.31233 7.25616 3.07666V11.614H7.24223ZM13.4984 10.6911H10.8232C9.83387 10.6911 8.92819 10.9074 8.25938 11.3112L7.74384 11.614V3.07666C7.74384 2.32675 8.98392 1.50474 10.8232 1.50474H13.5123V10.6911H13.4984Z" fill="#808080" stroke="#808080" stroke-width="0.25"/>
</svg>
