<svg width="10" height="14" viewBox="0 0 10 14" fill="none" xmlns="http://www.w3.org/2000/svg">
<path d="M4.99966 0C2.43845 0 0.333008 1.99724 0.333008 4.84614C0.333008 5.86282 0.572484 6.57005 1.0173 7.35335L4.68555 13.8149C4.71661 13.871 4.76212 13.9177 4.81735 13.9503C4.87259 13.9828 4.93554 14 4.99966 14C5.06378 14 5.12672 13.9828 5.18196 13.9503C5.2372 13.9177 5.28271 13.871 5.31376 13.8149L8.98201 7.35335C9.42684 6.57003 9.6663 5.8628 9.6663 4.84614C9.6663 1.99724 7.56086 0 4.99966 0ZM4.99966 2.51281C6.18919 2.51281 7.15349 3.47712 7.15349 4.66665C7.15349 5.85616 6.18919 6.82049 4.99966 6.82049C3.81012 6.82049 2.84582 5.85616 2.84582 4.66665C2.84582 3.47712 3.81012 2.51281 4.99966 2.51281Z" fill="#999999"/>
</svg>
