<svg width="32" height="35" viewBox="0 0 32 35" fill="none" xmlns="http://www.w3.org/2000/svg">
<path d="M31.9545 9.56253C31.9545 9.19297 31.796 8.8465 31.5695 8.59242C31.4789 8.47693 31.3431 8.40764 31.2298 8.33834C31.026 8.22285 30.7995 8.13046 30.5504 8.13046C30.3013 8.13046 30.0748 8.22285 29.871 8.33834C29.7351 8.40764 29.6219 8.50003 29.5313 8.59242C29.3048 8.8465 29.1463 9.19297 29.1463 9.56253C29.1463 9.60873 29.1463 9.72422 29.1463 9.72422V24.0449L15.9885 31.8058L2.83067 24.0449V9.72422C2.83067 9.72422 2.83067 9.60873 2.83067 9.56253C2.83067 9.19297 2.67214 8.8465 2.44567 8.59242C2.35509 8.47693 2.21921 8.40764 2.10597 8.33834C1.90215 8.22285 1.67568 8.13046 1.42657 8.13046C1.17745 8.13046 0.950982 8.22285 0.74716 8.33834C0.611279 8.40764 0.498045 8.50003 0.407457 8.59242C0.180989 8.8465 0.0224609 9.19297 0.0224609 9.56253C0.0224609 9.60873 0.0224609 9.70112 0.0224609 9.72422V9.74732V24.068V24.5069C0.0224609 25.1536 0.362164 25.7542 0.905688 26.0545L15.1279 34.439C15.3997 34.6007 15.6941 34.67 16.0111 34.67C16.3055 34.67 16.6226 34.6007 16.8944 34.439L31.1166 26.0545C31.6601 25.7311 31.9998 25.1305 31.9998 24.5069V24.068V9.74732L31.9545 9.56253Z" fill="#1B1918"/>
<path d="M17.3707 17.9471C17.3707 17.5775 17.2122 17.2311 16.9857 16.977C16.8951 16.8615 16.7592 16.7922 16.646 16.7229C16.4422 16.6074 16.2157 16.515 15.9666 16.515C15.7175 16.515 15.491 16.6074 15.2872 16.7229C15.1513 16.7922 15.0381 16.8846 14.9475 16.977C14.721 17.2311 14.5625 17.5775 14.5625 17.9471C14.5625 17.9933 14.5625 18.1088 14.5625 18.1088V32.4295L15.9666 32.6605L17.3707 32.4295V18.1088C17.3707 18.1088 17.3707 17.9933 17.3707 17.9471Z" fill="#1B1918"/>
<path d="M31.9547 9.56254C31.9547 8.77722 31.3432 8.10737 30.5506 8.10737C30.3241 8.10737 30.1203 8.17667 29.9391 8.26906V8.24596L15.7622 16.5381L11.414 13.9281L19.4989 9.14678C19.5442 9.12368 19.5669 9.10058 19.6122 9.07749L19.6801 9.03129C20.0878 8.77721 20.3822 8.33835 20.4048 7.8302C20.4048 7.04487 19.7933 6.37503 19.0007 6.37503C18.7742 6.37503 18.5704 6.44432 18.3892 6.53671V6.51362L8.56051 12.2188L4.21231 9.60874L15.8075 2.77175C15.8528 2.74865 15.8754 2.72556 15.9207 2.70246L15.9887 2.65626C16.3963 2.40218 16.6907 1.96332 16.7134 1.45517C16.7134 0.66984 16.1019 0 15.3093 0C15.0828 0 14.879 0.0692938 14.6978 0.161686V0.138588L0.656759 8.33835L0.679406 8.36145C0.271762 8.61553 0 9.03129 0 9.53945C0 10.0014 0.226469 10.3941 0.543524 10.6712L9.01345 15.6835V15.7066H9.03609L15.0828 19.2868C15.6263 19.6101 16.3057 19.6101 16.8493 19.2868L31.0715 10.9022C31.1168 10.8791 31.1394 10.856 31.1847 10.8329L31.2527 10.7867C31.6603 10.5327 31.9547 10.0938 31.9547 9.56254Z" fill="#E3001C"/>
</svg>
