<svg width="190" height="26" viewBox="0 0 190 26" fill="none" xmlns="http://www.w3.org/2000/svg">
<path fill-rule="evenodd" clip-rule="evenodd" d="M149.674 9.73487C149.674 7.48303 147.823 5.6296 145.574 5.6296H138.655C138.049 5.6296 137.582 6.09729 137.582 6.70355V19.2445C137.582 19.8508 138.049 20.3185 138.655 20.3185H146.007C148.256 20.3185 150.107 18.465 150.107 16.2132C150.107 14.7409 149.242 13.4071 147.944 12.7489C149.034 12.1079 149.674 11.034 149.674 9.73487ZM145.747 13.8401C146.958 13.8401 147.944 14.8448 147.944 16.04C147.944 17.2525 146.941 18.2399 145.747 18.2399H139.744V13.8401H145.747ZM139.744 11.7615V7.69089H145.315C146.526 7.69089 147.512 8.55698 147.512 9.76951C147.512 10.982 146.526 11.7615 145.315 11.7615H139.744ZM155.297 12.974C155.297 17.1659 158.67 20.5437 162.857 20.5437C167.043 20.5437 170.416 17.1659 170.416 12.974C170.416 8.78217 167.043 5.40442 162.857 5.40442C158.67 5.40442 155.297 8.78217 155.297 12.974ZM157.459 12.974C157.459 9.99469 159.881 7.56964 162.857 7.56964C165.832 7.56964 168.254 9.99469 168.254 12.974C168.254 15.9534 165.832 18.3784 162.857 18.3784C159.881 18.3784 157.459 15.9534 157.459 12.974ZM175.087 7.39642C174.862 7.17124 174.741 6.92874 174.741 6.61694C174.741 6.01068 175.208 5.54299 175.814 5.54299C176.246 5.54299 176.454 5.66425 176.886 6.09729L182.37 11.467L187.854 6.09729C188.287 5.66425 188.494 5.54299 188.927 5.54299C189.532 5.54299 189.999 6.01068 189.999 6.61694C189.999 6.92874 189.861 7.17124 189.653 7.39642L183.91 12.974L189.653 18.5517C189.861 18.7768 189.999 19.0193 189.999 19.3311C189.999 19.9374 189.532 20.4051 188.927 20.4051C188.494 20.4051 188.269 20.2665 187.854 19.8508L182.37 14.533L176.886 19.8508C176.454 20.2838 176.246 20.4051 175.814 20.4051C175.208 20.4051 174.741 19.9374 174.741 19.3311C174.741 19.0193 174.862 18.7768 175.087 18.5517L180.831 12.974L175.087 7.39642Z" fill="#E3001C"/>
<path fill-rule="evenodd" clip-rule="evenodd" d="M40.8617 18.2572V13.8401H47.989C48.5945 13.8401 49.0616 13.4071 49.0616 12.8008C49.0616 12.1946 48.5945 11.7615 47.989 11.7615H40.8617V7.69089H50.1515C50.7569 7.69089 51.224 7.25785 51.224 6.65159C51.224 6.04533 50.7569 5.61228 50.1515 5.61228H39.7718C39.1663 5.61228 38.6992 6.07997 38.6992 6.68623V19.2272C38.6992 19.8335 39.1663 20.3012 39.7718 20.3012H50.1515C50.7569 20.3012 51.224 19.8681 51.224 19.2618C51.224 18.6556 50.7569 18.2225 50.1515 18.2225H40.8617V18.2572ZM87.0166 19.3311C87.0166 19.9374 87.4837 20.4051 88.0892 20.4051C88.6947 20.4051 89.1618 19.9374 89.1618 19.3311V6.61694C89.1618 6.01068 88.6947 5.54299 88.0892 5.54299C87.4837 5.54299 87.0166 6.01068 87.0166 6.61694V11.5537H77.0694V6.61694C77.0694 6.01068 76.6023 5.54299 75.9796 5.54299C75.3741 5.54299 74.907 6.01068 74.907 6.61694V19.3311C74.907 19.9374 75.3741 20.4051 75.9796 20.4051C76.585 20.4051 77.0694 19.9374 77.0694 19.3311V13.6149H87.0166V19.3311ZM96.0988 12.974C96.0988 17.1659 99.4722 20.5437 103.659 20.5437C107.845 20.5437 111.219 17.1659 111.219 12.974C111.219 8.78217 107.845 5.40442 103.659 5.40442C99.4722 5.40442 96.0988 8.78217 96.0988 12.974ZM98.2613 12.974C98.2613 9.99469 100.683 7.56964 103.659 7.56964C106.634 7.56964 109.056 9.99469 109.056 12.974C109.056 15.9534 106.634 18.3784 103.659 18.3784C100.683 18.3784 98.2613 15.9534 98.2613 12.974ZM125.958 7.69089C127.463 7.69089 128.501 8.93806 128.501 10.3238C128.501 11.7095 127.463 12.9567 125.958 12.9567H120.301V7.69089H125.958ZM119.211 5.61228C118.605 5.61228 118.138 6.07997 118.138 6.68623V19.3138C118.138 19.9201 118.605 20.3878 119.211 20.3878C119.816 20.3878 120.283 19.9547 120.283 19.3485V15.018H125.94C128.535 15.018 130.646 12.9048 130.646 10.3065C130.646 7.70822 128.535 5.59496 125.94 5.59496H119.211V5.61228Z" fill="#1B1918"/>
<path d="M63.8691 11.8481C61.7932 10.9127 60.5303 10.2545 60.6687 8.86874C60.7552 7.58693 62.3468 7.20585 63.6615 7.27514C64.4573 7.3271 65.1666 7.60425 65.6683 8.03729C66.0143 8.40105 66.637 8.47034 67.1733 8.15855C67.3982 7.98533 67.5366 7.76014 67.5712 7.50032C67.5885 7.24049 67.4847 6.98066 67.2771 6.7728C66.3776 5.95868 65.1493 5.49099 63.8518 5.4217C60.7379 5.24849 58.6793 6.56494 58.4717 8.85142C58.2468 11.467 60.5995 12.5236 62.6928 13.459C64.7514 14.3771 65.9797 15.018 65.8759 16.3171C65.7548 17.6855 64.3362 18.5516 62.4333 18.4477C61.5856 18.413 60.7552 18.1013 60.1843 17.5989C59.8384 17.2178 59.1983 17.1659 58.7312 17.4777C58.489 17.6336 58.3506 17.8587 58.316 18.1013C58.2814 18.3611 58.3679 18.6382 58.5755 18.8461L58.6101 18.8807C59.5789 19.7468 60.9282 20.2665 62.2949 20.3358C62.4679 20.3531 62.6409 20.3531 62.8139 20.3531C65.7375 20.3531 67.8826 18.8114 68.0902 16.4903C68.2978 13.8228 65.9451 12.7661 63.8691 11.8481Z" fill="#1B1918"/>
<path d="M24.4098 7.17124C24.4098 6.89409 24.2887 6.63427 24.1157 6.44373C24.0465 6.35712 23.9427 6.30515 23.8562 6.25319C23.7005 6.16658 23.5275 6.09729 23.3373 6.09729C23.147 6.09729 22.974 6.16658 22.8183 6.25319C22.7145 6.30515 22.628 6.37444 22.5588 6.44373C22.3858 6.63427 22.2647 6.89409 22.2647 7.17124C22.2647 7.20588 22.2647 7.29249 22.2647 7.29249V18.032L12.2137 23.8521L2.16271 18.032V7.29249C2.16271 7.29249 2.16271 7.20588 2.16271 7.17124C2.16271 6.89409 2.04162 6.63427 1.86862 6.44373C1.79942 6.35712 1.69563 6.30515 1.60913 6.25319C1.45343 6.16658 1.28044 6.09729 1.09014 6.09729C0.899851 6.09729 0.726856 6.16658 0.571161 6.25319C0.467364 6.30515 0.380867 6.37444 0.311669 6.44373C0.138674 6.63427 0.0175781 6.89409 0.0175781 7.17124C0.0175781 7.20588 0.0175781 7.27517 0.0175781 7.29249V7.30981V18.0493V18.3784C0.0175781 18.8634 0.27707 19.3138 0.692257 19.539L11.5563 25.8268C11.7639 25.9481 11.9888 26 12.231 26C12.4559 26 12.6981 25.9481 12.9057 25.8268L23.7697 19.539C24.1849 19.2965 24.4444 18.8461 24.4444 18.3784V18.0493V7.30981L24.4098 7.17124Z" fill="#1B1918"/>
<path d="M13.2682 13.459C13.2682 13.1819 13.1471 12.922 12.9741 12.7315C12.9049 12.6449 12.8011 12.5929 12.7146 12.541C12.5589 12.4544 12.3859 12.3851 12.1956 12.3851C12.0053 12.3851 11.8323 12.4544 11.6766 12.541C11.5728 12.5929 11.4863 12.6622 11.4171 12.7315C11.2441 12.922 11.123 13.1819 11.123 13.459C11.123 13.4937 11.123 13.5803 11.123 13.5803V24.3198L12.1956 24.493L13.2682 24.3198V13.5803C13.2682 13.5803 13.2682 13.4937 13.2682 13.459Z" fill="#1B1918"/>
<path d="M24.4095 7.17122C24.4095 6.58228 23.9425 6.07995 23.337 6.07995C23.164 6.07995 23.0083 6.13191 22.8699 6.2012V6.18388L12.0404 12.4024L8.71893 10.445L14.8948 6.85943C14.9294 6.8421 14.9467 6.82478 14.9813 6.80746L15.0332 6.77282C15.3446 6.58228 15.5695 6.25316 15.5868 5.87209C15.5868 5.28314 15.1197 4.78081 14.5142 4.78081C14.3413 4.78081 14.1856 4.83278 14.0472 4.90206V4.88474L6.5392 9.16322L3.2177 7.20586L12.075 2.07861C12.1096 2.06129 12.1269 2.04397 12.1615 2.02665L12.2134 1.99201C12.5248 1.80147 12.7497 1.47235 12.767 1.09127C12.767 0.502332 12.2999 0 11.6944 0C11.5214 0 11.3657 0.0519654 11.2274 0.121252V0.103931L0.501684 6.25316L0.518984 6.27049C0.207594 6.46103 0 6.77282 0 7.1539C0 7.50033 0.172995 7.7948 0.415187 8.00266L6.88519 11.7615V11.7788H6.90249L11.5214 14.4637C11.9366 14.7062 12.4556 14.7062 12.8708 14.4637L23.7349 8.17588C23.7695 8.15856 23.7868 8.14124 23.8214 8.12392L23.8733 8.08927C24.1846 7.89873 24.4095 7.56962 24.4095 7.17122Z" fill="#E3001C"/>
</svg>
