<svg width="59" height="47" viewBox="0 0 59 47" fill="none" xmlns="http://www.w3.org/2000/svg">
<path d="M20.5288 41.9403C20.5288 39.2963 22.6544 37.1706 25.2984 37.1706C27.9402 37.1706 30.0681 39.355 30.0681 41.9403C30.0681 44.5843 27.9424 46.7099 25.2984 46.7099C22.6544 46.7099 20.5288 44.5843 20.5288 41.9403ZM22.57 41.9403C22.57 43.4416 23.7972 44.6687 25.2984 44.6687C26.7997 44.6687 28.0268 43.4416 28.0268 41.9403C28.0268 40.439 26.7997 39.2119 25.2984 39.2119C23.7972 39.2119 22.57 40.439 22.57 41.9403Z" fill="#808080" stroke="white" stroke-width="0.58"/>
<path d="M40.4013 41.9403C40.4013 39.2963 42.527 37.1706 45.171 37.1706C47.8127 37.1706 49.9407 39.355 49.9407 41.9403C49.9407 44.5843 47.815 46.7099 45.171 46.7099C42.527 46.7099 40.4013 44.5843 40.4013 41.9403ZM42.4426 41.9403C42.4426 43.4416 43.6697 44.6687 45.171 44.6687C46.6723 44.6687 47.8994 43.4416 47.8994 41.9403C47.8994 40.439 46.6723 39.2119 45.171 39.2119C43.6697 39.2119 42.4426 40.439 42.4426 41.9403Z" fill="#808080" stroke="white" stroke-width="0.58"/>
<path d="M19.2354 32.4053L10.7141 2.76329V2.68223V2.39223H10.4241H1.34112C0.76976 2.39223 0.29 1.91247 0.29 1.34112C0.29 0.769761 0.769761 0.29 1.34112 0.29H11.3385C11.8003 0.29 12.19 0.612909 12.3418 1.0619L15.9977 13.6748L16.0587 13.885L16.2776 13.884L56.7536 13.7012C56.7538 13.7012 56.754 13.7012 56.7542 13.7012C57.078 13.7013 57.3592 13.8314 57.6149 14.1893L57.6195 14.1957L57.6244 14.2019C57.7973 14.418 57.8564 14.7413 57.7557 15.0965L52.3932 32.4637C52.2487 32.8933 51.8717 33.1769 51.3891 33.1769H20.2386C19.777 33.1769 19.3873 32.8542 19.2354 32.4053ZM52.5397 16.3244L53.2308 15.8002L52.3634 15.8034L19.2622 15.9253L18.4203 15.9284L19.0855 16.4444L32.1309 26.5638L32.2594 26.6634L32.4115 26.6058L45.2243 21.7478H45.2244H45.2247H45.225H45.2253H45.2256H45.2259H45.2262H45.2265H45.2268H45.2271H45.2275H45.2278H45.2281H45.2284H45.2287H45.229H45.2293H45.2296H45.2299H45.2302H45.2305H45.2309H45.2312H45.2315H45.2318H45.2321H45.2324H45.2327H45.233H45.2334H45.2337H45.234H45.2343H45.2346H45.235H45.2353H45.2356H45.2359H45.2362H45.2365H45.2369H45.2372H45.2375H45.2378H45.2382H45.2385H45.2388H45.2391H45.2394H45.2398H45.2401H45.2404H45.2407H45.2411H45.2414H45.2417H45.2421H45.2424H45.2427H45.243H45.2434H45.2437H45.244H45.2444H45.2447H45.245H45.2454H45.2457H45.246H45.2464H45.2467H45.247H45.2474H45.2477H45.248H45.2484H45.2487H45.249H45.2494H45.2497H45.25H45.2504H45.2507H45.251H45.2514H45.2517H45.2521H45.2524H45.2527H45.2531H45.2534H45.2538H45.2541H45.2544H45.2548H45.2551H45.2555H45.2558H45.2561H45.2565H45.2568H45.2572H45.2575H45.2579H45.2582H45.2585H45.2589H45.2592H45.2596H45.2599H45.2603H45.2606H45.261H45.2613H45.2617H45.262H45.2623H45.2627H45.263H45.2634H45.2637H45.2641H45.2644H45.2648H45.2651H45.2655H45.2658H45.2662H45.2665H45.2669H45.2672H45.2676H45.2679H45.2683H45.2686H45.269H45.2693H45.2697H45.27H45.2704H45.2707H45.2711H45.2714H45.2718H45.2721H45.2725H45.2728H45.2732H45.2736H45.2739H45.2743H45.2746H45.275H45.2753H45.2757H45.276H45.2764H45.2767H45.2771H45.2774H45.2778H45.2782H45.2785H45.2789H45.2792H45.2796H45.2799H45.2803H45.2806H45.281H45.2813H45.2817H45.2821H45.2824H45.2828H45.2831H45.2835H45.2838H45.2842H45.2846H45.2849H45.2853H45.2856H45.286H45.2863H45.2867H45.2871H45.2874H45.2878H45.2881H45.2885H45.2888H45.2892H45.2896H45.2899H45.2903H45.2906H45.291H45.2913H45.2917H45.292H45.2924H45.2928H45.2931H45.3907L45.4684 21.6889L52.5397 16.3244ZM17.7953 18.059L17.0971 17.5163L17.3384 18.3671L20.8131 30.62L20.899 30.923L21.1939 30.8124L29.4844 27.7034L29.9702 27.5213L29.5606 27.2029L17.7953 18.059ZM27.5733 30.5134L27.6757 31.0747H49.4384H49.9761L49.6807 30.6254L45.3526 24.0417L45.225 23.8477L45.0078 23.9297L27.5733 30.5134ZM50.7809 28.9931L51.1189 29.5081L51.3005 28.9195L54.8361 17.459L55.1023 16.5961L54.3835 17.1427L47.0074 22.751L46.792 22.9147L46.9404 23.141L50.7809 28.9931Z" fill="#808080" stroke="white" stroke-width="0.58"/>
</svg>
