<svg width="17" height="15" viewBox="0 0 17 15" fill="none" xmlns="http://www.w3.org/2000/svg">
<path d="M3.4747 11.5006H9.85754L13.5044 13.9485C13.5552 13.9827 13.6142 14 13.6732 14C13.722 14 13.771 13.9882 13.8157 13.9643C13.9145 13.9117 13.9762 13.8089 13.9762 13.697V11.4821C15.1984 11.3324 16.1479 10.2879 16.1479 9.02589V3.4747C16.1479 2.11021 15.0377 1 13.6732 1H3.4747C2.11021 1 1 2.11021 1 3.4747V9.02589C1 10.3904 2.11021 11.5006 3.4747 11.5006ZM1.60592 3.4747C1.60592 2.44423 2.44423 1.60592 3.4747 1.60592H13.6732C14.7037 1.60592 15.542 2.44423 15.542 3.4747V9.02589C15.542 10.0564 14.7037 10.8947 13.6732 10.8947C13.5059 10.8947 13.3703 11.0303 13.3703 11.1976V13.1288L10.1186 10.9462C10.0688 10.9126 10.0101 10.8947 9.94985 10.8947H3.4747C2.44423 10.8947 1.60592 10.0564 1.60592 9.02589V3.4747Z" fill="black" stroke="black" stroke-width="0.1"/>
<path d="M4.66739 7.02588C5.24875 7.02588 5.72168 6.55295 5.72168 5.97159C5.72168 5.39023 5.24875 4.9173 4.66739 4.9173C4.08603 4.9173 3.6131 5.39023 3.6131 5.97159C3.6131 6.55295 4.08603 7.02588 4.66739 7.02588ZM4.66739 5.52321C4.91458 5.52321 5.11576 5.7244 5.11576 5.97159C5.11576 6.21878 4.91458 6.41996 4.66739 6.41996C4.4202 6.41996 4.21902 6.21878 4.21902 5.97159C4.21902 5.7244 4.4202 5.52321 4.66739 5.52321Z" fill="black" stroke="black" stroke-width="0.1"/>
<path d="M8.57248 7.02588C9.15384 7.02588 9.62677 6.55295 9.62677 5.97159C9.62677 5.39023 9.15384 4.9173 8.57248 4.9173C7.99112 4.9173 7.51819 5.39023 7.51819 5.97159C7.51819 6.55295 7.99112 7.02588 8.57248 7.02588ZM8.57248 5.52321C8.81967 5.52321 9.02085 5.7244 9.02085 5.97159C9.02085 6.21878 8.81967 6.41996 8.57248 6.41996C8.32529 6.41996 8.12411 6.21878 8.12411 5.97159C8.12411 5.7244 8.32529 5.52321 8.57248 5.52321Z" fill="black" stroke="black" stroke-width="0.1"/>
<path d="M12.4805 7.02588C13.0619 7.02588 13.5348 6.55295 13.5348 5.97159C13.5348 5.39023 13.0619 4.9173 12.4805 4.9173C11.8991 4.9173 11.4262 5.39023 11.4262 5.97159C11.4262 6.55295 11.8991 7.02588 12.4805 7.02588ZM12.4805 5.52321C12.7277 5.52321 12.9289 5.7244 12.9289 5.97159C12.9289 6.21878 12.7277 6.41996 12.4805 6.41996C12.2333 6.41996 12.0321 6.21878 12.0321 5.97159C12.0321 5.7244 12.2333 5.52321 12.4805 5.52321Z" fill="black" stroke="black" stroke-width="0.1"/>
</svg>
