<svg width="51" height="47" viewBox="0 0 51 47" fill="none" xmlns="http://www.w3.org/2000/svg">
<path d="M47.8393 16.7857H49.5179V11.75H37.7679V4.19643C37.7679 3.20961 36.7667 2.43385 36.0893 2.02609V0H34.4107V2.02609C33.7333 2.43713 32.7321 3.20961 32.7321 4.19643V5.875H26.0179V2.51786H24.3393V5.875H17.625V4.19643C17.625 3.20961 16.6238 2.43385 15.9464 2.02609V0H14.2679V2.02609C13.5904 2.43713 12.5893 3.20961 12.5893 4.19643V11.75H0.839286V16.7857H2.51786V21.8214H0V26.8571H2.51786V40.2857H0V47H50.3571V40.2857H47.8393V26.8571H50.3571V21.8214H47.8393V16.7857ZM37.7679 13.4286H47.8393V15.1071H37.7679V13.4286ZM37.7679 16.7857H46.1607V21.8214H37.7679V16.7857ZM37.7679 26.8571H46.1607V40.2857H44.4821V36.0893C44.4821 34.6988 43.3548 33.5714 41.9643 33.5714C40.5738 33.5714 39.4464 34.6988 39.4464 36.0893V40.2857H37.7679V26.8571ZM42.8036 36.0893V40.2857H41.125V36.0893C41.125 35.6258 41.5008 35.25 41.9643 35.25C42.4278 35.25 42.8036 35.6258 42.8036 36.0893ZM35.25 3.48213C35.5758 3.65999 35.8618 3.90301 36.0893 4.19643V6.71429H34.4107V4.23331C34.6279 3.92063 34.9152 3.66368 35.25 3.48213ZM34.4107 18.4643V15.9464H36.0893V18.4643H34.4107ZM36.0893 20.1429V40.2857H34.4107V20.1429H36.0893ZM34.4107 14.2679V12.5893H36.0893V14.2679H34.4107ZM34.4107 10.9107V8.39286H36.0893V10.9107H34.4107ZM17.625 7.55357H32.7321V9.23214H17.625V7.55357ZM17.625 10.9107H32.7321V15.9464H17.625V10.9107ZM32.7321 17.625V20.9821H31.0536V17.625H32.7321ZM29.375 17.625V20.9821H27.6964V17.625H29.375ZM26.0179 17.625V20.9821H24.3393V17.625H26.0179ZM22.6607 17.625V20.9821H20.9821V17.625H22.6607ZM17.625 17.625H19.3036V20.9821H17.625V17.625ZM15.1071 3.48213C15.4329 3.65999 15.719 3.90301 15.9464 4.19643V6.71429H14.2679V4.23331C14.4851 3.92063 14.7723 3.66368 15.1071 3.48213ZM14.2679 18.4643V15.9464H15.9464V18.4643H14.2679ZM15.9464 20.1429V40.2857H14.2679V20.1429H15.9464ZM14.2679 14.2679V12.5893H15.9464V14.2679H14.2679ZM14.2679 10.9107V8.39286H15.9464V10.9107H14.2679ZM2.51786 13.4286H12.5893V15.1071H2.51786V13.4286ZM12.5893 16.7857V21.8214H4.19643V16.7857H12.5893ZM1.67857 25.1786V23.5H12.5893V25.1786H1.67857ZM8.39286 33.5714C7.00238 33.5714 5.875 34.6988 5.875 36.0893V40.2857H4.19643V26.8571H12.5893V40.2857H10.9107V36.0893C10.9107 34.6988 9.78333 33.5714 8.39286 33.5714ZM9.23214 36.0893V40.2857H7.55357V36.0893C7.55357 35.6258 7.92937 35.25 8.39286 35.25C8.85635 35.25 9.23214 35.6258 9.23214 36.0893ZM20.1429 45.3214H1.67857V41.9643H20.1429V45.3214ZM28.5357 45.3214H21.8214V41.9643H28.5357V45.3214ZM28.5357 40.2857H21.8214V30.2143C21.8214 29.5639 23.5127 28.0784 25.1786 27.0067C26.8444 28.0784 28.5357 29.5639 28.5357 30.2143V40.2857ZM25.6109 25.2986L25.1786 25.0392L24.7462 25.2986C23.668 25.9466 20.1429 28.2161 20.1429 30.2143V40.2857H17.625V22.6607H32.7321V40.2857H30.2143V30.2143C30.2143 28.2161 26.6891 25.9466 25.6109 25.2986ZM48.6786 41.9643V45.3214H30.2143V41.9643H48.6786ZM48.6786 23.5V25.1786H37.7679V23.5H48.6786Z" fill="#808080"/>
</svg>
