<svg width="30" height="32" viewBox="0 0 30 32" fill="none" xmlns="http://www.w3.org/2000/svg">
<path d="M27.9653 23.7758C27.316 21.9614 26.9723 20.0699 26.9723 18.1397V13.353C26.9723 6.59744 21.7014 1 14.75 1C7.79862 1 2.52778 6.59744 2.52778 13.353V18.2555C2.52778 20.1085 2.18403 21.9614 1.53472 23.7372L1 25.2041C1 26.3236 1.91667 27.25 3.02431 27.25H26.4757C27.5834 27.25 28.5001 26.3236 28.5001 25.2041L27.9653 23.7758Z" stroke="#333333" stroke-width="1.5" stroke-miterlimit="10"/>
<path d="M22.25 11C21.9 10.4619 21.55 9.92382 21.1563 9.42713M17.7438 6.48838C16.475 5.70196 15.0313 5.12249 13.5 4.74997L17.7438 6.48838Z" stroke="#333333" stroke-width="1.5" stroke-miterlimit="10" stroke-linecap="round"/>
<path d="M18.5 27.2501C18.5 29.3126 16.8125 31.0001 14.75 31.0001C12.6875 31.0001 11 29.3126 11 27.2501" stroke="#333333" stroke-width="1.5" stroke-miterlimit="10"/>
</svg>
