<svg width="30" height="36" viewBox="0 0 30 36" fill="none" xmlns="http://www.w3.org/2000/svg">
<path d="M20.2998 1.10095L20.2998 1.10093C20.205 1.00439 20.0743 0.95 19.9381 0.95H3.52541C2.08186 0.95 0.95 2.0781 0.95 3.51746V31.5637C0.95 33.0366 2.08072 34.1928 3.52541 34.1928H24.5765C26.0453 34.1928 27.288 32.9909 27.2881 31.5637V8.42548C27.2881 8.29714 27.2373 8.17389 27.1472 8.08172L27.1471 8.08166L20.2998 1.10095ZM1.95531 3.51746C1.95531 2.61662 2.6296 1.93953 3.52541 1.93953H19.7246L26.2828 8.62528V31.5637C26.2828 32.4342 25.4863 33.2033 24.5765 33.2033H3.52541C2.64659 33.2033 1.95531 32.4854 1.95531 31.5637V3.51746Z" fill="#333333" stroke="#333333" stroke-width="0.1"/>
<path d="M22.0786 8.95123H26.785C27.0618 8.95123 27.2877 8.7307 27.2877 8.45642C27.2877 8.18214 27.0618 7.96166 26.785 7.96166H22.0786C21.1998 7.96166 20.5085 7.24378 20.5085 6.32209V1.44489C20.5085 1.17061 20.2825 0.950122 20.0058 0.950122C19.7291 0.950122 19.5032 1.17061 19.5032 1.44489V6.32213C19.5032 7.79508 20.6339 8.95123 22.0786 8.95123Z" fill="#333333" stroke="#333333" stroke-width="0.1"/>
<circle cx="23" cy="28.7617" r="6.5" fill="white" stroke="#333333"/>
<path d="M23.4565 28.7617L25.8913 26.3161C26.0217 26.1856 26.0217 25.9791 25.8913 25.8595C25.7609 25.7291 25.5543 25.7291 25.4348 25.8595L23 28.3052L20.5543 25.8595C20.4239 25.7291 20.2174 25.7291 20.0978 25.8595C19.9674 25.99 19.9674 26.1965 20.0978 26.3161L22.5326 28.7617L20.0978 31.2074C19.9674 31.3378 19.9674 31.5443 20.0978 31.6639C20.163 31.7291 20.25 31.7617 20.3261 31.7617C20.4022 31.7617 20.4891 31.7291 20.5543 31.6639L23 29.2182L25.4457 31.6639C25.5109 31.7291 25.5978 31.7617 25.6739 31.7617C25.75 31.7617 25.837 31.7291 25.9022 31.6639C26.0326 31.5335 26.0326 31.3269 25.9022 31.2074L23.4565 28.7617Z" fill="#333333" stroke="#333333" stroke-width="0.3"/>
</svg>
