<svg width="32" height="36" viewBox="0 0 32 36" fill="none" xmlns="http://www.w3.org/2000/svg">
<path d="M22.2998 1.10095L22.2998 1.10093C22.205 1.00439 22.0743 0.95 21.9381 0.95H5.52541C4.08186 0.95 2.95 2.0781 2.95 3.51746V31.5637C2.95 33.0366 4.08072 34.1928 5.52541 34.1928H26.5765C28.0453 34.1928 29.288 32.9909 29.2881 31.5637V8.42548C29.2881 8.29714 29.2373 8.17389 29.1472 8.08172L29.1471 8.08166L22.2998 1.10095ZM3.95531 3.51746C3.95531 2.61662 4.6296 1.93953 5.52541 1.93953H21.7246L28.2828 8.62528V31.5637C28.2828 32.4342 27.4863 33.2033 26.5765 33.2033H5.52541C4.64659 33.2033 3.95531 32.4854 3.95531 31.5637V3.51746Z" fill="#ED2028" stroke="#ED2028" stroke-width="0.1"/>
<path d="M24.0781 8.95111H28.7846C29.0613 8.95111 29.2873 8.73057 29.2873 8.4563C29.2873 8.18202 29.0613 7.96153 28.7846 7.96153H24.0781C23.1993 7.96153 22.508 7.24365 22.508 6.32196V1.44476C22.508 1.17049 22.2821 0.95 22.0054 0.95C21.7287 0.95 21.5027 1.17049 21.5027 1.44476V6.32201C21.5027 7.79496 22.6335 8.95111 24.0781 8.95111Z" fill="#ED2028" stroke="#ED2028" stroke-width="0.1"/>
<circle cx="25" cy="28.7619" r="6.5" fill="white" stroke="#ED2028"/>
<path d="M25.4565 28.7619L27.8913 26.3162C28.0217 26.1858 28.0217 25.9793 27.8913 25.8597C27.7609 25.7293 27.5543 25.7293 27.4348 25.8597L25 28.3054L22.5543 25.8597C22.4239 25.7293 22.2174 25.7293 22.0978 25.8597C21.9674 25.9902 21.9674 26.1967 22.0978 26.3162L24.5326 28.7619L22.0978 31.2076C21.9674 31.338 21.9674 31.5445 22.0978 31.6641C22.163 31.7293 22.25 31.7619 22.3261 31.7619C22.4022 31.7619 22.4891 31.7293 22.5543 31.6641L25 29.2184L27.4457 31.6641C27.5109 31.7293 27.5978 31.7619 27.6739 31.7619C27.75 31.7619 27.837 31.7293 27.9022 31.6641C28.0326 31.5336 28.0326 31.3271 27.9022 31.2076L25.4565 28.7619Z" fill="#ED2028" stroke="#ED2028" stroke-width="0.3"/>
</svg>
