<svg width="30" height="36" viewBox="0 0 30 36" fill="none" xmlns="http://www.w3.org/2000/svg">
<path d="M20.2998 1.10095L20.2998 1.10093C20.205 1.00439 20.0743 0.95 19.9381 0.95H3.52541C2.08186 0.95 0.95 2.0781 0.95 3.51746V31.5637C0.95 33.0366 2.08072 34.1928 3.52541 34.1928H24.5765C26.0453 34.1928 27.288 32.9909 27.2881 31.5637V8.42548C27.2881 8.29714 27.2373 8.17389 27.1472 8.08172L27.1471 8.08166L20.2998 1.10095ZM1.95531 3.51746C1.95531 2.61662 2.6296 1.93953 3.52541 1.93953H19.7246L26.2828 8.62528V31.5637C26.2828 32.4342 25.4863 33.2033 24.5765 33.2033H3.52541C2.64659 33.2033 1.95531 32.4854 1.95531 31.5637V3.51746Z" fill="#333333" stroke="#333333" stroke-width="0.1"/>
<path d="M22.0786 8.95123H26.785C27.0618 8.95123 27.2877 8.7307 27.2877 8.45642C27.2877 8.18214 27.0618 7.96166 26.785 7.96166H22.0786C21.1998 7.96166 20.5085 7.24378 20.5085 6.32209V1.44489C20.5085 1.17061 20.2825 0.950122 20.0058 0.950122C19.7291 0.950122 19.5032 1.17061 19.5032 1.44489V6.32213C19.5032 7.79508 20.6339 8.95123 22.0786 8.95123Z" fill="#333333" stroke="#333333" stroke-width="0.1"/>
<circle cx="23" cy="29" r="6.5" fill="white" stroke="#333333"/>
<path d="M21.7821 30.0209C21.8898 30.1286 22.0631 30.1292 22.1716 30.0227C22.2822 29.9174 22.2823 29.7369 22.1719 29.6315L20.7942 28.2538H25.5169C26.2022 28.2538 26.6296 28.6182 26.8169 29.0842C26.8898 29.2729 26.9292 29.4765 26.9292 29.6793C26.9292 29.882 26.8899 30.0856 26.817 30.2743C26.6294 30.7376 26.2017 31.1049 25.5169 31.1049H21.7389C21.5864 31.1049 21.4629 31.2284 21.4629 31.3809C21.4629 31.5334 21.5864 31.6569 21.7389 31.6569H25.5169C26.4508 31.6569 27.0607 31.142 27.3276 30.4787C27.4316 30.224 27.4813 29.9493 27.4813 29.6793C27.4813 29.4059 27.4316 29.1345 27.3277 28.88C27.0607 28.2167 26.4508 27.7017 25.5169 27.7017H20.7942L22.1733 26.3225C22.2817 26.2142 22.2817 26.0396 22.1733 25.9312C22.065 25.8229 21.8904 25.8229 21.7821 25.9312L19.9312 27.7821C19.8229 27.8904 19.8229 28.065 19.9312 28.1733L19.9313 28.1734L21.7821 30.0209ZM21.7821 30.0209L21.888 29.915L21.7822 30.021L21.7821 30.0209Z" fill="#333333" stroke="#333333" stroke-width="0.3"/>
</svg>
