<svg width="56" height="57" viewBox="0 0 56 57" fill="none" xmlns="http://www.w3.org/2000/svg">
<g opacity="0.3">
<path fill-rule="evenodd" clip-rule="evenodd" d="M40.3535 38.0199L55.1498 52.8163C55.9976 53.664 55.9976 55.0341 55.1499 55.8818C54.7272 56.3045 54.1722 56.517 53.6172 56.517C53.0621 56.517 52.5071 56.3045 52.0844 55.8818L37.288 41.0854C33.7478 43.9515 29.2492 45.6772 24.3496 45.6772C12.9938 45.6772 3.75391 36.4373 3.75391 25.0815C3.75391 13.7256 12.9937 4.48584 24.3495 4.48584C35.7053 4.48584 44.9452 13.7257 44.9452 25.0816C44.9452 29.9811 43.2196 34.4797 40.3535 38.0199ZM8.09075 25.081C8.09075 34.0478 15.3837 41.3408 24.3505 41.3408C33.3171 41.3408 40.6102 34.0478 40.6102 25.081C40.6102 16.1143 33.3172 8.82129 24.3505 8.82129C15.3837 8.82129 8.09075 16.1143 8.09075 25.081Z" fill="#999999"/>
<rect x="42.8699" y="1.58602" width="6.60413" height="59.4718" rx="3.30207" transform="rotate(43.9616 42.8699 1.58602)" fill="#999999" stroke="white" stroke-width="2"/>
</g>
</svg>
