<svg width="18" height="18" viewBox="0 0 18 18" fill="none" xmlns="http://www.w3.org/2000/svg">
<path d="M6.75 16.5C7.16421 16.5 7.5 16.1642 7.5 15.75C7.5 15.3358 7.16421 15 6.75 15C6.33579 15 6 15.3358 6 15.75C6 16.1642 6.33579 16.5 6.75 16.5Z" stroke="#666666" stroke-width="1.5" stroke-linecap="round" stroke-linejoin="round"/>
<path d="M15 16.5C15.4142 16.5 15.75 16.1642 15.75 15.75C15.75 15.3358 15.4142 15 15 15C14.5858 15 14.25 15.3358 14.25 15.75C14.25 16.1642 14.5858 16.5 15 16.5Z" stroke="#666666" stroke-width="1.5" stroke-linecap="round" stroke-linejoin="round"/>
<path d="M0.75 0.75H3.75L5.76 10.7925C5.82858 11.1378 6.01643 11.448 6.29066 11.6687C6.56489 11.8895 6.90802 12.0067 7.26 12H14.55C14.902 12.0067 15.2451 11.8895 15.5193 11.6687C15.7936 11.448 15.9814 11.1378 16.05 10.7925L17.25 4.5H4.5" stroke="#666666" stroke-width="1.5" stroke-linecap="round" stroke-linejoin="round"/>
</svg>
