<svg width="48" height="47" viewBox="0 0 48 47" fill="none" xmlns="http://www.w3.org/2000/svg">
<path d="M22.0746 32.1755C22.0746 31.3727 22.6972 30.7501 23.5 30.7501C24.3007 30.7501 24.9253 31.4183 24.9253 32.1755C24.9253 32.9783 24.3027 33.6009 23.5 33.6009C22.6972 33.6009 22.0746 32.9783 22.0746 32.1755Z" fill="#808080" stroke="white" stroke-width="0.2"/>
<path d="M24.6716 25.5947L24.5912 25.6108V25.6928V27.5995C24.5912 28.1639 24.1116 28.6435 23.5472 28.6435C22.9827 28.6435 22.5031 28.1639 22.5031 27.5995V24.6441C22.5031 24.0796 22.9827 23.6001 23.5472 23.6001C25.7951 23.6001 27.6035 21.7916 27.6035 19.5437C27.6035 17.2958 25.7951 15.4873 23.5472 15.4873C21.2992 15.4873 19.4908 17.2958 19.4908 19.5437C19.4908 20.1081 19.0112 20.5877 18.4468 20.5877C17.8823 20.5877 17.4027 20.1081 17.4027 19.5437C17.4027 16.1669 20.1227 13.4469 23.4995 13.4469C26.8753 13.4469 29.5962 16.2135 29.5962 19.5913C29.5962 22.5458 27.4858 25.0319 24.6716 25.5947Z" fill="#808080" stroke="white" stroke-width="0.2"/>
<path d="M3.33739 35.4448L3.35041 35.4001L3.32458 35.3614L3.23113 35.2212C1.19107 31.6618 0.1 27.6283 0.1 23.5C0.1 10.5897 10.5897 0.1 23.5 0.1C36.4105 0.1 46.9477 10.59 46.9477 23.5C46.9477 36.4103 36.458 46.9 23.5477 46.9C19.4662 46.9 15.4329 45.8561 11.9221 43.8167L11.7816 43.7231L11.7431 43.6974L11.6985 43.7102L4.40542 45.8075L4.40433 45.8079C3.48834 46.0827 2.5258 45.8084 1.88333 45.1669C1.23764 44.4743 0.965962 43.5105 1.2394 42.6447L1.24002 42.6426L3.33739 35.4448ZM12.2471 42.1286C15.5995 44.1876 19.5259 45.2886 23.5 45.2886C35.5199 45.2886 45.2886 35.4719 45.2886 23.5C45.2886 11.4803 35.5197 1.71136 23.5 1.71136C11.4803 1.71136 1.71136 11.4803 1.71136 23.5C1.71136 27.5218 2.81246 31.4484 4.96691 34.8962L5.13547 35.1912L2.81224 43.1091C2.70528 43.4326 2.81209 43.8044 3.02767 44.02C3.24315 44.2355 3.61477 44.3423 3.93813 44.2356L11.9514 41.9596L12.2458 42.1278C12.2463 42.1281 12.2467 42.1283 12.2471 42.1286Z" fill="#808080" stroke="white" stroke-width="0.2"/>
</svg>
