<svg width="51" height="47" viewBox="0 0 51 47" fill="none" xmlns="http://www.w3.org/2000/svg">
<path d="M49.6878 36.377L49.8179 36.4248C49.952 36.4961 50.0694 36.5962 50.1614 36.7185C50.282 36.879 50.3537 37.0709 50.3678 37.2712C50.3818 37.4714 50.3377 37.6715 50.2408 37.8473C50.1438 38.0231 49.9981 38.1671 49.8211 38.2619L49.8203 38.2624L45.9359 40.3647L45.6411 40.5243L45.8781 40.7614L49.6024 44.4856C49.798 44.6812 49.9079 44.9465 49.9079 45.2231C49.9079 45.4997 49.798 45.765 49.6024 45.9606C49.4068 46.1562 49.1415 46.2661 48.8649 46.2661C48.5883 46.2661 48.323 46.1562 48.1274 45.9606L44.4031 42.2364L44.1655 41.9987L44.0062 42.2946L41.9039 46.1997L41.9037 46.2002C41.8148 46.3661 41.6827 46.5048 41.5214 46.6016C41.36 46.6984 41.1754 46.7497 40.9873 46.75H40.904C40.7069 46.7345 40.5183 46.6632 40.3602 46.5445C40.1998 46.424 40.0777 46.2599 40.0084 46.0717L40.0084 46.0716L35.1374 32.8585C35.1374 32.8585 35.1374 32.8585 35.1374 32.8585C35.0687 32.6718 35.0548 32.4694 35.0975 32.2752C35.1402 32.0809 35.2376 31.9029 35.3782 31.7623C35.5189 31.6216 35.6969 31.5242 35.8912 31.4815C36.0854 31.4389 36.2879 31.4527 36.4745 31.5215L36.4747 31.5215L49.6878 36.377ZM42.9846 39.7734C43.0804 39.598 43.2246 39.4539 43.4 39.3582C43.4002 39.3581 43.4005 39.3579 43.4007 39.3578L46.3074 37.7986L46.7977 37.5356L46.2755 37.3437L38.3776 34.4407L37.8684 34.2535L38.0569 34.7622L40.9805 42.6498L41.1739 43.1715L41.4356 42.6805L42.9841 39.7744C42.9843 39.7741 42.9845 39.7738 42.9846 39.7734Z" fill="#808080" stroke="white" stroke-width="0.5"/>
<path d="M2.5827 12.1108H2.3327V12.3608V37.9631C2.33031 38.089 2.35289 38.214 2.39914 38.3311L2.63166 38.2393L2.39914 38.3311C2.44576 38.4491 2.51547 38.5566 2.6042 38.6473C2.69293 38.738 2.79888 38.81 2.91583 38.8592L3.01273 38.6287L2.91584 38.8592C3.03276 38.9084 3.15834 38.9337 3.28519 38.9337C3.28521 38.9337 3.28523 38.9337 3.28525 38.9337H33.3891C33.6653 38.9337 33.9302 39.0434 34.1255 39.2387C34.3208 39.434 34.4305 39.6988 34.4305 39.975C34.4305 40.2512 34.3208 40.5161 34.1255 40.7114C33.9302 40.9066 33.6654 41.0163 33.3893 41.0164C33.3892 41.0164 33.3892 41.0164 33.3891 41.0164L3.28558 41.0009C2.48089 40.9996 1.70951 40.6794 1.1405 40.1104C0.571533 39.5414 0.251314 38.7701 0.25 37.9655V3.28539C0.251314 2.48076 0.571533 1.70946 1.1405 1.1405C1.70946 0.571533 2.48076 0.251314 3.28539 0.25H41.6536C42.4582 0.251314 43.2295 0.571533 43.7985 1.1405C44.3675 1.70951 44.6877 2.48088 44.689 3.28558V29.1845C44.689 29.4607 44.5792 29.7256 44.384 29.9208C44.1887 30.1161 43.9238 30.2258 43.6476 30.2258C43.3714 30.2258 43.1066 30.1161 42.9113 29.9208C42.716 29.7256 42.6063 29.4607 42.6063 29.1845V12.3608V12.1108H42.3563H2.5827ZM42.3563 10.0281H42.6063V9.7781V3.28519C42.6063 3.03258 42.5059 2.7903 42.3273 2.61168C42.1487 2.43305 41.9064 2.3327 41.6538 2.3327H3.28519C3.03258 2.3327 2.79031 2.43305 2.61168 2.61168C2.43305 2.7903 2.3327 3.03258 2.3327 3.28519V9.7781V10.0281H2.5827H42.3563Z" fill="#808080" stroke="white" stroke-width="0.5"/>
<path d="M18.1143 25.123L17.8906 25.3588L18.1759 25.5145C19.3718 26.1669 20.3701 27.1292 21.0661 28.3003C21.7621 29.4714 22.1301 30.8082 22.1315 32.1705C22.1314 32.4465 22.0217 32.7113 21.8265 32.9065C21.6312 33.1018 21.3663 33.2115 21.0901 33.2115C20.814 33.2115 20.5491 33.1018 20.3538 32.9065C20.1585 32.7112 20.0488 32.4464 20.0488 32.1702C20.0488 31.4478 19.9065 30.7326 19.6301 30.0652C19.3537 29.3978 18.9485 28.7914 18.4377 28.2807C17.9269 27.7699 17.3205 27.3647 16.6532 27.0883C15.9858 26.8118 15.2705 26.6696 14.5482 26.6696C13.8258 26.6696 13.1105 26.8118 12.4432 27.0883C11.7758 27.3647 11.1694 27.7699 10.6586 28.2807C10.1479 28.7914 9.74269 29.3978 9.46625 30.0652C9.18982 30.7326 9.04754 31.4478 9.04754 32.1702C9.04754 32.4464 8.93783 32.7112 8.74254 32.9065C8.54725 33.1018 8.28238 33.2115 8.00619 33.2115C7.73001 33.2115 7.46514 33.1018 7.26985 32.9065C7.07459 32.7113 6.96488 32.4465 6.96484 32.1703C6.96629 30.8081 7.33429 29.4713 8.03024 28.3003C8.72621 27.1292 9.7245 26.1669 10.9204 25.5145L11.2058 25.3588L10.982 25.123C10.3206 24.4257 9.87804 23.5497 9.7092 22.6036C9.54037 21.6574 9.65264 20.6824 10.0321 19.7994C10.4116 18.9163 11.0417 18.1639 11.8443 17.6352C12.647 17.1065 13.587 16.8247 14.5482 16.8247C15.5093 16.8247 16.4494 17.1065 17.252 17.6352C18.0547 18.1639 18.6847 18.9163 19.0642 19.7994C19.4437 20.6824 19.556 21.6574 19.3871 22.6036C19.2183 23.5497 18.7758 24.4257 18.1143 25.123ZM12.2264 20.1933C11.9152 20.6591 11.749 21.2068 11.749 21.7671C11.749 22.5184 12.0475 23.2389 12.5787 23.7701C13.11 24.3013 13.8305 24.5998 14.5817 24.5998C15.142 24.5998 15.6897 24.4336 16.1555 24.1224C16.6213 23.8111 16.9844 23.3687 17.1988 22.8511C17.4132 22.3335 17.4693 21.7639 17.36 21.2144C17.2507 20.665 16.9809 20.1602 16.5848 19.7641C16.1886 19.3679 15.6839 19.0981 15.1344 18.9888C14.5849 18.8795 14.0153 18.9356 13.4977 19.15C12.9801 19.3644 12.5377 19.7275 12.2264 20.1933Z" fill="#808080" stroke="white" stroke-width="0.5"/>
<path d="M26.6122 18.2722H36.9068C37.183 18.2722 37.4478 18.3819 37.6431 18.5772C37.8384 18.7725 37.9481 19.0374 37.9481 19.3136C37.9481 19.5897 37.8384 19.8546 37.6431 20.0499C37.4478 20.2452 37.183 20.3549 36.9068 20.3549H26.6122C26.336 20.3549 26.0711 20.2452 25.8758 20.0499C25.6805 19.8546 25.5708 19.5897 25.5708 19.3136C25.5708 19.0374 25.6805 18.7725 25.8758 18.5772C26.0711 18.3819 26.336 18.2722 26.6122 18.2722Z" fill="#808080" stroke="white" stroke-width="0.5"/>
<path d="M37.974 24.9644V24.9645C37.974 25.103 37.9464 25.2402 37.8928 25.3679C37.8391 25.4956 37.7605 25.6113 37.6616 25.7083C37.5627 25.8053 37.4455 25.8815 37.3167 25.9326C37.1879 25.9837 37.0503 26.0086 36.9118 26.0058L36.9118 26.0058H36.9068H26.6122C26.336 26.0058 26.0711 25.8961 25.8758 25.7008C25.6805 25.5055 25.5708 25.2406 25.5708 24.9644C25.5708 24.6883 25.6805 24.4234 25.8758 24.2281C26.0711 24.0328 26.336 23.9231 26.6122 23.9231H36.9326C37.2088 23.9231 37.4737 24.0328 37.669 24.2281C37.8643 24.4234 37.974 24.6883 37.974 24.9644Z" fill="#808080" stroke="white" stroke-width="0.5"/>
<path d="M25.8758 29.879C26.0711 29.6837 26.336 29.574 26.6122 29.574H30.3881C30.6642 29.574 30.9291 29.6837 31.1244 29.879C31.3197 30.0743 31.4294 30.3391 31.4294 30.6153C31.4294 30.8915 31.3197 31.1564 31.1244 31.3517C30.9291 31.547 30.6642 31.6567 30.3881 31.6567H26.6122C26.336 31.6567 26.0711 31.547 25.8758 31.3517C25.6805 31.1564 25.5708 30.8915 25.5708 30.6153C25.5708 30.3391 25.6805 30.0743 25.8758 29.879Z" fill="#808080" stroke="white" stroke-width="0.5"/>
<path d="M12.4045 7.16435C12.2329 7.27809 12.0316 7.33845 11.8258 7.33782C11.5508 7.3343 11.2882 7.22323 11.0941 7.02839C10.9 6.83354 10.79 6.57045 10.7876 6.29549C10.7878 6.08969 10.849 5.88856 10.9634 5.7175C11.078 5.54616 11.2409 5.41269 11.4314 5.334C11.6219 5.2553 11.8315 5.23492 12.0336 5.27544C12.2358 5.31596 12.4213 5.41556 12.5668 5.56161C12.7122 5.70766 12.8111 5.8936 12.8508 6.09588C12.8905 6.29815 12.8693 6.50766 12.7898 6.69787C12.7104 6.88808 12.5763 7.05043 12.4045 7.16435Z" fill="#808080" stroke="white" stroke-width="0.5"/>
<path d="M17.234 7.16435C17.0625 7.27809 16.8611 7.33845 16.6553 7.33782C16.3804 7.3343 16.1177 7.22323 15.9237 7.02839C15.7296 6.83354 15.6196 6.57045 15.6172 6.29549C15.6174 6.08969 15.6786 5.88856 15.793 5.7175C15.9076 5.54616 16.0705 5.41269 16.261 5.334C16.4515 5.2553 16.6611 5.23492 16.8632 5.27544C17.0653 5.31596 17.2509 5.41556 17.3964 5.56161C17.5418 5.70766 17.6407 5.8936 17.6804 6.09588C17.7201 6.29815 17.6989 6.50766 17.6194 6.69787C17.54 6.88808 17.4058 7.05043 17.234 7.16435Z" fill="#808080" stroke="white" stroke-width="0.5"/>
<path d="M7.56107 7.15645C7.39175 7.27218 7.19203 7.33533 6.98697 7.33798C6.70913 7.33883 6.44222 7.22969 6.24457 7.03438C6.04691 6.83907 5.9346 6.57348 5.93213 6.29565C5.93234 6.09057 5.9931 5.89011 6.1068 5.71942C6.22068 5.54846 6.38258 5.41499 6.57214 5.33582C6.76169 5.25665 6.97043 5.23531 7.17208 5.27449C7.37374 5.31366 7.5593 5.41161 7.70542 5.556C7.85154 5.70038 7.95169 5.88477 7.99327 6.08594C8.03485 6.28711 8.01601 6.49609 7.9391 6.68657C7.8622 6.87706 7.73067 7.04054 7.56107 7.15645Z" fill="#808080" stroke="white" stroke-width="0.5"/>
</svg>
