<svg width="13" height="13" viewBox="0 0 13 13" fill="none" xmlns="http://www.w3.org/2000/svg">
<path d="M12.2203 8.82916L8.06576 1.93916C7.89776 1.67636 7.6663 1.46007 7.39272 1.31026C7.11915 1.16044 6.81225 1.08191 6.50034 1.08191C6.18842 1.08191 5.88153 1.16044 5.60795 1.31026C5.33437 1.46007 5.10292 1.67636 4.93492 1.93916L0.780339 8.82916C0.633576 9.07381 0.553808 9.35278 0.549054 9.63803C0.5443 9.92329 0.614727 10.2048 0.753256 10.4542C0.913415 10.7349 1.14524 10.9681 1.42503 11.1298C1.70482 11.2916 2.02256 11.3762 2.34576 11.375H10.6549C10.976 11.3784 11.2923 11.2971 11.5719 11.1392C11.8515 10.9814 12.0845 10.7525 12.2474 10.4758C12.39 10.2238 12.4627 9.93832 12.4579 9.64881C12.4532 9.35931 12.3711 9.07633 12.2203 8.82916ZM11.2995 9.93958C11.2344 10.0515 11.1399 10.1434 11.0263 10.2055C10.9127 10.2676 10.7843 10.2974 10.6549 10.2917H2.34576C2.21642 10.2974 2.08799 10.2676 1.97437 10.2055C1.86075 10.1434 1.76627 10.0515 1.70117 9.93958C1.65363 9.85724 1.6286 9.76383 1.6286 9.66875C1.6286 9.57366 1.65363 9.48026 1.70117 9.39791L5.86117 2.5025C5.93592 2.40375 6.03254 2.32367 6.14343 2.26854C6.25433 2.2134 6.37649 2.18471 6.50034 2.18471C6.62419 2.18471 6.74635 2.2134 6.85724 2.26854C6.96814 2.32367 7.06475 2.40375 7.13951 2.5025L11.2941 9.3925C11.3435 9.475 11.37 9.56916 11.3709 9.6653C11.3719 9.76145 11.3472 9.85612 11.2995 9.93958Z" fill="#FF0002"/>
<path d="M6.49967 9.20833C6.79883 9.20833 7.04134 8.96582 7.04134 8.66667C7.04134 8.36751 6.79883 8.125 6.49967 8.125C6.20052 8.125 5.95801 8.36751 5.95801 8.66667C5.95801 8.96582 6.20052 9.20833 6.49967 9.20833Z" fill="#FF0002"/>
<path d="M6.49967 4.33337C6.35602 4.33337 6.21824 4.39044 6.11666 4.49202C6.01508 4.59361 5.95801 4.73138 5.95801 4.87504V7.04171C5.95801 7.18537 6.01508 7.32314 6.11666 7.42472C6.21824 7.5263 6.35602 7.58337 6.49967 7.58337C6.64333 7.58337 6.78111 7.5263 6.88269 7.42472C6.98427 7.32314 7.04134 7.18537 7.04134 7.04171V4.87504C7.04134 4.73138 6.98427 4.59361 6.88269 4.49202C6.78111 4.39044 6.64333 4.33337 6.49967 4.33337Z" fill="#FF0002"/>
</svg>
