<svg width="246" height="18" viewBox="0 0 246 18" fill="none" xmlns="http://www.w3.org/2000/svg">
<path d="M9 16.5C13.1421 16.5 16.5 13.1421 16.5 9C16.5 4.85786 13.1421 1.5 9 1.5C4.85786 1.5 1.5 4.85786 1.5 9C1.5 13.1421 4.85786 16.5 9 16.5Z" stroke="#5DB075" stroke-linecap="round" stroke-linejoin="round"/>
<path d="M11.6673 7L8.00065 10.6667L6.33398 9" stroke="#5DB075" stroke-linecap="round" stroke-linejoin="round"/>
<path d="M27.63 5.4C28.3833 5.4 28.9767 5.59 29.41 5.97C29.8433 6.34333 30.06 6.86333 30.06 7.53C30.06 8.20333 29.8433 8.72667 29.41 9.1C28.9767 9.47333 28.3833 9.66 27.63 9.66H26.24V12H24.86V5.4H27.63ZM27.42 8.57C28.2467 8.57 28.66 8.22333 28.66 7.53C28.66 6.83667 28.2467 6.49 27.42 6.49H26.24V8.57H27.42ZM32.7348 4.81V10.46C32.7348 10.6933 32.7748 10.8567 32.8548 10.95C32.9348 11.0433 33.0682 11.09 33.2548 11.09C33.3682 11.09 33.4615 11.0833 33.5348 11.07C33.6082 11.0567 33.7015 11.03 33.8148 10.99L33.6948 11.89C33.5815 11.9567 33.4382 12.0067 33.2648 12.04C33.0982 12.08 32.9315 12.1 32.7648 12.1C32.2782 12.1 31.9215 11.9833 31.6948 11.75C31.4748 11.51 31.3648 11.13 31.3648 10.61V4.81H32.7348ZM37.677 8.81C37.677 8.52333 37.5937 8.3 37.427 8.14C37.267 7.98 37.0537 7.9 36.787 7.9C36.5404 7.9 36.3237 7.96333 36.137 8.09C35.9504 8.21667 35.8137 8.42667 35.727 8.72L34.557 8.36C34.6704 7.92 34.917 7.56667 35.297 7.3C35.6837 7.03333 36.2004 6.9 36.847 6.9C37.5004 6.9 38.027 7.05667 38.427 7.37C38.8337 7.67667 39.037 8.13667 39.037 8.75V10.78C39.037 11.0333 39.157 11.16 39.397 11.16C39.5104 11.16 39.617 11.1433 39.717 11.11L39.637 11.96C39.4637 12.0467 39.247 12.09 38.987 12.09C38.7004 12.09 38.4504 12.03 38.237 11.91C38.0304 11.79 37.8904 11.61 37.817 11.37C37.657 11.61 37.427 11.7933 37.127 11.92C36.8337 12.04 36.5304 12.1 36.217 12.1C35.7104 12.1 35.307 11.9867 35.007 11.76C34.7137 11.5267 34.567 11.19 34.567 10.75C34.567 10.3767 34.687 10.0733 34.927 9.84C35.167 9.6 35.5104 9.43667 35.957 9.35L37.677 9V8.81ZM35.937 10.62C35.937 10.7867 35.997 10.9133 36.117 11C36.2437 11.0867 36.3937 11.13 36.567 11.13C36.7604 11.13 36.9404 11.1 37.107 11.04C37.2737 10.98 37.4104 10.88 37.517 10.74C37.6237 10.5933 37.677 10.4 37.677 10.16V9.85L36.627 10.06C36.4004 10.1067 36.227 10.17 36.107 10.25C35.9937 10.3233 35.937 10.4467 35.937 10.62ZM43.0197 6.9C43.6864 6.9 44.203 7.04333 44.5697 7.33C44.943 7.61667 45.1897 7.96333 45.3097 8.37L44.0297 8.83C43.8964 8.22333 43.5664 7.92 43.0397 7.92C42.6597 7.92 42.363 8.05333 42.1497 8.32C41.943 8.58667 41.8397 8.98333 41.8397 9.51C41.8397 10.0433 41.9464 10.44 42.1597 10.7C42.3797 10.9533 42.6764 11.08 43.0497 11.08C43.6297 11.08 43.9764 10.7833 44.0897 10.19L45.3297 10.59C45.2164 11.0367 44.963 11.4 44.5697 11.68C44.183 11.96 43.6797 12.1 43.0597 12.1C42.5397 12.1 42.083 11.9967 41.6897 11.79C41.303 11.5833 41.003 11.2867 40.7897 10.9C40.5764 10.5133 40.4697 10.0467 40.4697 9.5C40.4697 8.95333 40.5764 8.48667 40.7897 8.1C41.0097 7.71333 41.3097 7.41667 41.6897 7.21C42.0764 7.00333 42.5197 6.9 43.0197 6.9ZM48.9142 12.1C48.1276 12.1 47.4976 11.8733 47.0242 11.42C46.5509 10.96 46.3142 10.32 46.3142 9.5C46.3142 8.95333 46.4209 8.48667 46.6342 8.1C46.8476 7.71333 47.1442 7.41667 47.5242 7.21C47.9109 7.00333 48.3509 6.9 48.8442 6.9C49.3509 6.9 49.7809 7.00333 50.1342 7.21C50.4876 7.41 50.7576 7.68667 50.9442 8.04C51.1309 8.38667 51.2242 8.78333 51.2242 9.23C51.2242 9.36333 51.2209 9.49 51.2142 9.61C51.2076 9.73 51.1976 9.83667 51.1842 9.93H47.6542C47.7076 10.3167 47.8409 10.6067 48.0542 10.8C48.2742 10.9867 48.5576 11.08 48.9042 11.08C49.1976 11.08 49.4342 11.0233 49.6142 10.91C49.7942 10.7967 49.9342 10.64 50.0342 10.44L51.1242 10.86C50.9642 11.2533 50.6842 11.56 50.2842 11.78C49.8842 11.9933 49.4276 12.1 48.9142 12.1ZM48.8342 7.91C48.1876 7.91 47.7976 8.26667 47.6642 8.98H49.9142C49.8742 8.63333 49.7609 8.37 49.5742 8.19C49.3942 8.00333 49.1476 7.91 48.8342 7.91ZM54.4752 12.1C54.0619 12.1 53.6919 11.9967 53.3652 11.79C53.0452 11.5833 52.7919 11.29 52.6052 10.91C52.4252 10.5233 52.3352 10.0567 52.3352 9.51C52.3352 8.95667 52.4319 8.48667 52.6252 8.1C52.8186 7.70667 53.0786 7.41 53.4052 7.21C53.7386 7.00333 54.1119 6.9 54.5252 6.9C54.8852 6.9 55.1952 6.98667 55.4552 7.16C55.7152 7.33333 55.9119 7.56333 56.0452 7.85V4.81H57.4152V12H56.1852L56.1252 11.03C55.9852 11.3633 55.7686 11.6267 55.4752 11.82C55.1819 12.0067 54.8486 12.1 54.4752 12.1ZM54.8752 11.05C55.2286 11.05 55.5119 10.9133 55.7252 10.64C55.9386 10.36 56.0452 9.96667 56.0452 9.46C56.0452 8.98 55.9386 8.61 55.7252 8.35C55.5186 8.08333 55.2419 7.95 54.8952 7.95C54.5219 7.95 54.2286 8.08333 54.0152 8.35C53.8086 8.61 53.7052 8.99333 53.7052 9.5C53.7052 10.0067 53.8086 10.3933 54.0152 10.66C54.2219 10.92 54.5086 11.05 54.8752 11.05Z" fill="#5DB075"/>
</svg>
