<svg width="11" height="12" viewBox="0 0 11 12" fill="none" xmlns="http://www.w3.org/2000/svg">
<path fill-rule="evenodd" clip-rule="evenodd" d="M10.4485 5.17686H1.88301L6.11822 0.94164C6.33379 0.726066 6.33379 0.377019 6.11822 0.161444C5.9028 -0.0538148 5.55376 -0.0538148 5.33834 0.161444L0.161563 5.33838C-0.0538542 5.5538 -0.0538542 5.903 0.161563 6.11842L5.33834 11.2954C5.44613 11.403 5.58716 11.4569 5.72836 11.4569C5.8694 11.4569 6.01075 11.403 6.11822 11.2954C6.33379 11.0799 6.33379 10.7307 6.11822 10.5153L1.88301 6.27994H10.4485C10.7531 6.27994 11 6.03301 11 5.7284C11 5.42379 10.7531 5.17686 10.4485 5.17686Z" fill="#808080"/>
</svg>
