<svg width="28" height="28" viewBox="0 0 28 28" fill="none" xmlns="http://www.w3.org/2000/svg">
<path d="M0.5 27C0.5 27.2022 0.621821 27.3846 0.808658 27.4619C0.995496 27.5393 1.21055 27.4966 1.35355 27.3536L6.98488 21.7222H24.1111C25.0099 21.7222 25.8719 21.3652 26.5074 20.7296C27.143 20.0941 27.5 19.2321 27.5 18.3333V3.88889C27.5 2.9901 27.143 2.12812 26.5074 1.49258C25.8719 0.857043 25.0099 0.5 24.1111 0.5H3.88889C2.9901 0.5 2.12812 0.857042 1.49258 1.49258C0.857042 2.12812 0.5 2.9901 0.5 3.88889V27Z" stroke="#333333" stroke-linecap="round" stroke-linejoin="round"/>
<g clip-path="url(#clip0)">
<path d="M14.5 12.375C15.2594 12.375 15.875 11.7594 15.875 11C15.875 10.2406 15.2594 9.625 14.5 9.625C13.7406 9.625 13.125 10.2406 13.125 11C13.125 11.7594 13.7406 12.375 14.5 12.375Z" stroke="#333333" stroke-linecap="round" stroke-linejoin="round"/>
<path d="M17.8917 12.375C17.8306 12.5132 17.8125 12.6666 17.8394 12.8153C17.8664 12.9639 17.9372 13.1011 18.0429 13.2092L18.0704 13.2367C18.1556 13.3218 18.2233 13.4229 18.2694 13.5342C18.3155 13.6455 18.3393 13.7647 18.3393 13.8852C18.3393 14.0057 18.3155 14.125 18.2694 14.2362C18.2233 14.3475 18.1556 14.4486 18.0704 14.5337C17.9853 14.619 17.8842 14.6866 17.7729 14.7327C17.6616 14.7789 17.5423 14.8026 17.4219 14.8026C17.3014 14.8026 17.1821 14.7789 17.0708 14.7327C16.9596 14.6866 16.8585 14.619 16.7733 14.5337L16.7458 14.5062C16.6378 14.4006 16.5006 14.3297 16.3519 14.3027C16.2032 14.2758 16.0499 14.294 15.9117 14.355C15.7761 14.4131 15.6605 14.5096 15.5791 14.6325C15.4976 14.7555 15.4539 14.8996 15.4533 15.0471V15.125C15.4533 15.3681 15.3568 15.6013 15.1848 15.7732C15.0129 15.9451 14.7798 16.0417 14.5367 16.0417C14.2935 16.0417 14.0604 15.9451 13.8885 15.7732C13.7166 15.6013 13.62 15.3681 13.62 15.125V15.0837C13.6164 14.932 13.5673 14.7849 13.4791 14.6615C13.3908 14.5381 13.2674 14.444 13.125 14.3917C12.9868 14.3307 12.8334 14.3125 12.6847 14.3394C12.536 14.3664 12.3988 14.4373 12.2908 14.5429L12.2633 14.5704C12.1782 14.6556 12.0771 14.7233 11.9658 14.7694C11.8545 14.8155 11.7353 14.8393 11.6148 14.8393C11.4943 14.8393 11.375 14.8155 11.2638 14.7694C11.1525 14.7233 11.0514 14.6556 10.9662 14.5704C10.881 14.4853 10.8134 14.3842 10.7673 14.2729C10.7211 14.1616 10.6974 14.0423 10.6974 13.9219C10.6974 13.8014 10.7211 13.6821 10.7673 13.5708C10.8134 13.4596 10.881 13.3585 10.9662 13.2733L10.9937 13.2458C11.0994 13.1378 11.1703 13.0006 11.1972 12.8519C11.2242 12.7033 11.206 12.5499 11.145 12.4117C11.0869 12.2761 10.9904 12.1605 10.8675 12.0791C10.7445 11.9976 10.6004 11.9539 10.4529 11.9533H10.375C10.1319 11.9533 9.89872 11.8568 9.72681 11.6848C9.55491 11.5129 9.45833 11.2798 9.45833 11.0367C9.45833 10.7936 9.55491 10.5604 9.72681 10.3885C9.89872 10.2166 10.1319 10.12 10.375 10.12H10.4162C10.568 10.1164 10.7151 10.0673 10.8385 9.97907C10.9619 9.89079 11.0559 9.76742 11.1083 9.625C11.1693 9.48676 11.1875 9.33341 11.1606 9.18473C11.1336 9.03605 11.0627 8.89885 10.9571 8.79083L10.9296 8.76333C10.8443 8.6782 10.7767 8.5771 10.7306 8.46582C10.6845 8.35454 10.6607 8.23525 10.6607 8.11479C10.6607 7.99433 10.6845 7.87504 10.7306 7.76376C10.7767 7.65248 10.8443 7.55138 10.9296 7.46625C11.0147 7.38102 11.1158 7.31341 11.2271 7.26728C11.3384 7.22115 11.4577 7.1974 11.5781 7.1974C11.6986 7.1974 11.8179 7.22115 11.9291 7.26728C12.0404 7.31341 12.1415 7.38102 12.2267 7.46625L12.2542 7.49375C12.3622 7.59941 12.4994 7.67029 12.6481 7.69725C12.7967 7.72421 12.9501 7.70601 13.0883 7.645H13.125C13.2606 7.5869 13.3762 7.49043 13.4576 7.36746C13.539 7.2445 13.5827 7.1004 13.5833 6.95292V6.875C13.5833 6.63188 13.6799 6.39873 13.8518 6.22682C14.0237 6.05491 14.2569 5.95833 14.5 5.95833C14.7431 5.95833 14.9763 6.05491 15.1482 6.22682C15.3201 6.39873 15.4167 6.63188 15.4167 6.875V6.91625C15.4172 7.06373 15.461 7.20783 15.5424 7.3308C15.6238 7.45376 15.7394 7.55023 15.875 7.60833C16.0132 7.66934 16.1666 7.68754 16.3153 7.66058C16.4639 7.63363 16.6011 7.56274 16.7092 7.45708L16.7367 7.42958C16.8218 7.34435 16.9229 7.27674 17.0342 7.23061C17.1455 7.18448 17.2647 7.16074 17.3852 7.16074C17.5057 7.16074 17.6249 7.18448 17.7362 7.23061C17.8475 7.27674 17.9486 7.34435 18.0337 7.42958C18.119 7.51472 18.1866 7.61581 18.2327 7.7271C18.2788 7.83838 18.3026 7.95766 18.3026 8.07812C18.3026 8.19859 18.2788 8.31787 18.2327 8.42915C18.1866 8.54043 18.119 8.64153 18.0337 8.72667L18.0062 8.75417C17.9006 8.86218 17.8297 8.99938 17.8027 9.14806C17.7758 9.29674 17.794 9.45009 17.855 9.58833V9.625C17.9131 9.76056 18.0096 9.87617 18.1325 9.95761C18.2555 10.039 18.3996 10.0827 18.5471 10.0833H18.625C18.8681 10.0833 19.1013 10.1799 19.2732 10.3518C19.4451 10.5237 19.5417 10.7569 19.5417 11C19.5417 11.2431 19.4451 11.4763 19.2732 11.6482C19.1013 11.8201 18.8681 11.9167 18.625 11.9167H18.5837C18.4363 11.9173 18.2922 11.961 18.1692 12.0424C18.0462 12.1238 17.9498 12.2394 17.8917 12.375V12.375Z" stroke="#333333" stroke-linecap="round" stroke-linejoin="round"/>
</g>
<defs>
<clipPath id="clip0">
<rect width="11" height="11" fill="white" transform="translate(9 5.5)"/>
</clipPath>
</defs>
</svg>
