<svg width="20" height="19" viewBox="0 0 20 19" fill="none" xmlns="http://www.w3.org/2000/svg">
<path d="M7.25437 0.105225C11.2026 0.105225 14.4033 3.3059 14.4033 7.25413C14.4033 9.01973 13.7632 10.6358 12.7025 11.8831L19.0261 18.3442L18.4636 18.8947L12.1601 12.4542C10.8799 13.6624 9.15363 14.403 7.25437 14.403C3.30614 14.403 0.105469 11.2024 0.105469 7.25413C0.105469 3.3059 3.30614 0.105225 7.25437 0.105225ZM7.25437 0.89226C3.74081 0.89226 0.892504 3.74057 0.892504 7.25413C0.892504 10.7677 3.74081 13.616 7.25437 13.616C10.7679 13.616 13.6162 10.7677 13.6162 7.25413C13.6162 3.74057 10.7679 0.89226 7.25437 0.89226Z" fill="#333333" stroke="#333333" stroke-width="0.15"/>
</svg>
