<svg width="16" height="16" viewBox="0 0 16 16" fill="none" xmlns="http://www.w3.org/2000/svg">
<path d="M6.95461 2.06824C3.11383 2.06824 0 5.1818 0 9.02258C0 12.8634 3.11383 15.9772 6.95461 15.9772C10.7954 15.9772 13.909 12.8636 13.909 9.02258C13.909 8.79663 13.7258 8.61353 13.4999 8.61353H7.36366V2.47728C7.36366 2.25134 7.18056 2.06824 6.95461 2.06824ZM6.54557 2.89997V9.02258C6.54557 9.24852 6.72867 9.4319 6.95461 9.4319H13.0772C12.8581 12.6527 10.1831 15.1547 6.95461 15.1588C3.56545 15.1602 0.817275 12.4139 0.81591 9.02476C0.814819 5.79305 3.32067 3.11391 6.54557 2.89997Z" fill="#808080"/>
<path d="M8.63635 0.409047C8.63635 0.183102 8.81973 0 9.04567 0C12.8848 0.00436608 15.9956 3.11547 16 6.95461C16 7.18056 15.8169 7.36366 15.591 7.36366H9.04567C8.81945 7.36366 8.63635 7.18056 8.63635 6.95461V0.409047Z" fill="#808080"/>
</svg>
