<svg width="12" height="12" viewBox="0 0 12 12" fill="none" xmlns="http://www.w3.org/2000/svg">
<path d="M3 1L1.5 3V10C1.5 10.2652 1.60536 10.5196 1.79289 10.7071C1.98043 10.8946 2.23478 11 2.5 11H9.5C9.76522 11 10.0196 10.8946 10.2071 10.7071C10.3946 10.5196 10.5 10.2652 10.5 10V3L9 1H3Z" stroke="#808080" stroke-linecap="round" stroke-linejoin="round"/>
<path d="M1.5 3H10.5" stroke="#808080" stroke-linecap="round" stroke-linejoin="round"/>
<path d="M8 5C8 5.53043 7.78929 6.03914 7.41421 6.41421C7.03914 6.78929 6.53043 7 6 7C5.46957 7 4.96086 6.78929 4.58579 6.41421C4.21071 6.03914 4 5.53043 4 5" stroke="#808080" stroke-linecap="round" stroke-linejoin="round"/>
</svg>
