<svg width="50" height="47" viewBox="0 0 50 47" fill="none" xmlns="http://www.w3.org/2000/svg">
<mask id="path-1-inside-1" fill="white">
<path d="M23.2137 22.7197C21.8196 22.7197 20.6895 23.8499 20.6895 25.244V28.4935L16.7584 42.6461C16.6326 43.1002 16.7028 43.5862 16.9522 43.9861C17.2015 44.3859 17.607 44.6629 18.0702 44.7496L29.9106 46.9693C30.0118 46.9884 30.1146 46.9979 30.2177 46.9979C30.942 46.9968 31.5851 46.5342 31.8164 45.8477L33.3107 41.3672L34.8042 45.8485C35.07 46.647 35.8847 47.1264 36.7117 46.971L48.5513 44.7513C49.0144 44.6645 49.42 44.3876 49.6693 43.9877C49.9186 43.5879 49.9889 43.1019 49.863 42.6478L45.9319 28.4935V25.244C45.9319 23.8499 44.8018 22.7197 43.4077 22.7197H23.2137ZM48.2408 43.0971L36.4012 45.3168L34.1084 38.4407C33.9949 38.0954 33.6725 37.862 33.309 37.862C32.9456 37.862 32.6232 38.0954 32.5097 38.4407L30.2168 45.3168L18.3807 43.0971L22.1704 29.451H29.3392L31.4192 35.6918C31.5663 36.1333 32.0434 36.3719 32.4849 36.2249C32.9263 36.0778 33.165 35.6007 33.0179 35.1592L31.1121 29.451H44.4511L48.2425 43.0963L48.2408 43.0971ZM44.2491 25.244V27.7682H22.3723V25.244C22.3723 24.7793 22.749 24.4026 23.2137 24.4026H43.4077C43.8724 24.4026 44.2491 24.7793 44.2491 25.244Z"/>
</mask>
<path d="M23.2137 22.7197C21.8196 22.7197 20.6895 23.8499 20.6895 25.244V28.4935L16.7584 42.6461C16.6326 43.1002 16.7028 43.5862 16.9522 43.9861C17.2015 44.3859 17.607 44.6629 18.0702 44.7496L29.9106 46.9693C30.0118 46.9884 30.1146 46.9979 30.2177 46.9979C30.942 46.9968 31.5851 46.5342 31.8164 45.8477L33.3107 41.3672L34.8042 45.8485C35.07 46.647 35.8847 47.1264 36.7117 46.971L48.5513 44.7513C49.0144 44.6645 49.42 44.3876 49.6693 43.9877C49.9186 43.5879 49.9889 43.1019 49.863 42.6478L45.9319 28.4935V25.244C45.9319 23.8499 44.8018 22.7197 43.4077 22.7197H23.2137ZM48.2408 43.0971L36.4012 45.3168L34.1084 38.4407C33.9949 38.0954 33.6725 37.862 33.309 37.862C32.9456 37.862 32.6232 38.0954 32.5097 38.4407L30.2168 45.3168L18.3807 43.0971L22.1704 29.451H29.3392L31.4192 35.6918C31.5663 36.1333 32.0434 36.3719 32.4849 36.2249C32.9263 36.0778 33.165 35.6007 33.0179 35.1592L31.1121 29.451H44.4511L48.2425 43.0963L48.2408 43.0971ZM44.2491 25.244V27.7682H22.3723V25.244C22.3723 24.7793 22.749 24.4026 23.2137 24.4026H43.4077C43.8724 24.4026 44.2491 24.7793 44.2491 25.244Z" fill="#808080" stroke="white" stroke-width="0.2" mask="url(#path-1-inside-1)"/>
<mask id="path-2-inside-2" fill="white">
<path d="M28.854 11.1849C28.6134 10.9444 28.2515 10.8724 27.9372 11.0026C27.6228 11.1328 27.4178 11.4395 27.4177 11.7798V20.194C27.4177 20.6587 27.7944 21.0354 28.2591 21.0354C28.7238 21.0354 29.1005 20.6587 29.1005 20.194V13.811L29.549 14.2595C30.2083 14.9161 31.2743 14.9161 31.9336 14.2595L35.8319 10.3637C36.4889 9.70464 36.4889 8.6382 35.8319 7.97913L28.3433 0.490545C28.0282 0.17668 27.6016 0.000316246 27.1569 0H9.16744C8.72269 0.000316246 8.29615 0.17668 7.98104 0.490545L0.492451 7.97913C-0.16415 8.63839 -0.16415 9.70445 0.492451 10.3637L4.38904 14.2603C5.04801 14.9168 6.1138 14.9168 6.77277 14.2603L7.22377 13.811V31.9738C7.22377 32.9032 7.9772 33.6566 8.9066 33.6566H16.4793C16.944 33.6566 17.3207 33.2799 17.3207 32.8152C17.3207 32.3505 16.944 31.9738 16.4793 31.9738H8.9066V11.7798C8.90652 11.4395 8.70152 11.1328 8.38715 11.0026C8.07279 10.8724 7.71094 10.9444 7.4703 11.1849L5.58048 13.0697L1.68474 9.17142L9.16744 1.68283H12.3068C12.3068 4.92621 14.936 7.55548 18.1794 7.55548C21.4228 7.55548 24.0521 4.92621 24.0521 1.68283H27.1518L34.6404 9.17647L30.7396 13.0722L28.854 11.1849ZM18.179 5.85625C15.8728 5.8535 14.0015 3.98904 13.9904 1.68283H22.3692C22.3581 3.98969 20.4859 5.85442 18.179 5.85625Z"/>
</mask>
<path d="M28.854 11.1849C28.6134 10.9444 28.2515 10.8724 27.9372 11.0026C27.6228 11.1328 27.4178 11.4395 27.4177 11.7798V20.194C27.4177 20.6587 27.7944 21.0354 28.2591 21.0354C28.7238 21.0354 29.1005 20.6587 29.1005 20.194V13.811L29.549 14.2595C30.2083 14.9161 31.2743 14.9161 31.9336 14.2595L35.8319 10.3637C36.4889 9.70464 36.4889 8.6382 35.8319 7.97913L28.3433 0.490545C28.0282 0.17668 27.6016 0.000316246 27.1569 0H9.16744C8.72269 0.000316246 8.29615 0.17668 7.98104 0.490545L0.492451 7.97913C-0.16415 8.63839 -0.16415 9.70445 0.492451 10.3637L4.38904 14.2603C5.04801 14.9168 6.1138 14.9168 6.77277 14.2603L7.22377 13.811V31.9738C7.22377 32.9032 7.9772 33.6566 8.9066 33.6566H16.4793C16.944 33.6566 17.3207 33.2799 17.3207 32.8152C17.3207 32.3505 16.944 31.9738 16.4793 31.9738H8.9066V11.7798C8.90652 11.4395 8.70152 11.1328 8.38715 11.0026C8.07279 10.8724 7.71094 10.9444 7.4703 11.1849L5.58048 13.0697L1.68474 9.17142L9.16744 1.68283H12.3068C12.3068 4.92621 14.936 7.55548 18.1794 7.55548C21.4228 7.55548 24.0521 4.92621 24.0521 1.68283H27.1518L34.6404 9.17647L30.7396 13.0722L28.854 11.1849ZM18.179 5.85625C15.8728 5.8535 14.0015 3.98904 13.9904 1.68283H22.3692C22.3581 3.98969 20.4859 5.85442 18.179 5.85625Z" fill="#808080" stroke="white" stroke-width="0.2" mask="url(#path-2-inside-2)"/>
<mask id="path-3-inside-3" fill="white">
<path d="M42.1403 36.1804C40.5138 36.1804 39.1953 37.4989 39.1953 39.1254C39.1953 40.7518 40.5138 42.0703 42.1403 42.0703C43.7667 42.0703 45.0852 40.7518 45.0852 39.1254C45.0852 37.4989 43.7667 36.1804 42.1403 36.1804ZM42.1403 40.3875C41.4432 40.3875 40.8781 39.8224 40.8781 39.1254C40.8781 38.4283 41.4432 37.8632 42.1403 37.8632C42.8373 37.8632 43.4024 38.4283 43.4024 39.1254C43.4024 39.8224 42.8373 40.3875 42.1403 40.3875Z"/>
</mask>
<path d="M42.1403 36.1804C40.5138 36.1804 39.1953 37.4989 39.1953 39.1254C39.1953 40.7518 40.5138 42.0703 42.1403 42.0703C43.7667 42.0703 45.0852 40.7518 45.0852 39.1254C45.0852 37.4989 43.7667 36.1804 42.1403 36.1804ZM42.1403 40.3875C41.4432 40.3875 40.8781 39.8224 40.8781 39.1254C40.8781 38.4283 41.4432 37.8632 42.1403 37.8632C42.8373 37.8632 43.4024 38.4283 43.4024 39.1254C43.4024 39.8224 42.8373 40.3875 42.1403 40.3875Z" fill="#808080" stroke="white" stroke-width="0.2" mask="url(#path-3-inside-3)"/>
<mask id="path-4-inside-4" fill="white">
<path d="M25.7328 11.3603C25.7328 10.1692 25.0152 9.09536 23.9148 8.63954C22.8143 8.18372 21.5477 8.43568 20.7054 9.27793C19.8632 10.1202 19.6112 11.3869 20.067 12.4873C20.5229 13.5878 21.5967 14.3053 22.7878 14.3053C24.4143 14.3053 25.7328 12.9868 25.7328 11.3603ZM22.7878 12.6224C22.0908 12.6224 21.5257 12.0574 21.5257 11.3603C21.5257 10.6633 22.0908 10.0982 22.7878 10.0982C23.4849 10.0982 24.0499 10.6633 24.0499 11.3603C24.0499 12.0574 23.4849 12.6224 22.7878 12.6224Z"/>
</mask>
<path d="M25.7328 11.3603C25.7328 10.1692 25.0152 9.09536 23.9148 8.63954C22.8143 8.18372 21.5477 8.43568 20.7054 9.27793C19.8632 10.1202 19.6112 11.3869 20.067 12.4873C20.5229 13.5878 21.5967 14.3053 22.7878 14.3053C24.4143 14.3053 25.7328 12.9868 25.7328 11.3603ZM22.7878 12.6224C22.0908 12.6224 21.5257 12.0574 21.5257 11.3603C21.5257 10.6633 22.0908 10.0982 22.7878 10.0982C23.4849 10.0982 24.0499 10.6633 24.0499 11.3603C24.0499 12.0574 23.4849 12.6224 22.7878 12.6224Z" fill="#808080" stroke="white" stroke-width="0.2" mask="url(#path-4-inside-4)"/>
</svg>
