<svg width="14" height="14" viewBox="0 0 14 14" fill="none" xmlns="http://www.w3.org/2000/svg">
<path d="M11.5 0.144592H2.5C1.90326 0.144592 1.33097 0.370541 0.90901 0.772732C0.487053 1.17492 0.25 1.72041 0.25 2.28919V10.8676C0.25 11.4364 0.487053 11.9819 0.90901 12.3841C1.33097 12.7863 1.90326 13.0122 2.5 13.0122H11.5C12.0967 13.0122 12.669 12.7863 13.091 12.3841C13.5129 11.9819 13.75 11.4364 13.75 10.8676V2.28919C13.75 1.72041 13.5129 1.17492 13.091 0.772732C12.669 0.370541 12.0967 0.144592 11.5 0.144592ZM2.5 1.57433H11.5C11.6989 1.57433 11.8897 1.64964 12.0303 1.78371C12.171 1.91777 12.25 2.0996 12.25 2.28919V3.71893H1.75V2.28919C1.75 2.0996 1.82902 1.91777 1.96967 1.78371C2.11032 1.64964 2.30109 1.57433 2.5 1.57433ZM1.75 10.8676V5.14866H6.25V11.5825H2.5C2.30109 11.5825 2.11032 11.5072 1.96967 11.3731C1.82902 11.239 1.75 11.0572 1.75 10.8676ZM11.5 11.5825H7.75V5.14866H12.25V10.8676C12.25 11.0572 12.171 11.239 12.0303 11.3731C11.8897 11.5072 11.6989 11.5825 11.5 11.5825Z" fill="#999999" stroke="#FAF9F9" stroke-width="0.2"/>
</svg>
