<svg width="18" height="18" viewBox="0 0 18 18" fill="none" xmlns="http://www.w3.org/2000/svg">
<path d="M12.841 2V1.95H12.791L7.39551 1.95009L2 1.95018H1.95V2.00018V13.7371C1.95 14.9227 2.9914 15.8846 4.25881 15.8846H12.2088H13.8134C15.041 15.8846 16.05 14.9527 16.05 13.8041V8.37672V8.32672H16H12.841V2ZM11.5765 13.8039L11.5765 13.8044C11.5791 14.1139 11.652 14.4237 11.7983 14.7031H4.25881C3.68179 14.7031 3.21451 14.264 3.21451 13.7369V3.13133H11.5765V3.14416V3.1651V3.18604V3.20698V3.22793V3.24887V3.26981V3.29075V3.3117V3.33264V3.35358V3.37452V3.39546V3.41641V3.43735V3.45829V3.47923V3.50018V3.52112V3.54206V3.563V3.58394V3.60489V3.62583V3.64677V3.66771V3.68866V3.7096V3.73054V3.75148V3.77242V3.79337V3.81431V3.83525V3.85619V3.87714V3.89808V3.91902V3.93996V3.9609V3.98185V4.00279V4.02373V4.04467V4.06562V4.08656V4.1075V4.12844V4.14939V4.17033V4.19127V4.21221V4.23315V4.2541V4.27504V4.29598V4.31692V4.33787V4.35881V4.37975V4.40069V4.42163V4.44258V4.46352V4.48446V4.5054V4.52635V4.54729V4.56823V4.58917V4.61012V4.63106V4.652V4.67294V4.69388V4.71483V4.73577V4.75671V4.77765V4.7986V4.81954V4.84048V4.86142V4.88236V4.90331V4.92425V4.94519V4.96613V4.98708V5.00802V5.02896V5.0499V5.07085V5.09179V5.11273V5.13367V5.15461V5.17556V5.1965V5.21744V5.23838V5.25933V5.28027V5.30121V5.32215V5.3431V5.36404V5.38498V5.40592V5.42686V5.44781V5.46875V5.48969V5.51063V5.53158V5.55252V5.57346V5.5944V5.61535V5.63629V5.65723V5.67817V5.69911V5.72006V5.741V5.76194V5.78288V5.80383V5.82477V5.84571V5.86665V5.8876V5.90854V5.92948V5.95042V5.97136V5.99231V6.01325V6.03419V6.05513V6.07608V6.09702V6.11796V6.1389V6.15985V6.18079V6.20173V6.22267V6.24362V6.26456V6.2855V6.30644V6.32738V6.34833V6.36927V6.39021V6.41115V6.4321V6.45304V6.47398V6.49492V6.51587V6.53681V6.55775V6.57869V6.59964V6.62058V6.64152V6.66246V6.6834V6.70435V6.72529V6.74623V6.76717V6.78812V6.80906V6.83V6.85094V6.87189V6.89283V6.91377V6.93471V6.95566V6.9766V6.99754V7.01848V7.03942V7.06037V7.08131V7.10225V7.12319V7.14414V7.16508V7.18602V7.20696V7.22791V7.24885V7.26979V7.29073V7.31168V7.33262V7.35356V7.3745V7.39545V7.41639V7.43733V7.45827V7.47922V7.50016V7.5211V7.54204V7.56299V7.58393V7.60487V7.62581V7.64676V7.6677V7.68864V7.70958V7.73053V7.75147V7.77241V7.79335V7.81429V7.83524V7.85618V7.87712V7.89806V7.91901V7.93995V7.96089V7.98183V8.00278V8.02372V8.04466V8.0656V8.08655V8.10749V8.12843V8.14937V8.17032V8.19126V8.2122V8.23314V8.25409V8.27503V8.29597V8.31691V8.33786V8.3588V8.37974V8.40068V8.42163V8.44257V8.46351V8.48445V8.5054V8.52634V8.54728V8.56822V8.58917V8.61011V8.63105V8.65199V8.67294V8.69388V8.71482V8.73576V8.75671V8.77765V8.79859V8.81954V8.84048V8.86142V8.88236V8.90331V8.92425V8.94519V8.96613V8.98708V9.00802V9.02896V9.0499V9.07085V9.09179V9.11273V9.13367V9.15462V9.17556V9.1965V9.21744V9.23839V9.25933V9.28027V9.30121V9.32216V9.3431V9.36404V9.38498V9.40593V9.42687V9.44781V9.46876V9.4897V9.51064V9.53158V9.55253V9.57347V9.59441V9.61535V9.6363V9.65724V9.67818V9.69912V9.72007V9.74101V9.76195V9.7829V9.80384V9.82478V9.84572V9.86667V9.88761V9.90855V9.92949V9.95044V9.97138V9.99232V10.0133V10.0342V10.0552V10.0761V10.097V10.118V10.1389V10.1599V10.1808V10.2017V10.2227V10.2436V10.2646V10.2855V10.3065V10.3274V10.3483V10.3693V10.3902V10.4112V10.4321V10.4531V10.474V10.4949V10.5159V10.5368V10.5578V10.5787V10.5997V10.6206V10.6415V10.6625V10.6834V10.7044V10.7253V10.7463V10.7672V10.7881V10.8091V10.83V10.851V10.8719V10.8929V10.9138V10.9347V10.9557V10.9766V10.9976V11.0185V11.0395V11.0604V11.0813V11.1023V11.1232V11.1442V11.1651V11.1861V11.207V11.2279V11.2489V11.2698V11.2908V11.3117V11.3327V11.3536V11.3745V11.3955V11.4164V11.4374V11.4583V11.4793V11.5002V11.5211V11.5421V11.563V11.584V11.6049V11.6259V11.6468V11.6677V11.6887V11.7096V11.7306V11.7515V11.7725V11.7934V11.8143V11.8353V11.8562V11.8772V11.8981V11.9191V11.94V11.9609V11.9819V12.0028V12.0238V12.0447V12.0657V12.0866V12.1075V12.1285V12.1494V12.1704V12.1913V12.2123V12.2332V12.2542V12.2751V12.296V12.317V12.3379V12.3589V12.3798V12.4008V12.4217V12.4426V12.4636V12.4845V12.5055V12.5264V12.5474V12.5683V12.5892V12.6102V12.6311V12.6521V12.673V12.694V12.7149V12.7358V12.7568V12.7777V12.7987V12.8196V12.8406V12.8615V12.8824V12.9034V12.9243V12.9453V12.9662V12.9872V13.0081V13.029V13.05V13.0709V13.0919V13.1128V13.1338V13.1547V13.1756V13.1966V13.2175V13.2385V13.2594V13.2804V13.3013V13.3223V13.3432V13.3641V13.3851V13.406V13.427V13.4479V13.4689V13.4898V13.5107V13.5317V13.5526V13.5736V13.5945V13.6155V13.6364V13.6573V13.6783V13.6992V13.7202V13.7411V13.7621V13.783L11.5765 13.8039ZM12.841 13.8041V9.50805H14.7855V13.8041C14.7855 14.2941 14.3504 14.7032 13.8134 14.7032C13.2746 14.7032 12.841 14.2954 12.841 13.8041Z" fill="#666666" stroke="#666666" stroke-width="0.1"/>
<path d="M9.45584 5.5V5.45H9.40584H5.3999H5.3499V5.5V6.58133V6.63133H5.3999H9.40584H9.45584V6.58133V5.5ZM9.45584 8.52626V8.47626H9.40584H5.3999H5.3499V8.52626V9.60741V9.65741H5.3999H9.40584H9.45584V9.60741V8.52626ZM9.45584 11.5523V11.5023H9.40584H5.3999H5.3499V11.5523V12.6337V12.6837H5.3999H9.40584H9.45584V12.6337V11.5523Z" fill="#666666" stroke="#666666" stroke-width="0.1"/>
</svg>
