<svg width="16" height="13" viewBox="0 0 16 13" fill="none" xmlns="http://www.w3.org/2000/svg">
<path d="M0.1495 11.4534L0.1495 11.4535C0.149273 12.2249 0.774835 12.8505 1.54634 12.8505H13.822C14.5934 12.8505 15.219 12.2249 15.219 11.4534V3.30963C15.219 2.53814 14.5934 1.91255 13.822 1.91255H6.86106H6.79701L6.75282 1.86617L5.5303 0.582951L5.53025 0.582898C5.27089 0.3104 4.91226 0.154272 4.53587 0.14974L4.53587 0.149792L4.53193 0.14964L4.51861 0.1495C4.14841 0.1495 3.79314 0.296535 3.53098 0.558702L2.22067 1.86901L2.17688 1.9128H2.11496H1.54659C0.774859 1.9128 0.1495 2.53838 0.1495 3.30988V11.4534ZM1.54634 11.6029H1.39684V11.4534V3.30988V3.16038H1.54634H2.69314L4.4129 1.44087L4.52122 1.33257L4.62686 1.44348L6.2622 3.16038H13.822H13.9715V3.30988V11.4534V11.6029H13.822H1.54634Z" fill="#FA5C5D" stroke="#F6F4F4" stroke-width="0.299"/>
<path d="M11.5905 6.83377H3.77677C3.47434 6.83377 3.22892 7.07912 3.22872 7.38166L3.07922 7.38156H3.22872C3.22872 7.68398 3.47403 7.92936 3.77677 7.92936H11.5905C11.8929 7.92936 12.1383 7.68401 12.1383 7.38156C12.1383 7.0789 11.8929 6.83377 11.5905 6.83377Z" fill="#FA5C5D" stroke="#F6F4F4" stroke-width="0.299"/>
<path d="M7.58103 4.49381H3.77677C3.4743 4.49381 3.22892 4.73894 3.22872 5.0417L3.07922 5.0416H3.22872C3.22872 5.34401 3.47403 5.58939 3.77677 5.58939H7.58103C7.88348 5.58939 8.12882 5.34405 8.12882 5.0416C8.12882 4.73893 7.88351 4.49381 7.58103 4.49381Z" fill="#FA5C5D" stroke="#F6F4F4" stroke-width="0.299"/>
<path d="M11.5895 9.17447H3.77579C3.47336 9.17447 3.22794 9.41982 3.22775 9.72236L3.07825 9.72226H3.22775C3.22775 10.0247 3.47306 10.2701 3.77579 10.2701H11.5895C11.8919 10.2701 12.1373 10.0247 12.1373 9.72226C12.1373 9.4196 11.892 9.17447 11.5895 9.17447Z" fill="#FA5C5D" stroke="#F6F4F4" stroke-width="0.299"/>
</svg>
