<svg width="16" height="16" viewBox="0 0 16 16" fill="none" xmlns="http://www.w3.org/2000/svg">
<path d="M14 3.99998H10.6667V2.88665C10.6511 2.45986 10.4668 2.05669 10.1544 1.76551C9.84198 1.47433 9.42686 1.31891 9.00003 1.33332H7.00003C6.57319 1.31891 6.15807 1.47433 5.84564 1.76551C5.53322 2.05669 5.349 2.45986 5.33336 2.88665V3.99998H2.00003C1.82321 3.99998 1.65365 4.07022 1.52862 4.19525C1.4036 4.32027 1.33336 4.48984 1.33336 4.66665C1.33336 4.84346 1.4036 5.01303 1.52862 5.13805C1.65365 5.26308 1.82321 5.33332 2.00003 5.33332H2.66669V12.6667C2.66669 13.1971 2.87741 13.7058 3.25248 14.0809C3.62755 14.4559 4.13626 14.6667 4.66669 14.6667H11.3334C11.8638 14.6667 12.3725 14.4559 12.7476 14.0809C13.1226 13.7058 13.3334 13.1971 13.3334 12.6667V5.33332H14C14.1768 5.33332 14.3464 5.26308 14.4714 5.13805C14.5965 5.01303 14.6667 4.84346 14.6667 4.66665C14.6667 4.48984 14.5965 4.32027 14.4714 4.19525C14.3464 4.07022 14.1768 3.99998 14 3.99998ZM6.66669 2.88665C6.66669 2.77998 6.80669 2.66665 7.00003 2.66665H9.00003C9.19336 2.66665 9.33336 2.77998 9.33336 2.88665V3.99998H6.66669V2.88665ZM12 12.6667C12 12.8435 11.9298 13.013 11.8048 13.1381C11.6797 13.2631 11.5102 13.3333 11.3334 13.3333H4.66669C4.48988 13.3333 4.32031 13.2631 4.19529 13.1381C4.07026 13.013 4.00003 12.8435 4.00003 12.6667V5.33332H12V12.6667Z" fill="#FA5C5D"/>
<path d="M6.00003 11.3333C6.17684 11.3333 6.34641 11.2631 6.47143 11.1381C6.59645 11.013 6.66669 10.8435 6.66669 10.6666V7.99998C6.66669 7.82317 6.59645 7.6536 6.47143 7.52858C6.34641 7.40355 6.17684 7.33331 6.00003 7.33331C5.82321 7.33331 5.65365 7.40355 5.52862 7.52858C5.4036 7.6536 5.33336 7.82317 5.33336 7.99998V10.6666C5.33336 10.8435 5.4036 11.013 5.52862 11.1381C5.65365 11.2631 5.82321 11.3333 6.00003 11.3333Z" fill="#FA5C5D"/>
<path d="M10 11.3333C10.1768 11.3333 10.3464 11.2631 10.4714 11.1381C10.5965 11.013 10.6667 10.8435 10.6667 10.6666V7.99998C10.6667 7.82317 10.5965 7.6536 10.4714 7.52858C10.3464 7.40355 10.1768 7.33331 10 7.33331C9.82322 7.33331 9.65365 7.40355 9.52862 7.52858C9.4036 7.6536 9.33336 7.82317 9.33336 7.99998V10.6666C9.33336 10.8435 9.4036 11.013 9.52862 11.1381C9.65365 11.2631 9.82322 11.3333 10 11.3333Z" fill="#FA5C5D"/>
</svg>
