<svg width="16" height="18" viewBox="0 0 16 18" fill="none" xmlns="http://www.w3.org/2000/svg">
<path d="M1.98566 17.5751C1.98566 17.6579 2.05282 17.7251 2.13566 17.7251H13.8644C13.9472 17.7251 14.0144 17.6579 14.0144 17.5751V3.51328H15C15.0829 3.51328 15.15 3.44613 15.15 3.36328V2.93554C15.15 2.8527 15.0829 2.78554 15 2.78554H10.8512V1C10.8512 0.917157 10.7841 0.85 10.7012 0.85H5.29882C5.21598 0.85 5.14882 0.917157 5.14882 1V2.78554H1C0.917157 2.78554 0.85 2.8527 0.85 2.93554V3.36328C0.85 3.44613 0.917157 3.51328 1 3.51328H1.98566V17.5751ZM13.2845 16.9973H2.7134V3.51328H13.2866L13.2845 16.9973ZM5.88427 1.5756H10.1235V2.78554H5.87742L5.88427 1.5756Z" fill="#808080" stroke="#808080" stroke-width="0.3" stroke-linejoin="round"/>
<path d="M6.55235 6.21997C6.55235 6.13713 6.4852 6.06997 6.40235 6.06997H5.97461C5.89177 6.06997 5.82461 6.13713 5.82461 6.21997V14.3236C5.82461 14.4064 5.89177 14.4736 5.97461 14.4736H6.40235C6.4852 14.4736 6.55235 14.4064 6.55235 14.3236V6.21997Z" fill="#808080" stroke="#808080" stroke-width="0.3" stroke-linejoin="round"/>
<path d="M10.1754 6.21997C10.1754 6.13713 10.1082 6.06997 10.0254 6.06997H9.59766C9.51481 6.06997 9.44766 6.13713 9.44766 6.21997V14.3236C9.44766 14.4064 9.51481 14.4736 9.59766 14.4736H10.0254C10.1082 14.4736 10.1754 14.4064 10.1754 14.3236V6.21997Z" fill="#808080" stroke="#808080" stroke-width="0.3" stroke-linejoin="round"/>
</svg>
