<svg width="11" height="21" viewBox="0 0 11 21" fill="none" xmlns="http://www.w3.org/2000/svg">
<path d="M4.125 21C1.85048 21 0 19.344 0 17.3086V4.92188C0 2.20795 2.4673 0 5.5 0C8.5327 0 11 2.20795 11 4.92188V17.3086H9.625V4.92188C9.625 2.88643 7.77453 1.23047 5.5 1.23047C3.22548 1.23047 1.375 2.88643 1.375 4.92188V17.3086C1.375 18.6656 2.60865 19.7695 4.125 19.7695C5.64135 19.7695 6.875 18.6656 6.875 17.3086V7.38281C6.875 6.70433 6.25817 6.15234 5.5 6.15234C4.74183 6.15234 4.125 6.70433 4.125 7.38281V17.3086H2.75V7.38281C2.75 6.02585 3.98365 4.92188 5.5 4.92188C7.01635 4.92188 8.25 6.02585 8.25 7.38281V17.3086C8.25 19.344 6.39953 21 4.125 21Z" fill="white"/>
</svg>
