<svg width="10" height="10" viewBox="0 0 10 10" fill="none" xmlns="http://www.w3.org/2000/svg">
<path d="M5.40653 4.64723L5.05455 5.00079L5.40732 5.35355L9.4834 9.42964L9.49109 9.43732L9.49909 9.44466C9.49925 9.44481 9.49937 9.44492 9.49946 9.445C9.49964 9.44562 9.5 9.44716 9.5 9.44973C9.5 9.45661 9.49738 9.46943 9.4834 9.4834L9.83696 9.83696L9.4834 9.4834C9.47795 9.48885 9.47055 9.49384 9.46236 9.49723C9.46009 9.49817 9.45811 9.49884 9.45652 9.4993C9.45493 9.49884 9.45295 9.49817 9.45069 9.49723C9.44249 9.49384 9.43509 9.48885 9.42964 9.4834L5.35355 5.40732L5 5.05376L4.64645 5.40732L0.57036 9.4834L0.91698 9.83002L0.570359 9.4834C0.564909 9.48885 0.557508 9.49384 0.549313 9.49723C0.547048 9.49817 0.545071 9.49884 0.543478 9.4993C0.541885 9.49884 0.539908 9.49817 0.537644 9.49723C0.529449 9.49384 0.522047 9.48885 0.516597 9.4834L0.508915 9.47572L0.500905 9.46838C0.500747 9.46823 0.50063 9.46812 0.500546 9.46804C0.500361 9.46742 0.5 9.46589 0.5 9.46332C0.5 9.45643 0.502624 9.44361 0.516598 9.42964L0.517383 9.42885L4.57535 5.35277L4.92655 5L4.57535 4.64723L0.517383 0.571148L0.509325 0.563054L0.500906 0.555336C0.500747 0.555191 0.50063 0.555079 0.500546 0.554997C0.500361 0.554379 0.5 0.552843 0.5 0.550272C0.5 0.543389 0.502625 0.530569 0.516597 0.516597L0.524279 0.508915L0.531621 0.500906C0.531766 0.500747 0.531878 0.50063 0.53196 0.500546C0.532578 0.500361 0.534114 0.5 0.536685 0.5C0.543567 0.5 0.556387 0.502625 0.570359 0.516597L4.64645 4.59268L5.00079 4.94703L5.35434 4.5919L9.41231 0.515809L9.41958 0.508504L9.42655 0.500906C9.42735 0.500032 9.42712 0.500416 9.42657 0.50065C9.42647 0.500694 9.42805 0.5 9.43161 0.5C9.43849 0.5 9.45131 0.502625 9.46529 0.516597L9.47297 0.524279L9.48098 0.53162C9.48114 0.531767 9.48126 0.531879 9.48134 0.531961C9.48153 0.53258 9.48188 0.534115 9.48188 0.536685C9.48188 0.543568 9.47926 0.556388 9.46529 0.570359L9.4645 0.571148L5.40653 4.64723Z" fill="#808080" stroke="#808080"/>
</svg>
