<svg width="12" height="14" viewBox="0 0 12 14" fill="none" xmlns="http://www.w3.org/2000/svg">
<path d="M1.66118 12.8393C1.66118 12.9221 1.72834 12.9893 1.81118 12.9893H10.1888C10.2717 12.9893 10.3388 12.9221 10.3388 12.8393V2.83805H11C11.0828 2.83805 11.15 2.7709 11.15 2.68805V2.38252C11.15 2.29968 11.0828 2.23252 11 2.23252H8.07942V1C8.07942 0.917157 8.01226 0.85 7.92942 0.85H4.07058C3.98773 0.85 3.92058 0.917157 3.92058 1V2.23252H1C0.917157 2.23252 0.85 2.29968 0.85 2.38252V2.68805C0.85 2.7709 0.917157 2.83805 1 2.83805H1.66118V12.8393ZM9.73326 2.83805L9.73178 12.3838H2.26671V2.83805H9.73326ZM4.52696 2.23252L4.53137 1.454H7.47389V2.23252H4.52696Z" fill="#808080" stroke="#808080" stroke-width="0.3" stroke-linejoin="round"/>
</svg>
