<svg width="34" height="34" viewBox="0 0 34 34" fill="none" xmlns="http://www.w3.org/2000/svg">
<path d="M8.08085 29.7376L8.08862 29.7428L8.09697 29.747C8.15014 29.7735 8.1971 29.7903 8.24794 29.7987C8.29296 29.8062 8.33662 29.8062 8.37572 29.8062H8.38114H8.38575C8.42588 29.8062 8.47847 29.8062 8.52719 29.7993C8.57051 29.7931 8.63246 29.7788 8.68528 29.736L17.9722 24.5526H28.4839C30.8245 24.5526 32.7587 22.6184 32.7587 20.2778V5.12476C32.7587 2.78415 30.8245 0.85 28.4839 0.85H5.12476C2.78415 0.85 0.85 2.78415 0.85 5.12476V20.2344C0.85 22.575 2.78415 24.5091 5.12476 24.5091H7.79696V29.222C7.79696 29.4539 7.91602 29.6277 8.08085 29.7376ZM2.01837 5.12476C2.01837 3.42744 3.42744 2.01837 5.12476 2.01837H28.4839C30.1812 2.01837 31.5903 3.42744 31.5903 5.12476V20.2778C31.5903 21.9751 30.1812 23.3842 28.4839 23.3842H17.803H17.7983C17.7582 23.3842 17.7056 23.3842 17.6569 23.3911C17.6135 23.3973 17.5514 23.4117 17.4985 23.4547L8.96533 28.2704V23.9684C8.96533 23.804 8.90989 23.6554 8.80199 23.5475C8.69409 23.4396 8.54549 23.3842 8.38114 23.3842H5.12476C3.42744 23.3842 2.01837 21.9751 2.01837 20.2778V5.12476Z"/>
<path d="M9.1191 15.5366C10.1371 15.5366 10.9624 14.7114 10.9624 13.6933C10.9624 12.6753 10.1371 11.85 9.1191 11.85C8.10106 11.85 7.27578 12.6753 7.27578 13.6933C7.27578 14.7114 8.10106 15.5366 9.1191 15.5366Z"/>
<path d="M16.8046 15.478C17.8227 15.478 18.648 14.6528 18.648 13.6347C18.648 12.6167 17.8227 11.7914 16.8046 11.7914C15.7866 11.7914 14.9613 12.6167 14.9613 13.6347C14.9613 14.6528 15.7866 15.478 16.8046 15.478Z"/>
<path d="M24.6621 15.478C25.6801 15.478 26.5054 14.6528 26.5054 13.6347C26.5054 12.6167 25.6801 11.7914 24.6621 11.7914C23.644 11.7914 22.8187 12.6167 22.8187 13.6347C22.8187 14.6528 23.644 15.478 24.6621 15.478Z"/>
</svg>
