<svg width="13" height="10" viewBox="0 0 13 10" fill="none" xmlns="http://www.w3.org/2000/svg">
<path d="M12.7418 5.12655C11.3664 2.22911 9.28725 0.770966 6.50008 0.770966C3.71147 0.770966 1.63379 2.22911 0.258343 5.128C0.203173 5.24482 0.174561 5.37241 0.174561 5.5016C0.174561 5.63079 0.203173 5.75838 0.258343 5.87521C1.63379 8.77264 3.71292 10.2308 6.50008 10.2308C9.2887 10.2308 11.3664 8.77264 12.7418 5.87376C12.8535 5.63871 12.8535 5.36594 12.7418 5.12655ZM6.50008 9.18614C4.15979 9.18614 2.44629 7.99931 1.2377 5.50088C2.44629 3.00244 4.15979 1.81561 6.50008 1.81561C8.84037 1.81561 10.5539 3.00244 11.7625 5.50088C10.5553 7.99931 8.84183 9.18614 6.50008 9.18614ZM6.44205 2.9473C5.03178 2.9473 3.88848 4.09061 3.88848 5.50088C3.88848 6.91114 5.03178 8.05445 6.44205 8.05445C7.85232 8.05445 8.99562 6.91114 8.99562 5.50088C8.99562 4.09061 7.85232 2.9473 6.44205 2.9473ZM6.44205 7.12588C5.54395 7.12588 4.81705 6.39898 4.81705 5.50088C4.81705 4.60277 5.54395 3.87588 6.44205 3.87588C7.34015 3.87588 8.06705 4.60277 8.06705 5.50088C8.06705 6.39898 7.34015 7.12588 6.44205 7.12588Z" fill="white"/>
<path d="M12.7418 5.12655C11.3664 2.22911 9.28725 0.770966 6.50008 0.770966C3.71147 0.770966 1.63379 2.22911 0.258343 5.128C0.203173 5.24482 0.174561 5.37241 0.174561 5.5016C0.174561 5.63079 0.203173 5.75838 0.258343 5.87521C1.63379 8.77264 3.71292 10.2308 6.50008 10.2308C9.2887 10.2308 11.3664 8.77264 12.7418 5.87376C12.8535 5.63871 12.8535 5.36594 12.7418 5.12655ZM6.50008 9.18614C4.15979 9.18614 2.44629 7.99931 1.2377 5.50088C2.44629 3.00244 4.15979 1.81561 6.50008 1.81561C8.84037 1.81561 10.5539 3.00244 11.7625 5.50088C10.5553 7.99931 8.84183 9.18614 6.50008 9.18614ZM6.44205 2.9473C5.03178 2.9473 3.88848 4.09061 3.88848 5.50088C3.88848 6.91114 5.03178 8.05445 6.44205 8.05445C7.85232 8.05445 8.99562 6.91114 8.99562 5.50088C8.99562 4.09061 7.85232 2.9473 6.44205 2.9473ZM6.44205 7.12588C5.54395 7.12588 4.81705 6.39898 4.81705 5.50088C4.81705 4.60277 5.54395 3.87588 6.44205 3.87588C7.34015 3.87588 8.06705 4.60277 8.06705 5.50088C8.06705 6.39898 7.34015 7.12588 6.44205 7.12588Z" stroke="gray"/>
</svg>
