<svg width="33" height="28" viewBox="0 0 33 28" fill="none" xmlns="http://www.w3.org/2000/svg">
<path d="M18.1964 7.78442L18.1956 7.78526C18.148 7.835 18.1107 7.89365 18.0856 7.95777L18.2252 8.01254L18.0856 7.95777C18.0604 8.02189 18.0479 8.09033 18.0486 8.15923C18.0494 8.22813 18.0633 8.29629 18.0898 8.35985C18.1163 8.42342 18.1549 8.48125 18.2035 8.52994C18.2521 8.57864 18.3098 8.61724 18.3734 8.64338C18.437 8.66951 18.5051 8.6826 18.5738 8.68182C18.6425 8.68104 18.7104 8.66639 18.7733 8.63883C18.8361 8.61135 18.8928 8.57161 18.9402 8.52206C18.9403 8.5219 18.9405 8.52175 18.9406 8.52159L24.9214 2.36133L24.9215 2.36125C25.6492 1.61054 26.5721 1.57653 27.0137 2.032C27.0137 2.03201 27.0138 2.03202 27.0138 2.03203L31.4225 6.58233L31.4225 6.58236C31.8685 7.04242 31.8292 8.00925 31.101 8.76041L31.2052 8.8614L31.101 8.76041L21.6636 18.496C20.9358 19.2467 20.0129 19.2807 19.5713 18.8252L19.5712 18.8251L15.4775 14.6092C15.4331 14.5546 15.3781 14.5095 15.3158 14.4768C15.251 14.4428 15.1797 14.4231 15.1067 14.4191C15.0336 14.4151 14.9606 14.4269 14.8925 14.4536C14.8244 14.4803 14.7628 14.5214 14.7116 14.5738C14.6605 14.6262 14.6209 14.6888 14.5952 14.7574C14.5695 14.8261 14.5582 14.8994 14.5621 14.9726C14.5659 15.0458 14.5847 15.1176 14.6175 15.1831C14.6489 15.246 14.6925 15.3019 14.7458 15.3475L18.8277 19.5631L18.8278 19.5631C19.7787 20.5441 21.3773 20.2844 22.3956 19.234C22.3956 19.234 22.3956 19.2339 22.3956 19.2339L31.8445 9.49839L31.8445 9.49833C32.8632 8.4476 33.1005 6.80849 32.1545 5.83268L32.1544 5.83257L27.7458 1.29411C27.3329 0.868144 26.797 0.677723 26.2357 0.684141C26.159 0.685018 26.0745 0.687646 25.9914 0.696789C25.3471 0.767666 24.6915 1.09356 24.1779 1.62333L18.1964 7.78442ZM1.75551 18.4959L1.75545 18.496C0.73685 19.5467 0.499478 21.1859 1.44546 22.1617L1.44557 22.1618L5.85419 26.7002C6.80433 27.6803 8.40269 27.4343 9.42205 26.3828L9.42208 26.3827L15.4037 20.2098L15.4038 20.2097C15.4518 20.16 15.4896 20.1013 15.5151 20.0371C15.5406 19.9729 15.5534 19.9042 15.5528 19.8351C15.5523 19.7659 15.5384 19.6975 15.5119 19.6336C15.4854 19.5698 15.4467 19.5117 15.3979 19.4629C15.3491 19.414 15.2912 19.3753 15.2274 19.3492C15.1635 19.323 15.0951 19.31 15.0262 19.311C14.9572 19.312 14.8892 19.3269 14.8261 19.3549C14.7633 19.3827 14.7068 19.4227 14.6595 19.4726C14.6593 19.4728 14.659 19.4731 14.6588 19.4734L8.67853 25.6448C7.95229 26.394 7.02903 26.419 6.58623 25.9623L6.58613 25.9622L2.17751 21.4237C2.17747 21.4237 2.17744 21.4237 2.1774 21.4236C1.73137 20.9634 1.771 19.9849 2.49898 19.2339L11.9364 9.49833C12.6642 8.74762 13.5871 8.7136 14.0287 9.16911L14.0288 9.1692L18.1225 13.3852C18.1669 13.4398 18.2219 13.4849 18.2842 13.5175C18.349 13.5515 18.4203 13.5712 18.4933 13.5752C18.5664 13.5792 18.6394 13.5674 18.7075 13.5407C18.7756 13.514 18.8372 13.473 18.8884 13.4206L18.781 13.3158L18.8884 13.4206C18.9395 13.3682 18.9791 13.3056 19.0048 13.2369L18.8643 13.1843L19.0048 13.2369C19.0305 13.1683 19.0418 13.0949 19.0379 13.0217C19.0341 12.9485 19.0153 12.8768 18.9825 12.8112C18.9511 12.7484 18.9075 12.6924 18.8542 12.6469L14.7723 8.43125L14.7722 8.43119C14.3588 8.00468 13.8133 7.81482 13.2506 7.82122C13.1736 7.8221 13.0894 7.82473 13.0063 7.83387C12.3612 7.90482 11.7174 8.23125 11.2044 8.76035C11.2044 8.76037 11.2044 8.76039 11.2044 8.76041L1.75551 18.4959Z" fill="#333333" stroke="#333333" stroke-width="0.3"/>
</svg>
