<svg width="14" height="14" viewBox="0 0 14 14" fill="none" xmlns="http://www.w3.org/2000/svg">
<path d="M7 0C5.61553 0 4.26215 0.410543 3.11101 1.17971C1.95987 1.94888 1.06266 3.04213 0.532846 4.32122C0.003033 5.6003 -0.13559 7.00776 0.134506 8.36563C0.404603 9.7235 1.07129 10.9708 2.05026 11.9497C3.02922 12.9287 4.2765 13.5954 5.63437 13.8655C6.99224 14.1356 8.3997 13.997 9.67879 13.4672C10.9579 12.9373 12.0511 12.0401 12.8203 10.889C13.5895 9.73785 14 8.38447 14 7C13.9979 5.14413 13.2597 3.36489 11.9474 2.05259C10.6351 0.740294 8.85587 0.00211619 7 0ZM7.87469 10.321C7.87438 10.5528 7.78209 10.775 7.6181 10.9388C7.4541 11.1025 7.2318 11.1945 7.00003 11.1945C6.76826 11.1945 6.54596 11.1025 6.38197 10.9388C6.21797 10.775 6.12568 10.5528 6.12537 10.321V6.38685C6.12568 6.15508 6.21797 5.93291 6.38197 5.76913C6.54596 5.60535 6.76826 5.51336 7.00003 5.51336C7.2318 5.51336 7.4541 5.60535 7.6181 5.76913C7.78209 5.93291 7.87438 6.15508 7.87469 6.38685V10.321ZM7.00008 4.55355C6.82709 4.55355 6.65799 4.50226 6.51416 4.40615C6.37032 4.31005 6.25822 4.17345 6.19202 4.01364C6.12582 3.85382 6.1085 3.67796 6.14224 3.5083C6.17599 3.33864 6.25929 3.18279 6.3816 3.06047C6.50392 2.93815 6.65977 2.85485 6.82943 2.8211C6.99909 2.78735 7.17495 2.80467 7.33477 2.87086C7.49458 2.93706 7.63118 3.04916 7.72729 3.19299C7.8234 3.33683 7.8747 3.50593 7.8747 3.67891C7.87468 3.91087 7.78253 4.13333 7.61851 4.29735C7.45449 4.46138 7.23204 4.55353 7.00008 4.55355Z" fill="#BCBBBB"/>
</svg>
