<svg width="25" height="35" viewBox="0 0 25 35" fill="none" xmlns="http://www.w3.org/2000/svg">
<circle cx="12.5" cy="10.5" r="10.5" fill="#F3DB71"/>
<circle cx="12.5" cy="10.5" r="9" fill="#ECB73F"/>
<path d="M17.2992 10.11L14.9992 8.26V7C15.0114 6.74747 14.923 6.50039 14.7534 6.31293C14.5838 6.12548 14.3467 6.01294 14.0942 6H8.3942C8.14348 6.01548 7.90896 6.12912 7.74144 6.31629C7.57391 6.50347 7.48688 6.74911 7.4992 7V12C7.49456 12.1986 7.54914 12.394 7.656 12.5614C7.76286 12.7288 7.91715 12.8606 8.0992 12.94C8.00711 13.1653 7.97123 13.4096 7.99463 13.6518C8.01803 13.894 8.10003 14.127 8.23353 14.3304C8.36704 14.5339 8.54805 14.7018 8.76095 14.8198C8.97384 14.9377 9.21223 15.002 9.45554 15.0072C9.69885 15.0124 9.93978 14.9584 10.1575 14.8497C10.3753 14.741 10.5633 14.581 10.7054 14.3834C10.8475 14.1858 10.9394 13.9566 10.9732 13.7156C11.0069 13.4746 10.9815 13.229 10.8992 13H14.0792C13.997 13.2266 13.9705 13.4696 14.0022 13.7086C14.0338 13.9475 14.1225 14.1753 14.2609 14.3727C14.3992 14.5701 14.5831 14.7312 14.7969 14.8424C15.0107 14.9537 15.2482 15.0118 15.4892 15.0118C15.7302 15.0118 15.9677 14.9537 16.1815 14.8424C16.3953 14.7312 16.5792 14.5701 16.7175 14.3727C16.8559 14.1753 16.9446 13.9475 16.9762 13.7086C17.0079 13.4696 16.9814 13.2266 16.8992 13H16.9992C17.1318 13 17.259 12.9473 17.3528 12.8536C17.4465 12.7598 17.4992 12.6326 17.4992 12.5V10.5C17.4977 10.4241 17.4789 10.3495 17.4442 10.2819C17.4096 10.2143 17.36 10.1556 17.2992 10.11ZM16.4992 10.74V12H14.9992V9.54L16.4992 10.74ZM9.9992 13.5C9.9992 13.5989 9.96987 13.6956 9.91493 13.7778C9.85999 13.86 9.7819 13.9241 9.69054 13.9619C9.59917 13.9998 9.49864 14.0097 9.40165 13.9904C9.30466 13.9711 9.21557 13.9235 9.14564 13.8536C9.07572 13.7836 9.0281 13.6945 9.0088 13.5975C8.98951 13.5006 8.99941 13.4 9.03726 13.3087C9.0751 13.2173 9.13919 13.1392 9.22141 13.0843C9.30364 13.0293 9.40031 13 9.4992 13C9.6318 13 9.75898 13.0527 9.85275 13.1464C9.94652 13.2402 9.9992 13.3674 9.9992 13.5ZM12.4992 12H8.4992V7H13.9992V12H12.4992ZM15.9992 13.5C15.9992 13.5989 15.9699 13.6956 15.9149 13.7778C15.86 13.86 15.7819 13.9241 15.6905 13.9619C15.5992 13.9998 15.4986 14.0097 15.4017 13.9904C15.3047 13.9711 15.2156 13.9235 15.1456 13.8536C15.0757 13.7836 15.0281 13.6945 15.0088 13.5975C14.9895 13.5006 14.9994 13.4 15.0373 13.3087C15.0751 13.2173 15.1392 13.1392 15.2214 13.0843C15.3036 13.0293 15.4003 13 15.4992 13C15.6318 13 15.759 13.0527 15.8528 13.1464C15.9465 13.2402 15.9992 13.3674 15.9992 13.5Z" fill="white"/>
<rect y="25" width="25" height="10" rx="2" fill="#ECB73F"/>
<path d="M8.29855 28.04V32H7.35055L5.96455 29.672L5.62255 29.024H5.61655L5.64055 29.708V32H4.89655V28.04H5.83855L7.22455 30.362L7.56655 31.016H7.57855L7.55455 30.332V28.04H8.29855ZM9.45209 32V28.04H12.4221V28.706H10.2801V29.69H11.9661V30.326H10.2801V31.334H12.5061V32H9.45209ZM16.597 32H15.613L14.749 30.596L13.897 32H12.949L14.311 30.002L13.045 28.04H14.017L14.815 29.372L15.625 28.04H16.525L15.253 29.972L16.597 32ZM20.4589 28.04V28.706H19.1329V32H18.3049V28.706H16.9729V28.04H20.4589Z" fill="white"/>
</svg>
