<svg width="30" height="32" viewBox="0 0 30 32" fill="none" xmlns="http://www.w3.org/2000/svg">
<path d="M28.2153 23.7758C27.566 21.9614 27.2223 20.0699 27.2223 18.1397V13.353C27.2223 6.59744 21.9514 1 15 1C8.04862 1 2.77778 6.59744 2.77778 13.353V18.2555C2.77778 20.1085 2.43403 21.9614 1.78472 23.7372L1.25 25.2041C1.25 26.3236 2.16667 27.25 3.27431 27.25H26.7257C27.8334 27.25 28.7501 26.3236 28.7501 25.2041L28.2153 23.7758Z" stroke="#FA5C5D" stroke-width="1.5" stroke-miterlimit="10"/>
<path d="M22.5 11C22.15 10.4619 21.8 9.92382 21.4063 9.42713M17.9938 6.48838C16.725 5.70196 15.2813 5.12249 13.75 4.74997L17.9938 6.48838Z" stroke="#FA5C5D" stroke-width="1.5" stroke-miterlimit="10" stroke-linecap="round"/>
<path d="M18.75 27.2501C18.75 29.3126 17.0625 31.0001 15 31.0001C12.9375 31.0001 11.25 29.3126 11.25 27.2501" stroke="#FA5C5D" stroke-width="1.5" stroke-miterlimit="10"/>
</svg>
