<svg width="30" height="35" viewBox="0 0 30 35" fill="none" xmlns="http://www.w3.org/2000/svg">
<path d="M20.2998 0.339233L20.2998 0.339207C20.205 0.242668 20.0743 0.188281 19.9381 0.188281H3.52541C2.08186 0.188281 0.95 1.31638 0.95 2.75574V30.802C0.95 32.2749 2.08072 33.4311 3.52541 33.4311H24.5765C26.0453 33.4311 27.288 32.2292 27.2881 30.802V7.66376C27.2881 7.53542 27.2373 7.41217 27.1472 7.32L27.1471 7.31995L20.2998 0.339233ZM1.95531 2.75574C1.95531 1.8549 2.6296 1.17781 3.52541 1.17781H19.7246L26.2828 7.86356V30.802C26.2828 31.6725 25.4863 32.4415 24.5765 32.4415H3.52541C2.64659 32.4415 1.95531 31.7237 1.95531 30.802V2.75574Z"/>
<path d="M22.0781 8.18951H26.7846C27.0613 8.18951 27.2873 7.96898 27.2873 7.6947C27.2873 7.42043 27.0613 7.19994 26.7846 7.19994H22.0781C21.1993 7.19994 20.508 6.48206 20.508 5.56037V0.683168C20.508 0.408891 20.2821 0.188403 20.0054 0.188403C19.7287 0.188403 19.5027 0.408891 19.5027 0.683168V5.56041C19.5027 7.03336 20.6335 8.18951 22.0781 8.18951Z"/>
<circle cx="23" cy="28" r="6.5" fill="white" stroke=""/>
<path d="M23.4565 28L25.8913 25.5543C26.0217 25.4239 26.0217 25.2174 25.8913 25.0978C25.7609 24.9674 25.5543 24.9674 25.4348 25.0978L23 27.5435L20.5543 25.0978C20.4239 24.9674 20.2174 24.9674 20.0978 25.0978C19.9674 25.2283 19.9674 25.4348 20.0978 25.5543L22.5326 28L20.0978 30.4457C19.9674 30.5761 19.9674 30.7826 20.0978 30.9022C20.163 30.9674 20.25 31 20.3261 31C20.4022 31 20.4891 30.9674 20.5543 30.9022L23 28.4565L25.4457 30.9022C25.5109 30.9674 25.5978 31 25.6739 31C25.75 31 25.837 30.9674 25.9022 30.9022C26.0326 30.7717 26.0326 30.5652 25.9022 30.4457L23.4565 28Z"/>
</svg>
