<svg width="30" height="36" viewBox="0 0 30 36" fill="none" xmlns="http://www.w3.org/2000/svg">
<path d="M20.2998 0.86267L20.2998 0.862645C20.205 0.766105 20.0743 0.711719 19.9381 0.711719H3.52541C2.08186 0.711719 0.95 1.83982 0.95 3.27917V31.3254C0.95 32.7984 2.08072 33.9545 3.52541 33.9545H24.5765C26.0453 33.9545 27.288 32.7526 27.2881 31.3254V8.1872C27.2881 8.05886 27.2373 7.93561 27.1472 7.84344L27.1471 7.84338L20.2998 0.86267ZM1.95531 3.27917C1.95531 2.37834 2.6296 1.70125 3.52541 1.70125H19.7246L26.2828 8.387V31.3254C26.2828 32.1959 25.4863 32.965 24.5765 32.965H3.52541C2.64659 32.965 1.95531 32.2471 1.95531 31.3254V3.27917Z"/>
<path d="M22.0781 8.71295H26.7846C27.0613 8.71295 27.2873 8.49241 27.2873 8.21814C27.2873 7.94386 27.0613 7.72338 26.7846 7.72338H22.0781C21.1993 7.72338 20.508 7.00549 20.508 6.0838V1.20661C20.508 0.932329 20.2821 0.711841 20.0054 0.711841C19.7287 0.711841 19.5027 0.932328 19.5027 1.20661V6.08385C19.5027 7.5568 20.6335 8.71295 22.0781 8.71295Z"/>
<circle cx="23" cy="28.7617" r="6.5" fill="white"/>
<path d="M21.7821 29.7826C21.8898 29.8903 22.0631 29.8909 22.1716 29.7844C22.2822 29.6791 22.2823 29.4987 22.1719 29.3932L20.7942 28.0155H25.5169C26.2022 28.0155 26.6296 28.3799 26.8169 28.8459C26.8898 29.0347 26.9292 29.2383 26.9292 29.441C26.9292 29.6437 26.8899 29.8473 26.817 30.036C26.6294 30.4993 26.2017 30.8666 25.5169 30.8666H21.7389C21.5864 30.8666 21.4629 30.9901 21.4629 31.1426C21.4629 31.2951 21.5864 31.4187 21.7389 31.4187H25.5169C26.4508 31.4187 27.0607 30.9037 27.3276 30.2404C27.4316 29.9857 27.4813 29.711 27.4813 29.441C27.4813 29.1676 27.4316 28.8962 27.3277 28.6417C27.0607 27.9784 26.4508 27.4634 25.5169 27.4634H20.7942L22.1733 26.0842C22.2817 25.9759 22.2817 25.8013 22.1733 25.693C22.065 25.5846 21.8904 25.5846 21.7821 25.693L19.9312 27.5438C19.8229 27.6522 19.8229 27.8267 19.9312 27.9351L19.9313 27.9352L21.7821 29.7826ZM21.7821 29.7826L21.888 29.6767L21.7822 29.7827L21.7821 29.7826Z"/>
</svg>
