<svg width="32" height="32" viewBox="0 0 32 32" fill="none" xmlns="http://www.w3.org/2000/svg">
<path d="M2.5 29C2.5 29.2022 2.62182 29.3846 2.80866 29.4619C2.9955 29.5393 3.21055 29.4966 3.35355 29.3536L8.98488 23.7222H26.1111C27.0099 23.7222 27.8719 23.3652 28.5074 22.7296C29.143 22.0941 29.5 21.2321 29.5 20.3333V5.88889C29.5 4.9901 29.143 4.12812 28.5074 3.49258C27.8719 2.85704 27.0099 2.5 26.1111 2.5H5.88889C4.9901 2.5 4.12812 2.85704 3.49258 3.49258C2.85704 4.12812 2.5 4.9901 2.5 5.88889V29Z" stroke-linecap="round" stroke-linejoin="round"/>
<path d="M16.5 14.4999C17.6046 14.4999 18.5 13.6045 18.5 12.4999C18.5 11.3954 17.6046 10.4999 16.5 10.4999C15.3954 10.4999 14.5 11.3954 14.5 12.4999C14.5 13.6045 15.3954 14.4999 16.5 14.4999Z" stroke-linecap="round" stroke-linejoin="round"/>
<path d="M20.6575 14.2019L20.6574 14.2019C20.6312 14.2613 20.6234 14.3272 20.635 14.3911C20.6464 14.4543 20.6764 14.5126 20.7209 14.5588L20.7484 14.5862C20.7484 14.5863 20.7485 14.5864 20.7485 14.5864C20.8879 14.7257 20.9985 14.8911 21.0739 15.0731C21.1494 15.2552 21.1883 15.4504 21.1883 15.6475C21.1883 15.8446 21.1494 16.0398 21.0739 16.2219C20.9985 16.4039 20.8879 16.5693 20.7486 16.7086M20.6575 14.2019L12.645 16.395C12.7379 16.488 12.8482 16.5617 12.9696 16.6121C13.091 16.6624 13.2211 16.6883 13.3525 16.6883C13.4839 16.6883 13.614 16.6624 13.7354 16.6121C13.8568 16.5617 13.9671 16.488 14.06 16.395L14.4136 16.7485L14.4138 16.7484L14.4412 16.7209C14.4873 16.6764 14.5457 16.6464 14.6089 16.635C14.6728 16.6234 14.7387 16.6312 14.7981 16.6574C14.8078 16.6617 14.8175 16.6656 14.8274 16.6693C14.8886 16.6918 14.9416 16.7322 14.9796 16.7852C15.0166 16.837 15.0376 16.8986 15.04 16.9622V17C15.04 17.3978 15.198 17.7794 15.4793 18.0607C15.7606 18.342 16.1422 18.5 16.54 18.5C16.9378 18.5 17.3194 18.342 17.6007 18.0607C17.882 17.7794 18.04 17.3978 18.04 17V16.9163C18.0404 16.8531 18.0592 16.7915 18.094 16.7388C18.129 16.686 18.1787 16.6445 18.237 16.6196L18.237 16.6196L18.2419 16.6174C18.3013 16.5912 18.3672 16.5834 18.4311 16.595C18.4943 16.6064 18.5526 16.6364 18.5988 16.6809L18.6262 16.7084C18.6263 16.7084 18.6264 16.7085 18.6264 16.7086C18.7657 16.8479 18.9311 16.9585 19.1131 17.0339C19.2952 17.1094 19.4904 17.1483 19.6875 17.1483C19.8846 17.1483 20.0798 17.1094 20.2619 17.0339C20.4439 16.9585 20.6093 16.8479 20.7486 16.7086M20.6575 14.2019L20.6596 14.197C20.6845 14.1387 20.726 14.089 20.7788 14.054C20.8315 14.0192 20.8931 14.0004 20.9563 14H21C21.3978 14 21.7794 13.842 22.0607 13.5607C22.342 13.2794 22.5 12.8978 22.5 12.5C22.5 12.1022 22.342 11.7206 22.0607 11.4393C21.7794 11.158 21.3978 11 21 11H20.9163C20.8531 10.9996 20.7915 10.9808 20.7388 10.946C20.7034 10.9225 20.6731 10.8924 20.6494 10.8575C20.6423 10.8235 20.6316 10.7901 20.6174 10.7581C20.5912 10.6987 20.5834 10.6328 20.595 10.5689C20.6064 10.5057 20.6364 10.4474 20.6809 10.4012L20.7084 10.3738C20.7084 10.3737 20.7085 10.3736 20.7086 10.3736C20.8479 10.2343 20.9585 10.0689 21.0339 9.88691C21.1094 9.70481 21.1483 9.50962 21.1483 9.3125C21.1483 9.11538 21.1094 8.92019 21.0339 8.73809C20.9585 8.55616 20.848 8.39087 20.7088 8.25164C20.5694 8.11218 20.404 8.00154 20.2219 7.92605C20.0398 7.85057 19.8446 7.81171 19.6475 7.81171C19.4504 7.81171 19.2552 7.85057 19.0731 7.92605C18.8911 8.0015 18.7257 8.11207 18.5864 8.25145C18.5864 8.25151 18.5863 8.25158 18.5862 8.25164L18.5588 8.27906C18.5127 8.32364 18.4543 8.35357 18.3911 8.36502C18.3272 8.37661 18.2613 8.36879 18.2019 8.34257L18.2019 8.34254L18.197 8.34043C18.1387 8.31546 18.089 8.274 18.054 8.22116C18.0192 8.16852 18.0004 8.10687 18 8.04375V8C18 7.60217 17.842 7.22064 17.5607 6.93934C17.2794 6.65804 16.8978 6.5 16.5 6.5C16.1022 6.5 15.7206 6.65804 15.4393 6.93934C15.158 7.22064 15 7.60217 15 8V8.08375C14.9996 8.14687 14.9808 8.20852 14.946 8.26116C14.9225 8.29662 14.8924 8.32695 14.8575 8.35061C14.8235 8.35775 14.7901 8.36844 14.7581 8.38257C14.6987 8.40879 14.6328 8.41661 14.5689 8.40502C14.5057 8.39357 14.4473 8.36364 14.4012 8.31905L14.3737 8.29164L14.3736 8.29145L14.02 8.645L20.6575 14.2019ZM20.7486 16.7086C20.7486 16.7085 20.7487 16.7084 20.7488 16.7084L20.395 16.355L20.7484 16.7088C20.7484 16.7087 20.7485 16.7086 20.7486 16.7086ZM12.3191 14.5988C12.3636 14.5527 12.3936 14.4943 12.405 14.4311C12.4166 14.3672 12.4088 14.3013 12.3826 14.2419L12.3804 14.237L12.3804 14.237C12.3555 14.1787 12.314 14.129 12.2612 14.094C12.2085 14.0592 12.1469 14.0404 12.0837 14.04H12C11.6022 14.04 11.2206 13.882 10.9393 13.6007C10.658 13.3194 10.5 12.9378 10.5 12.54C10.5 12.1422 10.658 11.7606 10.9393 11.4793C11.2206 11.198 11.6022 11.04 12 11.04H12.0378C12.1014 11.0376 12.163 11.0166 12.2148 10.9796C12.2678 10.9416 12.3082 10.8886 12.3307 10.8274C12.3344 10.8175 12.3383 10.8078 12.3426 10.7981C12.3688 10.7387 12.3766 10.6728 12.365 10.6089C12.3536 10.5457 12.3236 10.4873 12.2791 10.4412L12.2516 10.4137L12.2514 10.4136L12.605 10.06C12.512 9.96713 12.4383 9.85684 12.3879 9.73544C12.3376 9.61404 12.3117 9.48392 12.3117 9.3525C12.3117 9.22108 12.3376 9.09096 12.3879 8.96956C12.4383 8.84816 12.512 8.73787 12.605 8.645L12.3191 14.5988ZM12.3191 14.5988L12.2916 14.6262L12.3191 14.5988Z" stroke-linecap="round" stroke-linejoin="round"/>
</svg>
