<svg width="22" height="22" viewBox="0 0 22 22" fill="none" xmlns="http://www.w3.org/2000/svg">
<ellipse cx="10.881" cy="11" rx="10.4708" ry="10.5" fill="#BDBDBD"/>
<ellipse cx="10.8812" cy="11" rx="8.975" ry="9" fill="#828282"/>
<path d="M14.9308 8.355L13.5197 6.94C13.2394 6.65862 12.8592 6.50035 12.4626 6.5H9.30143C8.90485 6.50035 8.52463 6.65862 8.24438 6.94L6.83331 8.355C6.55271 8.63603 6.39488 9.01731 6.39453 9.415V14C6.39453 14.3978 6.55213 14.7794 6.83265 15.0607C7.11317 15.342 7.49364 15.5 7.89036 15.5H13.8737C14.2704 15.5 14.6509 15.342 14.9314 15.0607C15.2119 14.7794 15.3695 14.3978 15.3695 14V9.415C15.3692 9.01731 15.2114 8.63603 14.9308 8.355ZM8.94742 7.645C9.04297 7.55363 9.16942 7.50184 9.30143 7.5H12.4626C12.5946 7.50184 12.7211 7.55363 12.8166 7.645L13.6693 8.5H8.09479L8.94742 7.645ZM13.8737 14.5H7.89036C7.75812 14.5 7.6313 14.4473 7.53779 14.3536C7.44429 14.2598 7.39175 14.1326 7.39175 14V9.5H14.3723V14C14.3723 14.1326 14.3198 14.2598 14.2263 14.3536C14.1328 14.4473 14.0059 14.5 13.8737 14.5Z" fill="white"/>
<path d="M12.377 10.5C12.2448 10.5 12.1179 10.5527 12.0244 10.6464C11.9309 10.7402 11.8784 10.8674 11.8784 11C11.8784 11.2652 11.7733 11.5196 11.5863 11.7071C11.3993 11.8946 11.1456 12 10.8812 12C10.6167 12 10.363 11.8946 10.176 11.7071C9.98901 11.5196 9.88394 11.2652 9.88394 11C9.88394 10.8674 9.83141 10.7402 9.7379 10.6464C9.64439 10.5527 9.51757 10.5 9.38533 10.5C9.25309 10.5 9.12627 10.5527 9.03276 10.6464C8.93925 10.7402 8.88672 10.8674 8.88672 11C8.88672 11.5304 9.09685 12.0391 9.47088 12.4142C9.84491 12.7893 10.3522 13 10.8812 13C11.4101 13 11.9174 12.7893 12.2914 12.4142C12.6655 12.0391 12.8756 11.5304 12.8756 11C12.8756 10.8674 12.8231 10.7402 12.7296 10.6464C12.6361 10.5527 12.5092 10.5 12.377 10.5Z" fill="white"/>
</svg>
