<svg width="34" height="34" viewBox="0 0 34 34" fill="none" xmlns="http://www.w3.org/2000/svg">
<path d="M7.29609 10.8462C7.29609 16.3858 11.8026 20.8923 17.3422 20.8923C22.8819 20.8923 27.3884 16.3858 27.3884 10.8462C27.3884 5.3065 22.8819 0.8 17.3422 0.8C11.8026 0.8 7.29609 5.3065 7.29609 10.8462ZM8.2431 10.8462C8.2431 5.82902 12.3251 1.74701 17.3422 1.74701C22.3593 1.74701 26.4414 5.82902 26.4414 10.8462C26.4414 15.8633 22.3593 19.9453 17.3422 19.9453C12.3251 19.9453 8.2431 15.8633 8.2431 10.8462Z" fill="#343434" stroke="#343434" stroke-width="0.4"/>
<path d="M0.8 23.1539C0.8 28.6935 5.3065 33.2 10.8462 33.2C16.3858 33.2 20.8923 28.6935 20.8923 23.1539C20.8923 17.6142 16.3858 13.1077 10.8462 13.1077C5.3065 13.1077 0.8 17.6142 0.8 23.1539ZM1.74701 23.1539C1.74701 18.1368 5.82902 14.0547 10.8462 14.0547C15.8633 14.0547 19.9453 18.1368 19.9453 23.1539C19.9453 28.171 15.8633 32.253 10.8462 32.253C5.82902 32.253 1.74701 28.171 1.74701 23.1539Z" fill="#343434" stroke="#343434" stroke-width="0.4"/>
<path d="M13.1086 23.1539C13.1086 28.6935 17.6151 33.2 23.1547 33.2C28.6944 33.2 33.2009 28.6935 33.2009 23.1539C33.2009 17.6142 28.6944 13.1077 23.1547 13.1077C17.6151 13.1077 13.1086 17.6142 13.1086 23.1539ZM14.0556 23.1539C14.0556 18.1368 18.1377 14.0547 23.1547 14.0547C28.1718 14.0547 32.2539 18.1368 32.2539 23.1539C32.2539 28.171 28.1718 32.253 23.1547 32.253C18.1377 32.253 14.0556 28.171 14.0556 23.1539Z" fill="#343434" stroke="#343434" stroke-width="0.4"/>
</svg>
