<svg width="34" height="34" viewBox="0 0 34 34" fill="none" xmlns="http://www.w3.org/2000/svg">
<path d="M22.8153 6.48561L22.8144 6.48649C22.7239 6.57693 22.6699 6.70757 22.6699 6.8356C22.6699 6.96142 22.7252 7.09324 22.8135 7.18382L22.8144 7.18472L22.8162 7.18653L22.8166 7.18698C22.9071 7.27628 23.0367 7.32918 23.1635 7.32918C23.2912 7.32918 23.4214 7.27477 23.514 7.18334L23.5149 7.18245C23.6042 7.09201 23.6571 6.96244 23.6571 6.8356C23.6571 6.71013 23.6039 6.58002 23.5135 6.48736L23.5126 6.48649C23.4222 6.39605 23.2915 6.34203 23.1635 6.34203C23.038 6.34203 22.9079 6.39522 22.8153 6.48561ZM1.39357 0.9C1.11541 0.9 0.9 1.1142 0.9 1.39357V28.6064C0.9 28.8846 1.1142 29.1 1.39357 29.1H28.6064C28.8846 29.1 29.1 28.8858 29.1 28.6064V1.39357C29.1 1.11541 28.8858 0.9 28.6064 0.9H1.39357ZM1.88715 1.88624H28.1138V28.1129H1.88715V1.88624ZM6.83651 6.34203C6.55834 6.34203 6.34293 6.55623 6.34293 6.8356C6.34293 7.11482 6.55729 7.32918 6.83651 7.32918H18.6292C18.9074 7.32918 19.1228 7.11497 19.1228 6.8356C19.1228 6.55638 18.9084 6.34203 18.6292 6.34203H6.83651Z"/>
</svg>
